<?xml version="1.0" encoding="UTF-8"?>
<svg width="112px" height="118px" viewBox="0 0 112 118" version="1.1" xmlns="http://www.w3.org/2000/svg" xmlns:xlink="http://www.w3.org/1999/xlink">
    <!-- Generator: Sketch 51.3 (57544) - http://www.bohemiancoding.com/sketch -->
    <title>SL_SatisfyanyCraving</title>
    <desc>Created with Sketch.</desc>
    <defs></defs>
    <g id="Page-1" stroke="none" stroke-width="1" fill="none" fill-rule="evenodd">
        <g id="SL_valueprop_illos" transform="translate(-193.000000, -770.000000)">
            <g id="Group-6-Copy-4" transform="translate(95.000000, 768.000000)">
                <g id="Group-18" transform="translate(0.000000, 2.000000)">
                    <g id="SL_SatisfyanyCraving" transform="translate(98.000000, 0.000000)">
                        <g id="Group-37">
                            <g id="Group-36">
                                <path d="M100.299647,8.4616605 C100.344215,9.11749661 99.3597152,9.73495628 98.102092,9.8432122 L2.71986008,18.0156747 C1.46166552,18.1227851 0.390314577,17.4337276 0.326890601,16.4748895 L0.152617514,13.8652918 C0.0891935375,12.9064537 1.05883757,12.0793556 2.31988906,12.0180678 L97.9381039,7.3865475 C99.1991554,7.32640533 100.256222,7.80696995 100.299647,8.4616605" id="Fill-2" fill="#E54359"></path>
                                <path d="M69.3365191,7.25904609 C69.3365191,7.25904609 69.4725092,12.6993355 71.23581,15.0128045 C73.0002536,17.325128 75.1720963,19.7743465 73.0002536,23.4470287 C70.8295538,27.119711 68.1154647,33.3767884 70.0147557,36.9137211 C71.914618,40.4512266 74.7646972,42.0836571 73.2716625,46.1647334 C71.7791992,50.2458096 58.8875619,54.7341343 57.1231183,55.0056332 C55.3586747,55.2788505 52.9171373,47.6602688 52.6457284,46.5719818 C52.3737481,45.4842676 50.4738858,37.1857929 49.7956492,34.8734694 C49.1168412,32.5611459 50.4738858,29.0236404 51.5600928,26.8476392 C52.6457284,24.6704924 54.4090292,20.9978102 53.3245364,18.4139878 C52.2383294,15.828447 50.6104473,12.5641588 50.2030483,10.387012 C49.7956492,8.21101082 48.8460037,6.98697434 49.5242403,6.71432981 C50.2030483,6.44225806 69.3365191,7.25904609 69.3365191,7.25904609" id="Fill-4" fill="#F9A51A"></path>
                                <path d="M52.5419645,39.2666549 C53.5441776,40.8819019 54.676667,42.7090785 54.676667,46.2127898 C54.676667,46.9299137 54.6286705,47.5742941 54.5429624,48.164833 C54.4012584,49.182095 54.1435627,50.0309588 53.8344423,50.7692756 C53.2664834,50.5052228 52.6870968,50.2600719 52.1019964,50.0418417 C51.8591568,49.9479053 51.6146031,49.8608424 51.3689066,49.7760706 C51.6757415,49.0532189 51.8968684,48.2295575 51.9797195,47.1647545 C52.0020036,46.8674804 52.0151455,46.549586 52.0151455,46.2127898 C52.0151455,43.4697338 51.2117752,42.1740995 50.283271,40.6728362 C49.2822007,39.0575892 48.1525682,37.2281215 48.1525682,33.7267013 C48.1525682,30.2264267 49.2822007,28.3929495 50.283271,26.7782752 C51.2117752,25.2793031 52.0151455,23.9813777 52.0151455,21.2394672 C52.0151455,18.4964112 51.2117752,17.2013497 50.283271,15.6989408 C49.8455884,14.9892632 49.3804793,14.2412091 48.9953643,13.3259024 C48.6536748,12.5079688 48.3759806,11.5548585 48.242276,10.3812269 C48.1828518,9.88118768 48.1525682,9.3399081 48.1525682,8.75051477 C48.1525682,8.36331372 48.1651388,7.99730562 48.1931367,7.64962656 C48.277702,6.49031452 48.4999716,5.53605866 48.7902363,4.71297003 L49.4027634,4.77196664 L51.5500364,4.98160508 C51.1969191,5.75772554 50.934081,6.64038357 50.8443732,7.81401518 C50.8232319,8.10842545 50.8112328,8.41830085 50.8112328,8.75051477 C50.8112328,9.3399081 50.8466588,9.86114029 50.9135111,10.3296765 C51.0809275,11.5033081 51.4357589,12.3647732 51.8757271,13.1683872 C52.0819978,13.5475693 52.3088385,13.9130046 52.5419645,14.2921867 C53.5441776,15.9080065 54.676667,17.738047 54.676667,21.2394672 C54.676667,24.7403146 53.5441776,26.5692096 52.5419645,28.1844566 C51.6146031,29.6891565 50.8112328,30.9836453 50.8112328,33.7267013 C50.8112328,36.4663206 51.6146031,37.7619549 52.5419645,39.2666549" id="Fill-6" fill="#FFDD00"></path>
                                <path d="M59.2345653,39.2666549 C60.2333501,40.8819019 61.368125,42.7090785 61.368125,46.2127898 C61.368125,48.6717456 60.8104511,50.3047489 60.1305004,51.6204306 C59.8413785,52.1777481 59.5334008,52.6789329 59.2345653,53.1589248 C59.0728627,53.4206864 58.9151599,53.6767203 58.7671706,53.9321813 C58.2192103,53.5043127 57.6541084,53.0993554 57.076436,52.7150182 C56.9101623,52.6061895 56.7461742,52.5002247 56.5804719,52.3948327 C56.7124623,52.175457 56.8427386,51.9606635 56.974729,51.7515978 C57.3204183,51.1965715 57.6443948,50.670757 57.9198034,50.0899554 C58.3889123,49.0967504 58.7100319,47.9414478 58.7100319,46.2127898 C58.7100319,43.4697338 57.9078043,42.1740995 56.974729,40.6728362 C55.977087,39.0575892 54.8423121,37.2281215 54.8423121,33.7267013 C54.8423121,30.2264267 55.977087,28.3929495 56.974729,26.7782752 C57.9078043,25.2793031 58.7100319,23.9813777 58.7100319,21.2394672 C58.7100319,18.4964112 57.9078043,17.2013497 56.974729,15.6989408 C56.4804791,14.8987635 55.9559457,14.0476085 55.5462611,12.9702044 C55.258282,12.2003845 55.0308699,11.3154354 54.9154497,10.2506325 C54.8674531,9.7883969 54.8423121,9.28950323 54.8423121,8.75395147 C54.8423121,8.51510111 54.8463118,8.28827919 54.8565968,8.06661232 C54.9034505,7.01498341 55.0582965,6.1248792 55.2817088,5.3470404 L57.9866557,5.60994762 C57.7289601,6.33050817 57.5558298,7.16619802 57.5124044,8.2321465 C57.5049763,8.39997181 57.5026908,8.57237938 57.5026908,8.75395147 C57.5026908,9.28492097 57.5335457,9.76262168 57.5872561,10.1979365 C57.7232462,11.2661761 58.0123681,12.0795274 58.3820556,12.8144075 C58.6351802,13.3259024 58.9288732,13.7978753 59.2345653,14.2921867 C60.2333501,15.9080065 61.368125,17.738047 61.368125,21.2394672 C61.368125,24.7403146 60.2333501,26.5692096 59.2345653,28.1844566 C58.3060611,29.6891565 57.5026908,30.9836453 57.5026908,33.7267013 C57.5026908,36.4663206 58.3060611,37.7619549 59.2345653,39.2666549" id="Fill-8" fill="#FFDD00"></path>
                                <path d="M65.447258,69.8559966 C65.5306805,70.2260142 65.6078178,70.5977501 65.6746701,70.9712044 L65.3981187,70.9712044 C65.3935476,70.6682024 65.3792629,70.3818111 65.3546933,70.113176 C65.2072754,68.4641348 64.7164538,67.4039142 64.1090693,66.3769149 C63.9662225,66.1340551 63.8188046,65.8934864 63.6662442,65.6483354 C63.2622735,64.9942177 62.8348759,64.3040146 62.4686167,63.4814987 C62.2297769,62.9413647 62.0166494,62.3439524 61.8572324,61.6646322 C62.1720668,62.12114 62.4686167,62.5885306 62.7497392,63.0662313 C63.2262761,63.8784371 63.6593876,64.7210003 64.0365031,65.583611 L64.1502091,65.8476638 C64.1873493,65.9347267 64.2227753,66.0223625 64.2576299,66.1094254 C64.7587365,67.3288797 65.1558506,68.5804097 65.447258,69.8559966" id="Fill-10" fill="#FFDD00"></path>
                                <path d="M65.9271661,39.2666549 C66.9259509,40.8819019 68.0607258,42.7090785 68.0607258,46.2127898 C68.0607258,46.9969292 68.006444,47.6951513 67.9035943,48.3303672 C67.6601834,49.8900543 67.1567913,51.0379107 66.6065455,52.0230968 C65.3934905,52.7425118 64.2307176,53.5627365 63.1296545,54.4820526 C63.2073632,54.5593783 63.2833577,54.6367039 63.3582094,54.7174663 C63.5547666,54.9208041 63.7496096,55.1264331 63.9353104,55.3360715 C64.1415812,55.5606023 64.3392812,55.7845603 64.53241,56.0136734 C64.415847,56.4140484 64.3267106,56.8585278 64.2701433,57.3482569 C64.221004,57.758942 64.193006,58.2045669 64.193006,58.7000239 C64.193006,59.1908986 64.221004,59.6307957 64.266715,60.0380441 C64.2307176,59.9853481 64.193006,59.9320793 64.1570086,59.8770922 C63.8244613,59.3971004 63.4719154,58.9245547 63.1062276,58.4663286 C62.6508321,57.8901093 62.1674385,57.3362285 61.6606181,56.7966672 C61.7109002,56.4197763 61.7777525,56.0629327 61.8571753,55.7307188 C61.87146,55.6757316 61.8840305,55.624754 61.8971724,55.5732035 L61.8994579,55.5709124 C62.0600177,54.9311142 62.2680027,54.3657778 62.4988431,53.8548557 C62.8571028,53.0604061 63.2730727,52.391396 63.6673298,51.7515978 C63.9998772,51.2103183 64.3209968,50.6965322 64.5912629,50.1317686 C65.0723709,49.1305445 65.3992044,47.9666502 65.3992044,46.2127898 C65.3992044,43.4697338 64.5969768,42.1740995 63.6673298,40.6728362 C62.6685451,39.0575892 61.5337701,37.2281215 61.5337701,33.7267013 C61.5337701,30.2264267 62.6685451,28.3929495 63.6673298,26.7782752 C64.5969768,25.2793031 65.3992044,23.9813777 65.3992044,21.2394672 C65.3992044,18.4964112 64.5969768,17.2013497 63.6673298,15.6989408 C63.1193695,14.8139917 62.5325549,13.8648909 62.1125853,12.6110697 C61.87146,11.896237 61.6886161,11.0805945 61.5983369,10.1206108 C61.557197,9.69560611 61.5337701,9.24138949 61.5337701,8.75395147 C61.5337701,8.66287903 61.5337701,8.57237938 61.5354843,8.48531642 C61.5514831,7.53564282 61.6520473,6.7119814 61.8114643,5.98512024 L64.4832707,6.24573634 C64.3055693,6.9164648 64.2010055,7.69544917 64.193006,8.64970503 L64.193006,8.75395147 C64.193006,9.23337053 64.2187185,9.66983089 64.2621439,10.0690604 C64.3724216,11.0290441 64.6049762,11.7851171 64.9049545,12.4587095 C65.1963619,13.1111089 65.5511933,13.6838916 65.9271661,14.2921867 C66.9259509,15.9080065 68.0607258,17.738047 68.0607258,21.2394672 C68.0607258,24.7403146 66.9259509,26.5692096 65.9271661,28.1844566 C64.9975192,29.6891565 64.193006,30.9836453 64.193006,33.7267013 C64.193006,36.4663206 64.9975192,37.7619549 65.9271661,39.2666549" id="Fill-12" fill="#FFDD00"></path>
                                <path d="M72.9422578,39.7924693 C73.8370501,41.2713941 74.7301283,43.0390013 74.7524124,46.0965149 L74.7524124,46.2127898 C74.7524124,47.2243239 74.6575621,48.0955263 74.5015734,48.8619095 C74.1764541,48.928925 73.853049,49.0016684 73.5336435,49.0824308 C72.8416937,49.2525472 72.1566005,49.4524484 71.4835064,49.6775519 C71.8109112,48.8773746 72.034895,47.948894 72.0817487,46.7071012 C72.0897482,46.5472949 72.0920337,46.3829063 72.0920337,46.2127898 C72.0920337,43.4697338 71.288092,42.1740995 70.3595878,40.6728362 C69.3579461,39.0575892 68.2248853,37.2281215 68.2248853,33.7267013 C68.2248853,30.2264267 69.3579461,28.3929495 70.3595878,26.7782752 C71.288092,25.2793031 72.0920337,23.9813777 72.0920337,21.2394672 C72.0920337,18.4964112 71.288092,17.2013497 70.3595878,15.6989408 C69.7607741,14.7309382 69.1133924,13.6896194 68.6917087,12.2542261 C68.4962942,11.5943805 68.3488764,10.8480448 68.2763102,9.99230751 C68.2460267,9.64863794 68.2305992,9.28492097 68.2248853,8.90230217 L68.2248853,8.75395147 C68.2248853,7.96637536 68.2820241,7.26242551 68.3825882,6.62720957 L70.5944279,6.84429419 L71.0361102,6.88553454 C70.9412599,7.43025082 70.8875496,8.04312823 70.8875496,8.75395147 C70.8875496,8.86106182 70.8875496,8.96759939 70.8921207,9.07127305 C70.8966918,9.38000288 70.9155475,9.66983089 70.9435455,9.94075708 C71.0281108,10.7942032 71.2092405,11.487843 71.4503659,12.1053026 C71.7629147,12.9071983 72.176599,13.5784996 72.6188527,14.2921867 C73.6204944,15.9080065 74.7524124,17.738047 74.7524124,21.2394672 C74.7524124,24.7403146 73.6204944,26.5692096 72.6188527,28.1844566 C71.6903485,29.6891565 70.8875496,30.9836453 70.8875496,33.7267013 C70.8875496,35.4272929 71.1955272,36.5728582 71.6509228,37.5528893 C71.9320453,38.1548838 72.2668782,38.6961634 72.6188527,39.2666549 C72.7268449,39.440208 72.8354084,39.6143339 72.9422578,39.7924693" id="Fill-14" fill="#FFDD00"></path>
                                <path d="M100.473749,8.26594067 C100.438894,8.92177678 99.3903987,9.41952489 98.1282044,9.37771175 L2.44942253,6.24115408 C1.18722827,6.19991373 0.205585104,5.38885353 0.254724401,4.42886984 L0.387286225,1.81640827 C0.436425522,0.856424586 1.4974915,0.150756388 2.75625744,0.237819347 L98.2539096,6.91990149 C99.5126755,7.00753724 100.506318,7.61010456 100.473749,8.26594067" id="Fill-16" fill="#E54359"></path>
                                <path d="M76.9788225,72.5487623 C87.4443499,72.9537196 97.8053135,73.4394393 108.289125,73.1564847 C108.543393,73.1496113 108.797089,73.1404468 109.051356,73.1335734 C107.446329,58.5768756 95.1415065,47.2518175 80.1928753,47.2518175 C65.3533791,47.2518175 53.1222653,58.412487 51.374392,72.8162518 C59.9086307,72.6249424 68.4468693,72.2176939 76.9788225,72.5487623" id="Fill-18" fill="#F9A51A"></path>
                                <path d="M65.0700853,56.6582257 C65.5174815,57.2109609 65.9414508,57.7768701 66.3425646,58.3530895 C66.4459857,58.5031585 66.5499781,58.6526548 66.6493995,58.8073061 C67.2464991,58.3072669 67.872168,57.8415946 68.5241208,57.4097165 C68.5252636,57.3856596 68.5286919,57.3621755 68.5309774,57.3375459 C68.5361199,57.2722487 68.5429766,57.2086698 68.5475477,57.1462365 C68.5498332,57.1170246 68.5555471,57.0878126 68.5595468,57.0586007 C68.5595468,57.0465723 68.5618324,57.0316799 68.5652607,57.0196515 C68.578974,56.8861932 68.5989725,56.7555987 68.6178283,56.6267226 C68.6389696,56.4892548 68.6612537,56.3529325 68.6881089,56.2183286 C68.7092502,56.0974715 68.7361054,55.9789055 68.7606751,55.8626306 C68.7995294,55.6948053 68.8389551,55.5349989 68.8823806,55.3786293 C68.9012363,55.3098954 68.9200921,55.2417342 68.9389479,55.1770098 C68.9572323,55.1157221 68.9760881,55.0550071 68.9949438,54.997156 C69.0240846,54.904938 69.0532253,54.815584 69.0840802,54.728521 C69.1086499,54.6580687 69.1332195,54.5876165 69.1600747,54.5206009 C69.1892155,54.4375474 69.2206418,54.3579306 69.2537822,54.2777411 C69.272638,54.2238995 69.2954935,54.1712035 69.3194917,54.1196531 C69.34349,54.0537831 69.3732021,53.9890586 69.4023429,53.9254798 C69.4234842,53.877366 69.4457683,53.8292523 69.4669096,53.779993 C67.8921666,54.5784519 66.4191305,55.5476002 65.0700853,56.6582257 M65.0700853,56.6582257 C65.5174815,57.2109609 65.9414508,57.7768701 66.3425646,58.3530895 C66.4459857,58.5031585 66.5499781,58.6526548 66.6493995,58.8073061 C67.2464991,58.3072669 67.872168,57.8415946 68.5241208,57.4097165 C68.5252636,57.3856596 68.5286919,57.3621755 68.5309774,57.3375459 C68.5361199,57.2722487 68.5429766,57.2086698 68.5475477,57.1462365 C68.5498332,57.1170246 68.5555471,57.0878126 68.5595468,57.0586007 C68.5595468,57.0465723 68.5618324,57.0316799 68.5652607,57.0196515 C68.578974,56.8861932 68.5989725,56.7555987 68.6178283,56.6267226 C68.6389696,56.4892548 68.6612537,56.3529325 68.6881089,56.2183286 C68.7092502,56.0974715 68.7361054,55.9789055 68.7606751,55.8626306 C68.7995294,55.6948053 68.8389551,55.5349989 68.8823806,55.3786293 C68.9012363,55.3098954 68.9200921,55.2417342 68.9389479,55.1770098 C68.9572323,55.1157221 68.9760881,55.0550071 68.9949438,54.997156 C69.0240846,54.904938 69.0532253,54.815584 69.0840802,54.728521 C69.1086499,54.6580687 69.1332195,54.5876165 69.1600747,54.5206009 C69.1892155,54.4375474 69.2206418,54.3579306 69.2537822,54.2777411 C69.272638,54.2238995 69.2954935,54.1712035 69.3194917,54.1196531 C69.34349,54.0537831 69.3732021,53.9890586 69.4023429,53.9254798 C69.4234842,53.877366 69.4457683,53.8292523 69.4669096,53.779993 C67.8921666,54.5784519 66.4191305,55.5476002 65.0700853,56.6582257 M109.320022,69.7417265 L109.298881,69.6157143 C108.688639,66.4373435 107.571577,63.4044595 105.977979,60.6006885 C105.542581,59.8423243 105.066045,59.0845329 104.558081,58.3530895 C103.672431,57.0775026 102.672504,55.8551844 101.57544,54.7159198 C101.442307,54.5784519 101.308603,54.4398386 101.172612,54.3035163 C99.7452872,52.8715597 98.1768295,51.5879538 96.5186639,50.4905023 C91.7098694,47.308122 86.0931335,45.6264322 80.2764121,45.6264322 C78.4862561,45.6264322 76.7212412,45.7845202 74.9933664,46.0966868 C74.0905746,46.2576387 73.2009248,46.459831 72.3227027,46.7072731 C70.8073839,47.1265499 69.3309195,47.6706934 67.9047371,48.3293935 C66.7642483,48.8552079 65.6569,49.4572025 64.5901201,50.1307948 C63.3970637,50.8799945 62.2531466,51.7214122 61.1663682,52.6498928 C60.5526984,53.1745617 59.9533132,53.7250058 59.3762122,54.3035163 C59.3173593,54.3625129 59.2602206,54.4209367 59.2013677,54.4810789 C59.8504635,55.0172034 60.4767039,55.5888405 61.0738035,56.190835 L61.1663682,56.2824803 L61.2577901,56.190835 C61.4674892,55.9789055 61.6806166,55.7732765 61.8960296,55.5739482 L61.8994579,55.5722298 C62.3000003,55.1901838 62.7119705,54.8304763 63.1302259,54.4810789 C64.2295748,53.5640539 65.3934905,52.7426836 66.6076882,52.0221231 C68.2315706,51.0592755 69.9434465,50.2739905 71.7256031,49.677151 C72.7101032,49.3483738 73.719173,49.0745837 74.7425274,48.8632269 C76.542397,48.4846176 78.3948342,48.2933082 80.2764121,48.2933082 C85.5708857,48.2933082 90.6808011,49.8226378 95.0490561,52.7157628 C96.5620893,53.7146957 97.9882717,54.8837451 99.2898917,56.190835 C99.4167396,56.3157017 99.544159,56.4468689 99.6647216,56.5711627 C100.655507,57.603317 101.568584,58.7168064 102.37424,59.8784096 C102.838777,60.5451286 103.273603,61.2341861 103.665575,61.9255347 C105.095185,64.4348954 106.103684,67.1498851 106.659643,69.9948964 L106.68307,70.119763 C106.736781,70.4021448 106.788206,70.6850995 106.831631,70.9714908 L109.523436,70.9714908 C109.465154,70.5585145 109.397159,70.1489749 109.320022,69.7417265 M65.0700853,56.6582257 C65.5174815,57.2109609 65.9414508,57.7768701 66.3425646,58.3530895 C66.4459857,58.5031585 66.5499781,58.6526548 66.6493995,58.8073061 C67.2464991,58.3072669 67.872168,57.8415946 68.5241208,57.4097165 C68.5252636,57.3856596 68.5286919,57.3621755 68.5309774,57.3375459 C68.5361199,57.2722487 68.5429766,57.2086698 68.5475477,57.1462365 C68.5498332,57.1170246 68.5555471,57.0878126 68.5595468,57.0586007 C68.5595468,57.0465723 68.5618324,57.0316799 68.5652607,57.0196515 C68.578974,56.8861932 68.5989725,56.7555987 68.6178283,56.6267226 C68.6389696,56.4892548 68.6612537,56.3529325 68.6881089,56.2183286 C68.7092502,56.0974715 68.7361054,55.9789055 68.7606751,55.8626306 C68.7995294,55.6948053 68.8389551,55.5349989 68.8823806,55.3786293 C68.9012363,55.3098954 68.9200921,55.2417342 68.9389479,55.1770098 C68.9572323,55.1157221 68.9760881,55.0550071 68.9949438,54.997156 C69.0240846,54.904938 69.0532253,54.815584 69.0840802,54.728521 C69.1086499,54.6580687 69.1332195,54.5876165 69.1600747,54.5206009 C69.1892155,54.4375474 69.2206418,54.3579306 69.2537822,54.2777411 C69.272638,54.2238995 69.2954935,54.1712035 69.3194917,54.1196531 C69.34349,54.0537831 69.3732021,53.9890586 69.4023429,53.9254798 C69.4234842,53.877366 69.4457683,53.8292523 69.4669096,53.779993 C67.8921666,54.5784519 66.4191305,55.5476002 65.0700853,56.6582257 M65.0700853,56.6582257 C65.5174815,57.2109609 65.9414508,57.7768701 66.3425646,58.3530895 C66.4459857,58.5031585 66.5499781,58.6526548 66.6493995,58.8073061 C67.2464991,58.3072669 67.872168,57.8415946 68.5241208,57.4097165 C68.5252636,57.3856596 68.5286919,57.3621755 68.5309774,57.3375459 C68.5361199,57.2722487 68.5429766,57.2086698 68.5475477,57.1462365 C68.5498332,57.1170246 68.5555471,57.0878126 68.5595468,57.0586007 C68.5595468,57.0465723 68.5618324,57.0316799 68.5652607,57.0196515 C68.578974,56.8861932 68.5989725,56.7555987 68.6178283,56.6267226 C68.6389696,56.4892548 68.6612537,56.3529325 68.6881089,56.2183286 C68.7092502,56.0974715 68.7361054,55.9789055 68.7606751,55.8626306 C68.7995294,55.6948053 68.8389551,55.5349989 68.8823806,55.3786293 C68.9012363,55.3098954 68.9200921,55.2417342 68.9389479,55.1770098 C68.9572323,55.1157221 68.9760881,55.0550071 68.9949438,54.997156 C69.0240846,54.904938 69.0532253,54.815584 69.0840802,54.728521 C69.1086499,54.6580687 69.1332195,54.5876165 69.1600747,54.5206009 C69.1892155,54.4375474 69.2206418,54.3579306 69.2537822,54.2777411 C69.272638,54.2238995 69.2954935,54.1712035 69.3194917,54.1196531 C69.34349,54.0537831 69.3732021,53.9890586 69.4023429,53.9254798 C69.4234842,53.877366 69.4457683,53.8292523 69.4669096,53.779993 C67.8921666,54.5784519 66.4191305,55.5476002 65.0700853,56.6582257 M65.0700853,56.6582257 C65.5174815,57.2109609 65.9414508,57.7768701 66.3425646,58.3530895 C66.4459857,58.5031585 66.5499781,58.6526548 66.6493995,58.8073061 C67.2464991,58.3072669 67.872168,57.8415946 68.5241208,57.4097165 C68.5252636,57.3856596 68.5286919,57.3621755 68.5309774,57.3375459 C68.5361199,57.2722487 68.5429766,57.2086698 68.5498332,57.1462365 C68.5532615,57.1170246 68.5555471,57.0878126 68.5595468,57.0586007 C68.5595468,57.0465723 68.5618324,57.0316799 68.5652607,57.0196515 C68.578974,56.8861932 68.5989725,56.7555987 68.6178283,56.6267226 C68.6389696,56.4892548 68.6612537,56.3529325 68.6881089,56.2183286 C68.7092502,56.0974715 68.7361054,55.9789055 68.7606751,55.8626306 C68.7995294,55.6948053 68.8389551,55.5349989 68.8823806,55.3786293 C68.9012363,55.3098954 68.9200921,55.2417342 68.9389479,55.1770098 C68.9572323,55.1157221 68.9760881,55.0550071 68.9949438,54.997156 C69.0240846,54.904938 69.0532253,54.815584 69.0840802,54.728521 C69.1086499,54.6580687 69.1332195,54.5876165 69.1600747,54.5206009 C69.1892155,54.4375474 69.2206418,54.3579306 69.2537822,54.2777411 C69.272638,54.2238995 69.2954935,54.1712035 69.3194917,54.1196531 C69.34349,54.0537831 69.3732021,53.9890586 69.4023429,53.9254798 C69.4234842,53.877366 69.4457683,53.8292523 69.4669096,53.779993 C67.8921666,54.5784519 66.4191305,55.5476002 65.0700853,56.6582257 M57.4209253,56.7722094 C57.3729288,56.7286779 57.3226467,56.6874376 57.2717932,56.6461972 C56.7078341,57.3415553 56.1810151,58.0586792 55.6867652,58.7981416 C56.282722,59.2930258 56.844967,59.8176947 57.3774999,60.372721 C57.4723501,60.4666574 57.5626293,60.5628849 57.6511943,60.6568212 C58.1408731,59.9007481 58.6676921,59.1652952 59.2356509,58.4538992 C58.6596927,57.8633603 58.055165,57.3026061 57.4209253,56.7722094 M51.725338,67.5445323 C51.5853481,68.0737835 51.4596429,68.6053257 51.347651,69.1431686 C51.2230886,69.7463087 51.1156678,70.3580406 51.0265314,70.9714908 L53.6537697,70.9714908 C53.193803,69.7228246 52.5407074,68.5680949 51.725338,67.5445323 M55.0508113,62.1523566 C54.768546,61.869402 54.4759958,61.5956119 54.1703037,61.3304136 C53.7337639,62.1523566 53.3366498,62.9937743 52.9806756,63.8518027 C53.7137653,64.5557526 54.3708606,65.3238541 54.9468188,66.1429332 C55.2016575,65.4281005 55.4862083,64.7275873 55.8004713,64.0385298 C55.9101776,63.8013978 56.0215981,63.566557 56.1375897,63.3305705 C55.7930432,62.9233221 55.4313551,62.5315387 55.0508113,62.1523566 M61.8571753,61.6649186 L61.8548897,61.6626275 C61.6371912,61.3401509 61.4074936,61.0251204 61.1709393,60.7129539 C60.6006949,61.4632991 60.0704476,62.2497297 59.5916251,63.0665177 C60.1830109,63.9176727 60.7109726,64.8106408 61.1686537,65.7368303 C61.5583398,64.9561276 61.9908799,64.2017729 62.4685596,63.4817851 C62.5611243,63.3408806 62.6559745,63.2016944 62.7508248,63.0665177 C62.4685596,62.588817 62.1720096,62.1214264 61.8571753,61.6649186 M58.0774491,66.1114302 C57.9220318,66.4854572 57.779185,66.8634938 57.6431949,67.2472581 C57.3443594,68.0949764 57.0895207,68.965606 56.8866783,69.856283 C57.0203829,70.2240094 57.13866,70.5945998 57.244938,70.9714908 L59.3664986,70.9714908 C59.4510639,70.5585145 59.5459142,70.1489749 59.653335,69.7440176 C59.2625061,68.4810319 58.7334016,67.2638688 58.0774491,66.1114302 M102.36624,65.8473774 L102.252534,65.5838974 C101.452592,63.7601575 100.423524,62.0337906 99.1961842,60.459784 C97.7442894,58.5925126 96.0301278,56.9537815 94.0994106,55.5888405 C90.0402761,52.7157628 85.2617652,51.1978889 80.2764121,51.1978889 C77.9028698,51.1978889 75.6104645,51.5444224 73.4466213,52.1888028 C72.0627216,52.6017791 70.7313894,53.1379036 69.4669096,53.779993 C67.8921666,54.5784519 66.4191305,55.5476002 65.0700853,56.6582257 C64.7958195,56.8810381 64.5301245,57.1112967 64.2690005,57.3495743 C63.8678867,57.708709 63.4810576,58.0787266 63.1056562,58.4647821 C63.4730582,58.9247265 63.8233185,59.397845 64.1581514,59.8784096 C64.1952916,59.9316784 64.2295748,59.98552 64.266715,60.0393615 C64.4118473,60.2449905 64.550123,60.4552017 64.6849704,60.6688496 C65.299783,60.0067129 65.9540213,59.3858165 66.6493995,58.8073061 C67.2464991,58.3072669 67.872168,57.8415946 68.5241208,57.4097165 C69.4817657,56.7745005 70.4959779,56.212028 71.5519014,55.7366184 C74.217994,54.5349205 77.1709229,53.8647648 80.2764121,53.8647648 C84.7069483,53.8647648 88.9569261,55.2148134 92.5635219,57.7671328 C94.2811117,58.9831504 95.8055727,60.4408822 97.0980505,62.0996606 C98.1545454,63.4571555 99.045338,64.9360802 99.7470014,66.4997768 L99.8167106,66.6595832 C100.429238,68.0548816 100.88349,69.4948572 101.183469,70.9714908 L103.889558,70.9714908 C103.578724,69.215912 103.067332,67.5044375 102.36624,65.8473774 M64.2575728,66.109139 C64.2061479,66.1967748 64.1581514,66.2861289 64.1090121,66.3766285 C63.524483,67.4385675 63.0422323,68.5640854 62.6776873,69.7394353 C62.7891078,70.1466838 62.8828153,70.5573689 62.9673806,70.9714908 L65.0866556,70.9714908 C65.1695067,70.6793716 65.2552148,70.3941259 65.3546362,70.1134624 C65.3837769,70.0258267 65.4157746,69.9399093 65.4472009,69.856283 C65.1557934,68.5806961 64.7598221,67.3285933 64.2575728,66.109139 M92.193263,61.1602971 C88.8655041,58.3284598 84.6355249,56.7699183 80.2764121,56.7699183 C76.9532244,56.7699183 73.8351646,57.6548674 71.1387885,59.2008078 C70.2582809,59.7094387 69.4234842,60.2833669 68.6423979,60.9231651 C68.477267,61.0560507 68.31785,61.1929457 68.1612899,61.3304136 C67.4561982,61.9490188 66.8008171,62.6180289 66.1962895,63.3328616 C66.6471139,64.2475955 67.0465136,65.1863862 67.3870603,66.1429332 C67.9670183,65.3164079 68.6281133,64.5477336 69.3532036,63.8495116 L69.3532036,63.8472204 C69.4046284,63.7979611 69.4549105,63.7498474 69.5051926,63.7040248 C70.1760011,63.0745367 70.9010914,62.5051907 71.6724641,62.0028604 C74.1499989,60.38074 77.104642,59.437367 80.2764121,59.437367 C84.0029993,59.437367 87.6244512,60.7708049 90.4711021,63.1931027 C92.8994975,65.2614208 94.6193729,67.9764104 95.4610262,70.9714908 L98.2093985,70.9714908 C97.3088923,67.1831065 95.2239006,63.7412557 92.193263,61.1602971 M80.2764121,62.8585976 C77.7028843,62.8585976 75.3082007,63.6513288 73.3272014,65.0065325 C72.5775414,65.5174546 71.8890199,66.1114302 71.2696362,66.7741397 C71.0370816,67.021009 70.8165261,67.2787612 70.6056843,67.5445323 C69.7943145,68.5680949 69.1377906,69.7228246 68.6801095,70.9714908 L71.5707572,70.9714908 C71.7718855,70.5619512 71.9992976,70.1678768 72.2535649,69.7921313 C72.8575211,68.9025999 73.6031814,68.1173149 74.4614049,67.4717889 C76.0824303,66.2506164 78.0948559,65.5254735 80.2764121,65.5254735 C84.0909929,65.5254735 87.399896,67.7495885 88.9792102,70.9714908 L91.8692865,70.9714908 C90.1305553,66.2403063 85.5897415,62.8585976 80.2764121,62.8585976" id="Fill-20" fill="#FFDD00"></path>
                                <path d="M39.2527559,72.5487623 C49.7194261,72.9537196 60.079247,73.4394393 70.5642016,73.1564847 C70.8173261,73.1496113 71.0721648,73.1404468 71.3252893,73.1335734 C69.7214055,58.5768756 57.41544,47.2518175 42.4679516,47.2518175 C27.6273125,47.2518175 15.3961988,58.412487 13.6494682,72.8162518 C22.183707,72.6249424 30.7219455,72.2176939 39.2527559,72.5487623" id="Fill-22" fill="#F9A51A"></path>
                                <path d="M71.1042196,69.7418983 L71.0830782,69.6153134 C70.9493736,68.9176641 70.7893852,68.2291794 70.6053986,67.5447041 C70.2717085,66.2840096 69.8523103,65.0502358 69.3534893,63.8496834 L69.3534893,63.8473923 C68.9952295,62.991655 68.5986868,62.1502374 68.1615756,61.3300126 C68.0318707,61.08658 67.8993089,60.8437202 67.7616046,60.6008603 C67.4159154,59.9965747 67.0433709,59.3957257 66.6491138,58.8074779 C66.5496924,58.6528266 66.4462713,58.5027576 66.3422789,58.3532613 C65.9417365,57.777042 65.5177672,57.2111327 65.0697997,56.6583975 C64.8949552,56.4401673 64.716111,56.2265194 64.5332671,56.0128715 C64.1584371,55.5695377 63.7653227,55.1376596 63.3590665,54.7160916 C63.2842147,54.6353293 63.2076489,54.5585764 63.1305116,54.4812507 C63.0722301,54.4205358 63.0133772,54.3626847 62.9562385,54.3031153 C62.8059637,54.1536191 62.6528319,54.00355 62.4974146,53.8557721 C62.0648745,53.4387864 61.6203353,53.0355474 61.1660825,52.6500647 C60.7501126,52.2943667 60.3238578,51.9495515 59.8884608,51.6196287 C59.370784,51.2244087 58.8405367,50.8463722 58.3017186,50.4906742 C58.0960192,50.3543519 57.8886057,50.2208935 57.6777638,50.0891535 C56.5138481,49.3600013 55.3053643,48.7173391 54.0597402,48.1640311 C53.2203725,47.7877129 52.3644345,47.4566446 51.4953546,47.1628071 C48.4818587,46.1501274 45.3038032,45.6266041 42.0606096,45.6266041 C34.1651817,45.6266041 26.742291,48.7087474 21.1592669,54.3031153 C16.5978831,58.8767846 13.7112351,64.6819366 12.8113003,70.9710898 L15.5019625,70.9710898 C16.380756,65.3967693 18.9828532,60.2594819 23.0419876,56.1904341 C28.1204768,51.0983965 34.8737018,48.29348 42.0606096,48.29348 C45.0981038,48.29348 48.0756024,48.7969559 50.8868273,49.7746959 C51.7227667,50.0633783 52.5455642,50.3955922 53.3512202,50.7684737 C54.3768601,51.2450289 55.3756449,51.787454 56.3372895,52.3946036 C56.504706,52.4999956 56.6686941,52.6059604 56.833825,52.7159347 C57.4120688,53.099699 57.9754565,53.5035108 58.5245596,53.9330978 C58.7548286,54.1095148 58.9788124,54.2945236 59.201082,54.4812507 C59.8507492,55.0168025 60.4764182,55.5890123 61.0735178,56.1904341 L61.1660825,56.2820793 C61.2620755,56.3794524 61.3569258,56.4756798 61.4500619,56.5707618 C61.5214853,56.6457963 61.5917659,56.7208308 61.659761,56.7970109 C62.1671528,57.3348538 62.6516891,57.8898802 63.1059419,58.4649539 C63.4733439,58.9248984 63.8236042,59.3980168 64.1584371,59.8780087 C64.1950059,59.9318502 64.2298605,59.9856918 64.2664293,60.0395334 C64.4115616,60.2451623 64.5498373,60.4553736 64.6852561,60.6690215 C64.9549508,61.0842889 65.2097895,61.5024202 65.4486293,61.9257066 C65.7126102,62.3873694 65.961735,62.8564783 66.1960038,63.3330335 C66.6468282,64.2477673 67.0462279,65.1865581 67.3867746,66.1431051 C67.833028,67.3934895 68.1872881,68.6799593 68.4449837,69.9944955 L68.4684105,70.1199348 C68.5215496,70.4017439 68.5718316,70.6846985 68.6158284,70.9710898 L71.307062,70.9710898 C71.2493519,70.5586863 71.1813568,70.1491468 71.1042196,69.7418983 M51.9524644,53.3322488 C51.4839269,54.0929041 51.0553865,54.8123191 50.7588366,55.7173156 C52.0107458,56.2780698 53.2106589,56.9613995 54.3477194,57.7667319 C54.4368558,57.829738 54.5259922,57.8944624 54.6168427,57.9626236 C54.6722673,56.8262228 54.8522543,55.8794131 55.1076643,55.0631979 C54.0934521,54.4039251 53.0420997,53.8242691 51.9524644,53.3322488 M65.4474866,69.8558821 C65.1560791,68.5808679 64.7595364,67.3287651 64.2578585,66.1093109 C64.2230039,66.0222479 64.1875779,65.935185 64.1515805,65.8475492 L64.0367316,65.5834964 C63.6596161,64.7208858 63.2265046,63.8788953 62.7511105,63.0666896 C62.4688452,62.5889888 62.1717239,62.1210254 61.8568896,61.6645177 L61.8551754,61.6627993 C61.6374769,61.3403227 61.4072079,61.0247195 61.1706536,60.712553 C61.1072296,60.6277811 61.0449484,60.5424365 60.9798103,60.4599558 C60.4341355,59.7594427 59.851892,59.0904325 59.2359366,58.4534983 C58.6599784,57.8629594 58.0548793,57.302778 57.421211,56.7723813 C57.3732145,56.7288498 57.3229324,56.6870366 57.2715075,56.6457963 C56.8206831,56.280361 56.3595736,55.9252357 55.8830367,55.5890123 C55.6264839,55.4074402 55.3687883,55.231596 55.1076643,55.0631979 C54.0934521,54.4039251 53.0420997,53.8242691 51.9524644,53.3322488 C51.1325238,52.9553578 50.2908705,52.6288717 49.4326469,52.3522177 C47.0745321,51.5904168 44.5929976,51.1980607 42.0606096,51.1980607 C30.2854628,51.1980607 20.4638887,59.742832 18.4417495,70.9710898 L21.1501247,70.9710898 C23.1356951,61.2206111 31.7590703,53.8649366 42.0606096,53.8649366 C44.1867413,53.8649366 46.2711617,54.1759576 48.2641602,54.7842527 C49.1138129,55.0402866 49.9474668,55.3513075 50.7588366,55.7173156 C52.0107458,56.2780698 53.2106589,56.9613995 54.3477194,57.7667319 C54.4368558,57.829738 54.5259922,57.8944624 54.6168427,57.9626236 C54.9836733,58.2289675 55.3407903,58.5084854 55.6870509,58.7983134 C56.2830077,59.2926248 56.8452527,59.8178665 57.3777855,60.3728929 C57.4726358,60.4668292 57.562915,60.5630567 57.6509086,60.656993 C58.0817345,61.1175103 58.4937047,61.5997932 58.8816766,62.0998325 C59.1296586,62.4142901 59.3662129,62.7367668 59.5919108,63.0666896 C60.1832966,63.9178445 60.7112583,64.8108127 61.168368,65.7370022 C61.2957874,65.9884537 61.4152073,66.2427692 61.5311989,66.4999486 L61.6014795,66.659755 C62.0414476,67.6632702 62.4019929,68.6925605 62.6774016,69.7396072 C62.7888221,70.1468556 62.8825296,70.5575408 62.9676662,70.9710898 L65.6748987,70.9710898 C65.6091891,70.5976356 65.5320519,70.2264724 65.4474866,69.8558821 M59.6530493,69.7441894 C59.2622204,68.4812037 58.7336873,67.2640407 58.0771634,66.111602 C57.5206323,65.1327165 56.8732507,64.2019447 56.1378754,63.3307423 C55.7927575,62.9234939 55.4310695,62.5317106 55.0505256,62.1525285 C54.7682603,61.8695739 54.4757101,61.595211 54.170018,61.3300126 C54.1088795,61.2721616 54.04317,61.2160289 53.9768891,61.160469 C52.8535419,60.2062131 51.6267737,59.3934346 50.3280106,58.7381712 C49.4817862,58.3114482 48.6024214,57.9505951 47.703058,57.6596215 C45.8917606,57.0753833 43.9878986,56.7700901 42.0606096,56.7700901 C33.3623827,56.7700901 26.0526266,62.8392949 24.1230522,70.9710898 L26.8708531,70.9710898 C28.7381463,64.3228019 34.83999,59.436966 42.0606096,59.436966 C44.0290384,59.436966 45.9688979,59.8109931 47.781338,60.5178069 C48.8926861,60.9519761 49.9548948,61.5127303 50.9462515,62.1914777 C51.3993616,62.5024987 51.8364728,62.833567 52.2552996,63.1927017 C52.503853,63.4046313 52.7461211,63.6245798 52.9803899,63.8519745 C53.7134796,64.5553516 54.3711463,65.3240259 54.9471045,66.1431051 C55.7573315,67.2932526 56.4075701,68.5413459 56.8863926,69.8558821 C57.0206686,70.2241813 57.1389457,70.5941989 57.2446523,70.9710898 L59.9924532,70.9710898 C59.8930319,70.5575408 59.7827542,70.1491468 59.6530493,69.7441894 M51.7250523,67.5447041 C51.1422373,66.8086785 50.4748571,66.1362317 49.7394818,65.550275 C47.6304918,63.8662941 44.9609709,62.8581967 42.0606096,62.8581967 C36.743852,62.8581967 32.2018954,66.2404781 30.4654498,70.9710898 L33.3560975,70.9710898 C34.9314119,67.7491875 38.2414578,65.5256454 42.0606096,65.5256454 C45.8751904,65.5256454 49.1840935,67.7491875 50.7628363,70.9710898 L53.653484,70.9710898 C53.1935173,69.7229965 52.5409931,68.5682667 51.7250523,67.5447041" id="Fill-24" fill="#FFDD00"></path>
                                <path d="M73.3819403,107.169635 C73.3819403,107.169635 74.1807395,109.477376 75.1663824,112.324678 C76.1520253,115.171981 74.3932955,117.479722 71.2369528,117.479722 L51.032131,117.479722 C47.8757883,117.479722 46.1159158,115.171981 47.1015587,112.324678 L48.8860008,107.169635 L73.3819403,107.169635 Z" id="Fill-26" fill="#E54359"></path>
                                <path d="M109.912779,71.9938505 C108.978561,76.7582564 107.311253,81.2746474 105.022276,85.4273215 C104.85086,85.739488 104.675444,86.0470723 104.498886,86.3546566 C104.091487,87.0574608 103.665232,87.7476639 103.22355,88.4264113 C103.03842,88.7128026 102.847577,89.0014851 102.649877,89.2855853 C102.633307,89.3090694 102.617308,89.3319807 102.60188,89.3554648 C102.517315,89.4791858 102.429893,89.6046252 102.341899,89.7266279 C101.937928,90.3108662 101.513959,90.8853672 101.083133,91.4507036 C100.751729,91.8837273 100.413467,92.3075864 100.06835,92.7268633 C99.5855274,93.3133927 99.0878492,93.8884665 98.5764576,94.450939 C98.2896213,94.7688334 97.9953569,95.0850094 97.69595,95.3971759 C88.6217503,104.897349 75.6004081,110.851424 61.1351705,110.851424 C46.6665045,110.851424 33.6440195,104.897349 24.5675342,95.4006126 L24.5515354,95.3817108 C24.2584138,95.0741265 23.9692919,94.7631055 23.6870266,94.450939 C23.1733495,93.8884665 22.6779569,93.3133927 22.1945633,92.7268633 L22.1894208,92.7194171 C21.8454458,92.3030042 21.5083273,91.8802906 21.1803511,91.4507036 C20.7460968,90.891095 20.3312698,90.3183124 19.9238707,89.7398019 L19.9158713,89.7266279 C19.8290204,89.6046252 19.7438837,89.4791858 19.661604,89.3554648 C19.6478907,89.333699 19.6324632,89.3125061 19.6193213,89.2913131 L19.6136075,89.2855853 C19.4181931,89.0014851 19.2284925,88.7128026 19.0399347,88.4264113 C18.5959669,87.7476639 18.1714262,87.0574608 17.7645986,86.3546566 C17.5891827,86.0585279 17.4171952,85.7549531 17.2532071,85.4530967 L17.2377796,85.4273215 C14.9522309,81.2746474 13.2849232,76.7582564 12.3529907,71.9938505 L109.912779,71.9938505 Z" id="Fill-28" fill="#BF242A"></path>
                                <path d="M111.674937,71.9435029 C111.674937,73.3330736 110.551019,74.459737 109.164833,74.459737 L12.0027303,74.459737 C10.6154023,74.459737 9.49148372,73.3330736 9.49148372,71.9435029 C9.49148372,70.5527867 10.6154023,69.4261232 12.0027303,69.4261232 L109.164833,69.4261232 C110.551019,69.4261232 111.674937,70.5527867 111.674937,71.9435029" id="Fill-30" fill="#E54359"></path>
                                <path d="M97.6960643,95.397405 C97.9948998,95.0852385 98.2897356,94.7684897 98.5765719,94.4511681 C99.0879634,93.8881228 99.5856417,93.313049 100.068464,92.7270924 C100.190169,92.5793145 100.306161,92.4263815 100.425581,92.2774581 C98.7731291,91.5757993 97.2252413,90.5711386 95.8756248,89.2566025 C93.3883764,86.8314408 89.3406697,86.8314408 86.8528499,89.2566025 C83.9616308,92.074693 80.1636203,93.4843111 76.3650384,93.4843111 C72.5670279,93.4843111 68.7695887,92.074693 65.8777983,89.2566025 C63.3905499,86.8314408 59.3428432,86.8314408 56.8550234,89.2566025 C51.0720139,94.8939291 41.6635527,94.8939291 35.8799717,89.2566025 C33.3927234,86.8314408 29.3450167,86.8314408 26.8571969,89.2566025 C25.4121588,90.665075 23.7402799,91.7212861 21.9558378,92.4263815 C22.0352606,92.5220362 22.1101123,92.622846 22.1895351,92.7190735 L22.1946776,92.7270924 C22.6780711,93.313049 23.1734638,93.8881228 23.6871409,94.4511681 C23.9694062,94.7633347 24.2585281,95.0743556 24.5516497,95.3819399 L24.5676485,95.4008417 C25.195603,96.0583962 25.8452702,96.6976216 26.5103649,97.3190908 C26.6263565,97.213126 26.7434909,97.1088795 26.8571969,96.9983325 C29.3450167,94.5731708 33.3927234,94.5731708 35.8799717,96.9983325 C41.6635527,102.636805 51.0720139,102.636805 56.8550234,96.9983325 C59.3428432,94.5731708 63.3905499,94.5731708 65.8777983,96.9983325 C68.7695887,99.8175686 72.5670279,101.227187 76.3650384,101.227187 C80.1636203,101.227187 83.9616308,99.8175686 86.8528499,96.9983325 C89.3406697,94.5731708 93.3883764,94.5731708 95.8756248,96.9983325 C95.9116222,97.033845 95.9493337,97.0664936 95.9864739,97.1014334 C96.5710029,96.546407 97.1412473,95.9793522 97.6960643,95.397405" id="Fill-32" fill="#E54359"></path>
                                <path d="M101.851992,83.0971272 C96.0689822,77.4598006 86.6599496,77.4598006 80.8769401,83.0971272 C78.3891203,85.5222888 74.341985,85.5222888 71.8541652,83.0971272 C66.0711557,77.4598006 56.6621231,77.4598006 50.8791136,83.0971272 C48.3912938,85.5222888 44.3441585,85.5222888 41.8563387,83.0971272 C36.0733292,77.4598006 26.6642966,77.4598006 20.881287,83.0971272 C19.7865092,84.1653668 18.3883248,84.7616335 16.9552858,84.889364 C17.0501361,85.0680722 17.1404152,85.2496443 17.2375511,85.4272069 L17.2529785,85.4529821 C17.417538,85.7554114 17.5889542,86.0584134 17.76437,86.354542 C18.1717691,87.0573463 18.5957384,87.7475494 19.0397062,88.4268696 C19.228264,88.7132609 19.4179645,89.0019433 19.6133789,89.2860435 L19.6190928,89.2911985 C19.6322347,89.3129643 19.6482335,89.3341572 19.6613754,89.3553502 C19.7442266,89.479644 19.8287919,89.6045106 19.9162141,89.7265133 L19.9236421,89.7402601 C20.2047646,90.138344 20.4984576,90.5289818 20.7910079,90.9190468 C20.9212841,91.0960366 21.0464179,91.2770359 21.1801225,91.4505891 C21.4338184,91.7816574 21.6949424,92.104134 21.9560663,92.4260379 C23.7405085,91.7215152 25.4123873,90.6653041 26.8574255,89.2568316 C29.3452452,86.8316699 33.3923806,86.8316699 35.8802003,89.2568316 C41.6632099,94.8941582 51.0722424,94.8941582 56.855252,89.2568316 C59.3430717,86.8316699 63.3902071,86.8316699 65.8780268,89.2568316 C68.7698173,92.0749221 72.5672564,93.4845402 76.365267,93.4845402 C80.1638489,93.4845402 83.961288,92.0749221 86.8530785,89.2568316 C89.3408982,86.8316699 93.3880336,86.8316699 95.8758533,89.2568316 C97.2248984,90.5713677 98.7727863,91.5760284 100.425809,92.2771144 C100.645793,92.0033243 100.867492,91.7312525 101.082905,91.4505891 C101.280605,91.1922641 101.465734,90.923629 101.658863,90.6607218 C101.887418,90.3497008 102.123401,90.0432621 102.341671,89.7265133 C102.430236,89.6045106 102.517086,89.479644 102.601652,89.3553502 C102.617651,89.3318661 102.633078,89.3095276 102.649648,89.2860435 C102.847348,89.0019433 103.038192,88.7132609 103.223321,88.4268696 C103.665575,87.7475494 104.091829,87.0573463 104.499229,86.354542 C104.675216,86.0469577 104.850632,85.7393735 105.022619,85.4272069 C105.130611,85.2307425 105.231175,85.0279774 105.337453,84.8297946 C104.060403,84.6287479 102.834206,84.0548197 101.851992,83.0971272" id="Fill-34" fill="#FFDD00"></path>
                            </g>
                        </g>
                    </g>
                </g>
            </g>
        </g>
    </g>
</svg>