<?xml version="1.0" encoding="UTF-8"?>
<svg width="190px" height="111px" viewBox="0 0 190 111" version="1.1" xmlns="http://www.w3.org/2000/svg" xmlns:xlink="http://www.w3.org/1999/xlink">
    <!-- Generator: Sketch 51.3 (57544) - http://www.bohemiancoding.com/sketch -->
    <title>Group 99</title>
    <desc>Created with Sketch.</desc>
    <defs></defs>
    <g id="Email-SL-20thYearAnniversaryLogos" stroke="none" stroke-width="1" fill="none" fill-rule="evenodd">
        <g id="Group-99">
            <path d="M108.455696,23.2470986 L108.455696,26.6431534 L111.436874,26.6431534 L111.436874,43.8056192 C111.436874,48.8054822 114.12186,49.8491808 117.107723,49.8491808 C118.003066,49.8491808 118.78597,49.7357014 118.78597,49.7357014 L118.78597,46.0783315 C118.78597,46.0783315 118.41586,46.1189342 117.892189,46.1189342 C116.290463,46.1189342 115.915668,45.1866329 115.915668,43.5047425 L115.915668,23.2470986 L108.455696,23.2470986 Z" id="Fill-1" fill="#FFFFFF"></path>
            <path d="M65.4357918,40.7449014 L65.4357918,41.4148466 C65.4357918,43.8791205 63.5706685,46.7525452 60.8492438,46.7525452 C59.0205589,46.7525452 57.9768603,45.4886548 57.9768603,44.0306 C57.9768603,41.006737 62.7862027,40.7449014 64.6148877,40.7449014 L65.4357918,40.7449014 Z M64.205737,37.9807918 C61.1079562,37.9807918 53.4241479,38.5450658 53.4241479,44.3601068 C53.4241479,48.2433945 56.481326,50.1439151 59.7279836,50.1439151 C64.1672164,50.1439151 65.7725863,46.414189 65.7725863,46.414189 L65.8470247,46.414189 C65.8470247,46.414189 65.7325041,46.8275041 65.7325041,47.4573671 L65.7325041,47.6801616 C65.7325041,48.8050658 66.4029699,49.6967644 68.1202575,49.6967644 L72.4876548,49.6967644 L72.4876548,46.3022712 L70.7365315,46.3022712 C70.2133808,46.3022712 69.9125041,46.0456411 69.9125041,45.4886548 L69.9125041,37.7241616 C69.9125041,32.8742164 67.2259562,30.2579425 62.153737,30.2579425 C57.5989425,30.2579425 54.6916822,32.5775041 54.6916822,32.5775041 L56.4094904,35.7091205 C56.4094904,35.7091205 58.9039562,33.8809562 61.7825863,33.8809562 C63.8309425,33.8809562 65.4019562,34.7742164 65.4019562,37.3092849 L65.4019562,37.9807918 L64.205737,37.9807918 Z" id="Fill-3" fill="#FFFFFF"></path>
            <path d="M81.3650795,32.8380904 C81.3650795,31.4596795 80.5462575,30.7080082 78.9065315,30.7080082 L74.0586685,30.7080082 L74.0586685,34.1019808 L76.2199836,34.1019808 C76.7410521,34.1019808 77.0398466,34.3690219 77.0398466,34.8880082 L77.0398466,46.302063 L74.2398192,46.302063 L74.2398192,49.6955151 L84.3530247,49.6955151 L84.3530247,46.302063 L81.5514356,46.302063 L81.5514356,41.4510767 C81.5514356,37.9811041 83.1948055,34.3690219 86.631463,34.3690219 C88.976011,34.3690219 89.313326,36.2268575 89.313326,38.3569397 L89.313326,49.6955151 L96.6233808,49.6955151 L96.6233808,46.302063 L93.8301205,46.302063 L93.8301205,41.2303644 C93.8301205,37.6854329 95.5078466,34.3690219 98.7872986,34.3690219 C101.140175,34.3690219 101.545162,36.1211863 101.545162,38.3569397 L101.545162,49.6955151 L108.861463,49.6955151 L108.861463,46.302063 L106.065079,46.302063 L106.065079,37.5006384 C106.065079,32.5361726 103.865244,30.2577342 99.9486411,30.2577342 C96.9247781,30.2577342 94.3501479,32.1988575 93.3048877,34.4413781 L93.2309699,34.4413781 C92.5225041,31.5278712 90.6193808,30.2577342 87.8943123,30.2577342 C84.7632164,30.2577342 82.3405863,32.5772959 81.3650795,34.5871315 L81.2916822,34.5871315 C81.2916822,34.5871315 81.3650795,34.1352959 81.3650795,33.6886658 L81.3650795,32.8380904 Z" id="Fill-5" fill="#FFFFFF"></path>
            <path d="M167.695249,38.5798904 C165.570893,37.9130685 163.634455,37.2748767 163.634455,35.6341096 C163.634455,34.3988493 164.975386,33.8033425 166.545359,33.8033425 C168.219441,33.8033425 169.416701,34.4389315 169.416701,35.4456712 L169.416701,36.5622466 L173.331742,36.5622466 L173.331742,34.1755342 C173.331742,31.3421918 169.267304,30.2578904 166.507359,30.2578904 C163.071222,30.2578904 159.116099,31.6789863 159.116099,35.6731507 C159.116099,39.254 162.326838,40.5210137 165.126345,41.5272329 C167.660373,42.4574521 169.526537,42.9092877 169.526537,44.5516164 C169.526537,45.8915068 168.110126,46.6025753 166.166921,46.6025753 C164.1524,46.6025753 162.290921,45.931589 162.290921,44.5516164 L162.290921,43.3975616 L158.444592,43.3975616 L158.444592,45.5557534 C158.444592,48.6530137 162.624071,50.143863 166.092482,50.143863 C170.457797,50.143863 174.040729,48.2032603 174.040729,44.3996164 C174.040729,40.7089315 170.607715,39.5132329 167.695249,38.5798904" id="Fill-7" fill="#FFFFFF"></path>
            <path d="M15.5950959,43.3974575 L15.5950959,45.5556493 C15.5950959,48.6529096 19.7719726,50.1437589 23.2445479,50.1437589 C27.6072603,50.1437589 31.1907123,48.2031562 31.1907123,44.3995123 C31.1907123,40.7088274 27.7540548,39.5131288 24.8457534,38.5797863 C22.7203562,37.9129644 20.7818356,37.2747726 20.7818356,35.6340055 C20.7818356,34.3987452 22.1232877,33.8032384 23.6875342,33.8032384 C25.3699452,33.8032384 26.5609589,34.4388274 26.5609589,35.4460877 L26.5609589,36.5621425 L30.4801644,36.5621425 L30.4801644,34.1754301 C30.4801644,31.3420877 26.4152055,30.2577863 23.6557808,30.2577863 C20.221726,30.2577863 16.2676438,31.6788822 16.2676438,35.6730466 C16.2676438,39.2538959 19.4747397,40.5214301 22.2747671,41.5271288 C24.8087945,42.4573479 26.6723562,42.9097041 26.6723562,44.5515123 C26.6723562,45.8914027 25.2575068,46.6024712 23.3169041,46.6024712 C21.301863,46.6024712 19.4388219,45.9314849 19.4388219,44.5515123 L19.4388219,43.3974575 L15.5950959,43.3974575 Z" id="Fill-9" fill="#FFFFFF"></path>
            <path d="M38.1672521,38.095937 C38.6518822,35.485389 40.4430877,33.7727863 42.9422384,33.7727863 C45.0322384,33.7727863 46.7078822,35.3344301 46.8208411,38.095937 L38.1672521,38.095937 Z M51.4459096,39.2515534 C51.4459096,34.2542932 48.4990877,30.257526 43.0505123,30.257526 C37.4202658,30.257526 33.4281836,34.3292521 33.4281836,40.1848959 C33.4281836,45.6345123 37.3833068,50.1440192 43.6137452,50.1440192 C48.3465671,50.1440192 51.2225945,47.4959918 51.2225945,47.4959918 L49.4683479,44.2935808 C49.4683479,44.2935808 47.0431151,46.3408959 43.9109781,46.3408959 C40.9641562,46.3408959 38.351526,44.4367315 38.0542932,40.8178822 L51.3334712,40.8178822 C51.3334712,40.8178822 51.4459096,39.7757452 51.4459096,39.2515534 Z" id="Fill-11" fill="#FFFFFF"></path>
            <path d="M140.724359,43.3974575 L140.724359,45.5556493 C140.724359,48.6529096 144.907482,50.1437589 148.371208,50.1437589 C152.742249,50.1437589 156.319975,48.2031562 156.319975,44.3995123 C156.319975,40.7088274 152.888523,39.5131288 149.973975,38.5797863 C147.85066,37.9129644 145.911619,37.2747726 145.911619,35.6340055 C145.911619,34.3987452 147.253071,33.8032384 148.822523,33.8032384 C150.50077,33.8032384 151.694386,34.4388274 151.694386,35.4460877 L151.694386,36.5621425 L155.606825,36.5621425 L155.606825,34.1754301 C155.606825,31.3420877 151.539784,30.2577863 148.7814,30.2577863 C145.356715,30.2577863 141.394825,31.6788822 141.394825,35.6730466 C141.394825,39.2538959 144.606605,40.5214301 147.399345,41.5271288 C149.937016,42.4573479 151.805784,42.9097041 151.805784,44.5515123 C151.805784,45.8914027 150.390414,46.6024712 148.444605,46.6024712 C146.430605,46.6024712 144.570688,45.9314849 144.570688,44.5515123 L144.570688,43.3974575 L140.724359,43.3974575 Z" id="Fill-13" fill="#FFFFFF"></path>
            <path d="M124.979553,38.095937 C125.465745,35.485389 127.254868,33.7727863 129.757663,33.7727863 C131.842458,33.7727863 133.524348,35.3344301 133.631581,38.095937 L124.979553,38.095937 Z M138.261855,39.2515534 C138.261855,34.2542932 135.313471,30.257526 129.866978,30.257526 C124.238814,30.257526 120.240485,34.3292521 120.240485,40.1848959 C120.240485,45.6345123 124.196649,50.1440192 130.432293,50.1440192 C135.166677,50.1440192 138.038019,47.4959918 138.038019,47.4959918 L136.286375,44.2935808 C136.286375,44.2935808 133.857499,46.3408959 130.723279,46.3408959 C127.77854,46.3408959 125.169033,44.4367315 124.871279,40.8178822 L138.148896,40.8178822 C138.148896,40.8178822 138.261855,39.7757452 138.261855,39.2515534 Z" id="Fill-15" fill="#FFFFFF"></path>
            <path d="M57.9770685,44.0303918 C57.9770685,45.4889671 59.0207671,46.752337 60.8494521,46.752337 C63.5703562,46.752337 65.436,43.8789123 65.436,41.4151589 L65.436,40.7446932 L64.6145753,40.7446932 C62.786411,40.7446932 57.9770685,41.0065288 57.9770685,44.0303918" id="Fill-17" fill="#C0262A"></path>
            <path d="M129.757767,33.7729425 C127.254452,33.7729425 125.465329,35.4855452 124.979658,38.0960932 L133.631164,38.0960932 C133.524452,35.3345863 131.842041,33.7729425 129.757767,33.7729425" id="Fill-19" fill="#C0262A"></path>
            <path d="M42.9423945,33.7729425 C40.4432438,33.7729425 38.6520384,35.4855452 38.1674082,38.0960932 L46.8204767,38.0960932 C46.7075178,35.3345863 45.0323945,33.7729425 42.9423945,33.7729425" id="Fill-21" fill="#C0262A"></path>
            <g id="Group-25" transform="translate(0.000000, 0.344082)">
                <polygon id="Clip-24" points="0 0.176882192 189.634992 0.176882192 189.634992 72.5226356 0 72.5226356"></polygon>
                <path d="M166.09269,49.7996767 C162.623759,49.7996767 158.4448,48.3088274 158.4448,45.2120877 L158.4448,43.0533753 L162.291129,43.0533753 L162.291129,44.2074301 C162.291129,45.5874027 164.152088,46.258389 166.167129,46.258389 C168.110334,46.258389 169.526225,45.5473205 169.526225,44.2074301 C169.526225,42.5656219 167.660581,42.1132658 165.126553,41.1830466 C162.326526,40.1773479 159.116307,38.9098137 159.116307,35.3289644 C159.116307,31.3348 163.07143,29.9137041 166.507047,29.9137041 C169.266992,29.9137041 173.331951,30.9980055 173.331951,33.8313479 L173.331951,36.2180603 L169.41691,36.2180603 L169.41691,35.1020055 C169.41691,34.0947452 168.219129,33.4591562 166.545567,33.4591562 C164.975595,33.4591562 163.634142,34.054663 163.634142,35.2899233 C163.634142,36.9306904 165.571101,37.5688822 167.695458,38.2357041 C170.607403,39.1690466 174.040937,40.3647452 174.040937,44.0554301 C174.040937,47.859074 170.457485,49.7996767 166.09269,49.7996767 Z M148.444553,46.258389 C150.390362,46.258389 151.805732,45.5473205 151.805732,44.2074301 C151.805732,42.5656219 149.936964,42.1132658 147.399293,41.1830466 C144.606553,40.1773479 141.394773,38.9098137 141.394773,35.3289644 C141.394773,31.3348 145.357184,29.9137041 148.781348,29.9137041 C151.539732,29.9137041 155.606773,30.9980055 155.606773,33.8313479 L155.606773,36.2180603 L151.694334,36.2180603 L151.694334,35.1020055 C151.694334,34.0947452 150.500718,33.4591562 148.822471,33.4591562 C147.253019,33.4591562 145.911567,34.054663 145.911567,35.2899233 C145.911567,36.9306904 147.850608,37.5688822 149.973923,38.2357041 C152.888471,39.1690466 156.320444,40.3647452 156.320444,44.0554301 C156.320444,47.859074 152.742718,49.7996767 148.371677,49.7996767 C144.90743,49.7996767 140.724307,48.3088274 140.724307,45.2120877 L140.724307,43.0533753 L144.570636,43.0533753 L144.570636,44.2074301 C144.570636,45.5874027 146.430553,46.258389 148.444553,46.258389 Z M130.723019,45.9965534 C133.857238,45.9965534 136.286115,43.9497589 136.286115,43.9497589 L138.037759,47.1516493 C138.037759,47.1516493 135.166416,49.7996767 130.432553,49.7996767 C124.196389,49.7996767 120.240745,45.2906904 120.240745,39.8405534 C120.240745,33.9849096 124.238553,29.9137041 129.866718,29.9137041 C135.313732,29.9137041 138.262115,33.9104712 138.262115,38.907211 C138.262115,39.4314027 138.149156,40.4740603 138.149156,40.4740603 L124.871019,40.4740603 C125.169293,44.092389 127.7788,45.9965534 130.723019,45.9965534 Z M117.892553,45.7748 C118.416225,45.7748 118.785814,45.7341973 118.785814,45.7341973 L118.785814,49.3915671 C118.785814,49.3915671 118.00291,49.5055671 117.107567,49.5055671 C114.121704,49.5055671 111.436718,48.4613479 111.436718,43.4614849 L111.436718,26.2990192 L108.45554,26.2990192 L108.45554,22.9029644 L115.915512,22.9029644 L115.915512,43.1606082 C115.915512,44.8430192 116.290827,45.7748 117.892553,45.7748 Z M81.3651836,34.2431014 C82.3406904,32.2332658 84.7633205,29.9137041 87.8944164,29.9137041 C90.6194849,29.9137041 92.5220877,31.1838411 93.231074,34.0973479 L93.3049918,34.0973479 C94.3502521,31.8548274 96.9248822,29.9137041 99.9487452,29.9137041 C103.865348,29.9137041 106.065184,32.1921425 106.065184,37.1566082 L106.065184,45.9580329 L108.861567,45.9580329 L108.861567,49.3514849 L101.545266,49.3514849 L101.545266,38.012389 C101.545266,35.7771562 101.140279,34.0249918 98.7874027,34.0249918 C95.5079507,34.0249918 93.8302247,37.3408822 93.8302247,40.8863342 L93.8302247,45.9580329 L96.6234849,45.9580329 L96.6234849,49.3514849 L89.3129096,49.3514849 L89.3129096,38.012389 C89.3129096,35.8828274 88.9761151,34.0249918 86.6315671,34.0249918 C83.1949096,34.0249918 81.5515397,37.637074 81.5515397,41.1070466 L81.5515397,45.9580329 L84.3531288,45.9580329 L84.3531288,49.3514849 L74.2399233,49.3514849 L74.2399233,45.9580329 L77.0399507,45.9580329 L77.0399507,34.5439781 C77.0399507,34.0249918 76.7411562,33.7579507 76.2200877,33.7579507 L74.0587726,33.7579507 L74.0587726,30.3639781 L78.9066356,30.3639781 C80.5463616,30.3639781 81.3651836,31.1151288 81.3651836,32.4940603 L81.3651836,33.3446356 C81.3651836,33.7912658 81.2917863,34.2431014 81.2917863,34.2431014 L81.3651836,34.2431014 Z M61.7826904,33.5372384 C58.9035397,33.5372384 56.409074,35.3654027 56.409074,35.3654027 L54.6917863,32.2332658 C54.6917863,32.2332658 57.5990466,29.9137041 62.1538411,29.9137041 C67.2260603,29.9137041 69.9126082,32.5299781 69.9126082,37.3804438 L69.9126082,45.144937 C69.9126082,45.7014027 70.2134849,45.9580329 70.7361151,45.9580329 L72.4877589,45.9580329 L72.4877589,49.3530466 L68.1203616,49.3530466 C66.403074,49.3530466 65.7326082,48.4613479 65.7326082,47.3364438 L65.7326082,47.1131288 C65.7326082,46.4832658 65.8466082,46.0699507 65.8466082,46.0699507 L65.7726904,46.0699507 C65.7726904,46.0699507 64.1673205,49.7996767 59.7280877,49.7996767 C56.4814301,49.7996767 53.4242521,47.8996767 53.4242521,44.016389 C53.4242521,38.2013479 61.1080603,37.637074 64.2058411,37.637074 L65.4015397,37.637074 L65.4015397,36.9655671 C65.4015397,34.4304986 63.8310466,33.5372384 61.7826904,33.5372384 Z M43.9112384,45.9965534 C47.0433753,45.9965534 49.4680877,43.9497589 49.4680877,43.9497589 L51.2228548,47.1516493 C51.2228548,47.1516493 48.3463068,49.7996767 43.6134849,49.7996767 C37.3830466,49.7996767 33.4284438,45.2906904 33.4284438,39.8405534 C33.4284438,33.9849096 37.420526,29.9137041 43.0507726,29.9137041 C48.4988274,29.9137041 51.4456493,33.9104712 51.4456493,38.907211 C51.4456493,39.4314027 51.3337315,40.4740603 51.3337315,40.4740603 L38.0545534,40.4740603 C38.3517863,44.092389 40.9638959,45.9965534 43.9112384,45.9965534 Z M23.3173205,46.258389 C25.2579233,46.258389 26.6727726,45.5473205 26.6727726,44.2074301 C26.6727726,42.5656219 24.8086904,42.1132658 22.274663,41.1830466 C19.4746356,40.1773479 16.2675397,38.9098137 16.2675397,35.3289644 C16.2675397,31.3348 20.2216219,29.9137041 23.6561973,29.9137041 C26.4151014,29.9137041 30.4800603,30.9980055 30.4800603,33.8313479 L30.4800603,36.2180603 L26.5608548,36.2180603 L26.5608548,35.1020055 C26.5608548,34.0947452 25.3703616,33.4591562 23.6874301,33.4591562 C22.1231836,33.4591562 20.7817315,34.054663 20.7817315,35.2899233 C20.7817315,36.9306904 22.7202521,37.5688822 24.8461699,38.2357041 C27.7544712,39.1690466 31.1911288,40.3647452 31.1911288,44.0554301 C31.1911288,47.859074 27.6071562,49.7996767 23.2449644,49.7996767 C19.772389,49.7996767 15.5949918,48.3088274 15.5949918,45.2120877 L15.5949918,43.0533753 L19.4387178,43.0533753 L19.4387178,44.2074301 C19.4387178,45.5874027 21.3022795,46.258389 23.3173205,46.258389 Z M177.707677,0.176882192 C174.037293,0.176882192 142.224005,3.91545753 94.816663,3.91545753 C47.4072384,3.91545753 15.5949918,0.176882192 11.9266904,0.176882192 C5.96485479,0.176882192 -0.000104109589,3.91545753 -0.000104109589,10.2718685 L-0.000104109589,36.3518411 L-0.000104109589,62.429211 C-0.000104109589,68.7871836 5.96485479,72.5226356 11.9266904,72.5226356 C15.5949918,72.5226356 47.4072384,68.7871836 94.816663,68.7871836 C142.224005,68.7871836 174.037293,72.5226356 177.707677,72.5226356 C183.665348,72.5226356 189.634992,68.7871836 189.634992,62.429211 L189.634992,36.3518411 L189.634992,10.2718685 C189.634992,3.91545753 183.665348,0.176882192 177.707677,0.176882192 Z" id="Fill-23" fill="#C0262A"></path>
            </g>
            <path d="M23.2081096,71.7398877 C23.2081096,71.7393671 23.207589,71.7393671 23.207589,71.7393671 C23.1976986,72.3176959 23.0253973,73.0542712 22.8296712,73.4696685 C22.4918356,74.1885452 21.942137,74.6393397 21.6652055,74.9344904 C21.3726575,75.2452575 21.1774521,75.6439973 21.1462192,76.0698055 C21.1430959,76.1109288 21.1415342,76.1530932 21.1415342,76.194737 C21.1415342,77.2842438 22.0665479,78.1681342 23.207589,78.1681342 C24.1435342,78.1681342 24.9732877,77.578874 25.2929041,76.6481342 C25.2929041,76.6481342 25.3256986,76.5362164 25.3324658,76.5127918 C25.4407397,76.1494493 25.5016438,75.7652849 25.5016438,75.3670658 C25.5016438,73.7658603 24.564137,72.3832849 23.2081096,71.7398877" id="Fill-26" fill="#FAA61B"></path>
            <path d="M44.9409863,70.4573096 C44.9409863,70.4573096 44.9404658,70.456789 44.9404658,70.456789 C44.9305753,71.0351178 44.758274,71.7716932 44.5625479,72.187611 C44.2247123,72.9059671 43.6750137,73.3567616 43.3980822,73.6524329 C43.1055342,73.9632 42.9103288,74.3614192 42.8790959,74.7872274 C42.8759726,74.8283507 42.874411,74.8705151 42.874411,74.9121589 C42.874411,76.0016658 43.7994247,76.8855562 44.9404658,76.8855562 C45.876411,76.8855562 46.7061644,76.2962959 47.0257808,75.3660767 C47.0257808,75.3660767 47.0585753,75.2536384 47.0653425,75.2307342 C47.1736164,74.8673918 47.2345205,74.4827068 47.2345205,74.0844877 C47.2345205,72.4832822 46.2970137,71.1012274 44.9409863,70.4573096" id="Fill-28" fill="#FAA61B"></path>
            <path d="M25.3324658,76.5127918 C25.3256986,76.5362164 25.2929041,76.6481342 25.2929041,76.6481342 C24.9732877,77.578874 24.1435342,78.1681342 23.2070685,78.1681342 C22.0665479,78.1681342 21.1415342,77.2842438 21.1415342,76.194737 C21.1415342,76.1530932 21.1430959,76.1114493 21.1462192,76.0698055 C21.1774521,75.6439973 21.3726575,75.2452575 21.6652055,74.9344904 C21.942137,74.6393397 22.4913151,74.1885452 22.8296712,73.4696685 C23.0253973,73.0542712 23.1976986,72.3176959 23.2070685,71.7393671 C23.207589,71.7393671 23.207589,71.7393671 23.2081096,71.7398877 C24.564137,72.3832849 25.5016438,73.7658603 25.5016438,75.3670658 C25.5016438,75.7652849 25.4407397,76.1494493 25.3324658,76.5127918 M23.4204932,65.3225726 C23.3398082,66.4495589 23.0170685,67.8170384 22.6188493,68.6629288 C22.023863,69.9278603 21.1467397,70.7935315 20.5059452,71.4254767 C20.362274,71.5675863 20.2316164,71.6961616 20.1217808,71.8132849 C19.521589,72.4509562 19.1587671,73.2432301 19.0994247,74.0433123 C19.0936986,74.1239973 19.0905753,74.2041616 19.0905753,74.2864082 C19.0905753,76.4331479 20.9244658,78.1795863 23.1784384,78.1795863 C25.0649041,78.1795863 26.6916164,76.9932575 27.322,75.1572849 L27.4011233,74.8855589 L27.4021644,74.8824356 C27.6312055,74.1130658 27.7472877,73.3259973 27.7472877,72.5441342 C27.7472877,69.5306822 26.0612329,66.7389836 23.4204932,65.3225726" id="Fill-30" fill="#FEDE00"></path>
            <path d="M47.0653425,75.2307342 C47.0585753,75.2536384 47.0257808,75.3660767 47.0257808,75.3660767 C46.7061644,76.2962959 45.876411,76.8855562 44.9399452,76.8855562 C43.7994247,76.8855562 42.874411,76.0016658 42.874411,74.9121589 C42.874411,74.8705151 42.8759726,74.8288712 42.8790959,74.7872274 C42.9103288,74.3614192 43.1055342,73.9632 43.3980822,73.6524329 C43.6750137,73.3567616 44.2241918,72.9059671 44.5625479,72.187611 C44.758274,71.7716932 44.9305753,71.0351178 44.9399452,70.456789 C44.9404658,70.456789 44.9404658,70.4573096 44.9409863,70.4573096 C46.2970137,71.1012274 47.2345205,72.4832822 47.2345205,74.0844877 C47.2345205,74.4827068 47.1736164,74.8673918 47.0653425,75.2307342 M45.1533699,64.0405151 C45.0721644,65.1669808 44.7499452,66.5344603 44.351726,67.3803507 C43.7567397,68.6452822 42.8796164,69.5109534 42.2388219,70.1428986 C42.0951507,70.2850082 41.9644932,70.4135836 41.8546575,70.5307068 C41.2544658,71.1683781 40.8916438,71.9606521 40.8323014,72.7607342 C40.8265753,72.8414192 40.8234521,72.9221041 40.8234521,73.0043507 C40.8234521,75.1510904 42.6573425,76.8970082 44.9113151,76.8970082 C46.7977808,76.8970082 48.4244932,75.7106795 49.0548767,73.8747068 L49.134,73.6029808 L49.1350411,73.5998575 C49.3640822,72.8304877 49.4801644,72.0434192 49.4801644,71.2615562 C49.4801644,68.2486247 47.7941096,65.4564055 45.1533699,64.0405151" id="Fill-32" fill="#FEDE00"></path>
            <path d="M142.211773,92.3188137 C142.211773,92.3896082 142.183142,92.4567589 142.132649,92.5051699 C142.084238,92.5525397 142.01917,92.5790877 141.951499,92.5790877 L141.944211,92.5790877 L139.755307,92.5181836 C139.614238,92.5140192 139.502321,92.3984575 139.502321,92.2579096 L139.505964,87.2929233 C139.505964,87.2221288 139.534595,87.1544575 139.586129,87.1050055 C139.636622,87.0565945 139.707416,87.034211 139.775608,87.0326493 L141.965033,87.1138548 C142.10506,87.1195808 142.215416,87.2341014 142.215416,87.3741288 L142.211773,92.3188137 Z M145.265307,80.3779644 C140.477827,80.1088411 138.094238,79.9901562 133.394211,79.7897452 L133.372868,106.892074 L139.490348,106.892074 L139.496074,99.6850877 C139.496074,99.6158548 139.524184,99.5492247 139.573636,99.4997726 C139.623608,99.4508411 139.693362,99.4227315 139.759992,99.4248137 L141.949416,99.455526 C142.092047,99.4576082 142.206047,99.5736904 142.206047,99.7158 L142.200321,106.892074 L148.317279,106.892074 L148.323005,99.8173068 C148.324047,97.9875808 146.92169,96.4087589 145.261142,96.3707589 C145.119553,96.3671151 145.006595,96.2515534 145.007115,96.1104849 L145.007115,96.1042384 C145.010238,95.9605671 145.122156,95.8528137 145.273115,95.850211 C146.008129,95.8590603 146.730649,95.5717178 147.297526,95.0188959 C147.951855,94.379663 148.32769,93.4697452 148.328211,92.5223479 L148.334458,83.978074 C148.336019,82.1197178 146.930019,80.4711425 145.265307,80.3779644 Z" id="Fill-34" fill="#FFFFFF"></path>
            <path d="M90.028611,106.892126 L104.979789,106.892126 L104.982392,99.6648384 C101.620693,99.6513041 99.8549945,99.6460986 96.4100082,99.6408932 C96.2658164,99.6408932 96.1497342,99.5242904 96.1497342,99.3806192 L96.1502548,96.8179616 C96.1502548,96.7492493 96.1778438,96.6831397 96.2267753,96.6342082 C96.2757068,96.5852767 96.3418164,96.5576877 96.4105288,96.5576877 L96.4110493,96.5576877 C98.9658986,96.5628932 100.286008,96.566537 102.75757,96.5785096 L102.760173,89.3423726 C100.286008,89.3225918 98.9664192,89.3147836 96.4105288,89.3069753 C96.2668575,89.3064548 96.1512959,89.1898521 96.1512959,89.0467014 L96.1518164,86.4835233 C96.1518164,86.4142904 96.1794055,86.3476603 96.228337,86.2987288 C96.2767479,86.2508384 96.3428575,86.2232493 96.4120904,86.2232493 L96.4131315,86.2232493 C99.8591589,86.236263 101.625378,86.2497973 104.987077,86.2857151 L104.9902,79.0584274 C100.025214,78.9803452 94.9962,78.9485918 90.0275699,78.9616055 L90.028611,106.892126 Z" id="Fill-36" fill="#FFFFFF"></path>
            <path d="M120.543704,94.4340603 C120.543704,94.5038137 120.515595,94.5704438 120.466142,94.6193753 C120.417211,94.6672658 120.351622,94.6943342 120.28343,94.6943342 L120.279786,94.6943342 L118.090882,94.6657041 C117.948252,94.6641425 117.833732,94.5480603 117.833732,94.4054301 L117.838416,86.7242247 C117.838416,86.6544712 117.866526,86.5873205 117.916499,86.538389 C117.966471,86.488937 118.037266,86.4561425 118.103896,86.4639507 L120.294362,86.5102795 C120.43543,86.5134027 120.548389,86.6294849 120.548389,86.7705534 L120.543704,94.4340603 Z M123.605047,79.4735123 L123.604526,79.4735123 C120.078855,79.3537863 118.346471,79.3043342 114.776033,79.2184438 C114.07954,79.198663 113.376279,79.4901699 112.820334,80.0331014 C112.121759,80.7155397 111.720416,81.7040603 111.719896,82.7467178 L111.708444,106.892334 L117.825923,106.892334 L117.829047,102.045512 C117.829047,101.976279 117.856636,101.909649 117.905567,101.861238 C117.954499,101.812827 118.020088,101.785238 118.089321,101.785238 L118.090362,101.785238 L120.279786,101.79669 C120.422937,101.797211 120.538499,101.913293 120.538499,102.056964 L120.535375,106.892334 L126.652855,106.892334 L126.670553,83.1324438 C126.672115,81.2048548 125.268197,79.529211 123.605047,79.4735123 Z" id="Fill-38" fill="#FFFFFF"></path>
            <path d="M167.020151,91.0642411 C164.825521,90.9538849 163.728205,90.9013096 161.533055,90.7992822 C161.394068,90.7930356 161.284753,90.6785151 161.284753,90.5395288 L161.285795,88.1882137 C161.285795,88.1163781 161.315466,88.0481863 161.367,87.9987342 C161.419055,87.9498027 161.488808,87.9232548 161.560123,87.9284603 C164.633438,88.0903507 166.215384,88.1788438 169.199685,88.3558301 L169.200205,81.9078027 C164.863521,81.5543507 162.661082,81.389337 158.224973,81.0832548 C157.485795,81.0327616 156.772123,81.2935562 156.20889,81.8193096 C155.564452,82.4205425 155.194863,83.2987068 155.194342,84.228926 L155.188096,93.8767616 C155.187055,95.7044055 156.584726,97.2832274 158.240589,97.3248712 C160.436781,97.3800493 161.534616,97.4086795 163.731329,97.4685425 C163.872397,97.4727068 163.984315,97.5877479 163.984315,97.7288164 L163.983274,100.065556 C163.983274,100.13583 163.955164,100.202981 163.905192,100.251392 C163.854699,100.300323 163.790151,100.31594 163.717795,100.32583 C160.287904,100.255556 158.529493,100.221721 155.183932,100.162378 L155.179767,106.892022 L167.030041,106.892022 C168.68226,106.892022 170.07889,105.421474 170.07889,103.680241 L170.07889,94.4462411 C170.07889,92.6966795 168.678616,91.1475288 167.020151,91.0642411" id="Fill-40" fill="#FFFFFF"></path>
            <path d="M46.2652082,99.9262575 L43.6567425,99.9616548 L43.6530986,99.9616548 C43.5849068,99.9616548 43.5193178,99.9351068 43.4703863,99.8872164 C43.4209342,99.8382849 43.3928247,99.7711342 43.3928247,99.7013808 L43.3808521,87.3737644 C43.3808521,87.2332164 43.4922493,87.1046411 43.6327973,87.0994356 L46.2417836,87.0135452 C46.3110164,87.0062575 46.3802493,87.0374904 46.4307425,87.0869425 C46.4817562,87.135874 46.5103863,87.2035452 46.5103863,87.2738192 L46.5218384,99.6659836 C46.5223589,99.8080932 46.4073178,99.9241753 46.2652082,99.9262575 M51.0797562,80.6514082 C50.5337014,80.1324219 49.8533452,79.8711068 49.1552904,79.8992164 C45.6457562,80.0725589 43.9420027,80.1652164 40.475674,80.3708329 C38.8395918,80.4676548 37.4580575,82.119874 37.4596192,83.9777096 L37.473674,103.484723 C37.4741945,104.445655 37.8515918,105.373271 38.5095644,106.029162 C39.0644685,106.582504 39.7635644,106.883901 40.4803589,106.884942 L49.1630986,106.866203 C50.7918932,106.862559 52.1671808,105.249381 52.1656192,103.343134 L52.1500027,83.2603945 C52.1494822,82.2489699 51.7590712,81.2979288 51.0797562,80.6514082" id="Fill-42" fill="#FFFFFF"></path>
            <path d="M77.1862247,79.0524932 L77.1898685,89.1001096 C77.1898685,89.2427397 77.0748274,89.3588219 76.9321973,89.3603836 L74.7391288,89.3822466 C74.6761425,89.3827671 74.6032658,89.3556986 74.5532932,89.3067671 C74.5043616,89.2578356 74.4762521,89.191726 74.4762521,89.1219726 L74.4720877,79.0956986 C72.0687178,79.1368219 70.7470466,79.1638904 68.341074,79.2221918 L68.3473205,90.5201644 C68.3478411,91.5544932 68.7465808,92.5414521 69.4409918,93.2290959 C69.9995397,93.7824384 70.708526,94.0859178 71.4112658,94.0765479 L72.5080603,94.0671781 L72.5101425,94.0671781 C72.5783342,94.0671781 72.6444438,94.0942466 72.6933753,94.142137 C72.7423068,94.1910685 72.7704164,94.2576986 72.7704164,94.3274521 L72.7761425,106.891918 L78.9035123,106.891918 L78.8998685,94.2795616 C78.8998685,94.136411 79.0154301,94.0203288 79.1585808,94.0192877 L80.2553753,94.0135616 C81.9169644,94.0052329 83.3208822,92.3389589 83.3203616,90.3759726 L83.3182795,78.9853425 C80.9138685,79.0030411 79.5921973,79.0176164 77.1862247,79.0524932" id="Fill-44" fill="#FFFFFF"></path>
            <path d="M22.196737,100.325778 C22.1238603,100.311723 22.0593123,100.300271 22.0093397,100.25134 C21.9593671,100.202929 21.9312575,100.135778 21.9312575,100.065504 L21.9302164,97.7287644 C21.9302164,97.5876959 22.0426548,97.4726548 22.1832027,97.4684904 C24.3944904,97.4086274 25.5001342,97.3799973 27.7119425,97.3248192 C29.3797781,97.2831753 30.7878603,95.7043534 30.7868192,93.8767096 L30.7805726,84.228874 C30.7800521,83.3033397 30.410463,82.4277781 29.7670658,81.8275863 C29.1981068,81.2955863 28.4709014,81.0327096 27.7270384,81.0832027 C22.9265452,81.4116685 20.536189,81.5912575 15.7898329,81.9801068 L15.7898329,88.4078329 C19.1499699,88.2079425 20.9198329,88.1090384 24.3695041,87.9284082 C24.4382164,87.9258055 24.5105726,87.9502712 24.5621068,87.9992027 C24.6141616,88.0481342 24.6433123,88.116326 24.6433123,88.1881616 L24.6443534,90.5394767 C24.6443534,90.678463 24.5350384,90.7935041 24.3960521,90.7992301 C22.1858055,90.9012575 21.0812027,90.9538329 18.8714767,91.064189 C17.2010384,91.1474767 15.7898329,92.6966274 15.7898329,94.446189 L15.7898329,106.89197 L30.7951479,106.89197 L30.7909836,100.162326 C27.4214767,100.221668 25.6505726,100.254984 22.196737,100.325778" id="Fill-46" fill="#FFFFFF"></path>
            <path d="M118.358548,86.9903288 L120.027945,87.0252055 L120.02326,94.1702466 L118.354384,94.1489041 L118.358548,86.9903288 Z M118.090986,94.6658082 L120.27989,94.6944384 L120.283534,94.6944384 C120.351726,94.6944384 120.417315,94.6673699 120.466247,94.6194795 C120.515699,94.5705479 120.543808,94.5039178 120.543808,94.4341644 L120.548493,86.7706575 C120.548493,86.629589 120.435534,86.5135068 120.293945,86.5103836 L118.104,86.4640548 C118.036849,86.4562466 117.966575,86.4890411 117.916603,86.5384932 C117.86663,86.5874247 117.838,86.6540548 117.838,86.7243288 L117.833836,94.4055342 C117.833836,94.5481644 117.948356,94.6642466 118.090986,94.6658082 Z" id="Fill-48" fill="#C0262A"></path>
            <path d="M45.9899425,87.5428904 L46.000874,99.4093014 L43.9129562,99.4379315 L43.9020247,87.6116027 L45.9899425,87.5428904 Z M43.4704904,99.8871644 C43.5189014,99.9350548 43.5844904,99.9616027 43.6532027,99.9616027 L43.6568466,99.9616027 L46.2653123,99.9262055 C46.4074219,99.9241233 46.5219425,99.8080411 46.5219425,99.6659315 L46.5104904,87.2737671 C46.5104904,87.2034932 46.4813397,87.1358219 46.4308466,87.0868904 C46.3803534,87.0374384 46.3111205,87.0062055 46.2413671,87.0134932 L43.6329014,87.0993836 C43.4923534,87.104589 43.3809562,87.2331644 43.3809562,87.3737123 L43.3929288,99.7013288 C43.3929288,99.7710822 43.4205178,99.8382329 43.4704904,99.8871644 Z" id="Fill-50" fill="#C0262A"></path>
            <path d="M173.529811,106.951625 C173.529811,108.110364 172.508496,110.179542 170.472633,110.179542 L158.438085,110.179542 L155.563099,107.41283 L167.029729,107.41283 C168.964605,107.41283 170.599647,105.703871 170.599647,103.680501 L170.599647,94.4465014 C170.599647,94.0456795 170.533016,93.6547479 170.415373,93.2835973 L172.379921,95.1086384 C172.391373,95.1190493 173.529811,96.1705562 173.529811,97.6738986 L173.529811,106.951625 Z M155.18414,100.162118 C158.529701,100.22146 160.288112,100.255816 163.717482,100.32557 C163.790359,100.3162 163.854907,100.300584 163.904879,100.251652 C163.954852,100.202721 163.983482,100.13557 163.983482,100.065296 L163.984523,97.7285562 C163.984523,97.5880082 163.872085,97.4724466 163.731016,97.4682822 C161.534825,97.4084192 160.436989,97.379789 158.240277,97.3251315 C156.584934,97.2834877 155.186742,95.7046658 155.188304,93.8770219 L155.19403,84.2291863 C155.194551,83.2989671 155.56466,82.4202822 156.209099,81.8195699 C156.772332,81.2938164 157.485482,81.0325014 158.225181,81.0835151 C162.66129,81.3895973 164.863729,81.554611 169.200414,81.908063 L169.199893,88.3555699 C166.215592,88.1791041 164.633126,88.090611 161.559811,87.9282 C161.488496,87.9229945 161.418742,87.9495425 161.367208,87.9989945 C161.315674,88.0484466 161.286003,88.1161178 161.286003,88.1879534 L161.284962,90.539789 C161.284962,90.6782548 161.394277,90.7932959 161.533263,90.7995425 C163.727893,90.9010493 164.825729,90.9541452 167.020359,91.0639808 C168.678304,91.147789 170.079099,92.6964192 170.079099,94.4465014 L170.079099,103.680501 C170.079099,105.421734 168.682468,106.892282 167.029729,106.892282 L155.179975,106.892282 L155.18414,100.162118 Z M157.665071,97.775926 C157.848825,97.813926 158.036222,97.8409945 158.227263,97.8456795 C160.337044,97.8982548 161.433318,97.9263644 163.463975,97.982063 L163.462934,99.7998164 C162.005921,99.7701452 160.850304,99.7467205 159.725921,99.7253781 L157.665071,97.775926 Z M169.444551,88.8917342 C169.520551,88.9052685 169.58666,88.8709123 169.638715,88.8214603 C169.69077,88.7720082 169.720441,88.7032959 169.720441,88.6319808 L169.720441,82.2615151 L172.649044,84.9496247 L172.649044,91.5558986 L169.087975,91.3492411 C168.505482,90.881789 167.799619,90.5829945 167.045866,90.544474 C164.935044,90.4382822 163.83929,90.3857068 161.80551,90.2909671 L161.806551,88.4622822 C164.791893,88.6205288 166.372797,88.7095425 169.444551,88.8917342 Z M172.731811,94.7249945 L169.697016,91.9062274 L172.894222,92.0915425 C172.961373,92.0988301 173.03529,92.0702 173.087866,92.0207479 C173.139921,91.972337 173.169592,91.9036247 173.169592,91.831789 L173.169592,84.8356247 C173.169592,84.7627479 173.1394,84.6929945 173.085263,84.644063 L169.65329,81.4937068 C169.651208,81.4916247 169.648605,81.490063 169.646523,81.4874603 L169.634551,81.4765288 C169.632468,81.4749671 169.629345,81.4754877 169.627784,81.473926 C169.587181,81.4385288 169.538249,81.4130219 169.48151,81.4088575 L169.478907,81.4088575 L169.477866,81.408337 L169.436222,81.4052137 C164.968879,81.0408301 162.764879,80.8742548 158.261099,80.5640082 L158.260578,80.5640082 L158.260058,80.5640082 C157.377729,80.5051863 156.52403,80.8138712 155.853564,81.4385288 C155.107619,82.1345014 154.678688,83.145926 154.674003,84.2151315 C154.674003,84.220337 154.6714,84.2245014 154.6714,84.2291863 L154.665674,93.8770219 C154.665674,93.8811863 154.667756,93.8848301 154.668277,93.8889945 C154.670879,95.0602274 155.179975,96.1414055 155.963921,96.8769397 C155.969126,96.8826658 155.971729,96.8909945 155.977455,96.8962 L158.952907,99.7108027 C157.754085,99.6878986 156.521948,99.6655151 154.928551,99.6368849 L154.926468,99.6368849 C154.924386,99.6368849 154.921784,99.6384466 154.919701,99.6384466 C154.856195,99.6337616 154.80466,99.659789 154.760414,99.6983096 C154.753647,99.7035151 154.745318,99.7061178 154.739592,99.7118438 C154.689619,99.7607753 154.66151,99.8268849 154.66151,99.8971589 L154.656825,107.152556 C154.656825,107.22283 154.685455,107.290501 154.736468,107.339953 L158.152304,110.627734 C158.201236,110.674063 158.265784,110.70009 158.332934,110.70009 L170.472633,110.70009 C172.689126,110.70009 174.050359,108.516912 174.050359,106.951625 L174.050359,97.6738986 C174.050359,95.9342274 172.782825,94.7708027 172.731811,94.7249945 Z" id="Fill-52" fill="#C0262A"></path>
            <path d="M52.3216795,110.153671 L43.6175973,110.172411 L43.6118712,110.172411 C42.8289671,110.172411 42.0809397,109.816356 41.5062548,109.167753 C41.5036521,109.165671 41.5015699,109.163589 41.4994877,109.160986 L39.7332685,107.310959 C39.9758438,107.370822 40.2241452,107.405699 40.4750493,107.405699 L40.4812959,107.405699 L49.1645562,107.386959 C51.0749671,107.382274 52.6876247,105.530685 52.686063,103.343342 L52.6704466,83.2606027 C52.6704466,82.8556164 52.6116247,82.4589589 52.5059534,82.0815616 C52.7204192,82.2965479 52.9380082,82.5136164 53.142063,82.7176712 C53.7162274,83.2913151 54.1847205,83.7592877 54.1930493,83.7670959 C54.9062,84.4172603 55.3153507,85.3901644 55.3163918,86.4354247 L55.3320082,106.613425 C55.3335699,108.529041 53.9546384,110.150027 52.3216795,110.153671 Z M38.5089397,106.028329 C38.4490767,105.968466 38.3938986,105.903918 38.3382,105.83989 C38.3028027,105.798767 38.267926,105.757123 38.234611,105.713918 C38.1992137,105.66863 38.1658986,105.622301 38.1331041,105.575452 C38.1003096,105.528603 38.0680356,105.482274 38.0373233,105.434384 C38.0081726,105.388575 37.9816247,105.340685 37.9540356,105.293315 C37.9248849,105.241781 37.8957342,105.190767 37.8686658,105.137151 C37.8442,105.08926 37.822337,105.039288 37.7999534,104.989315 C37.7760082,104.936219 37.7515425,104.883123 37.7302,104.828986 C37.7078164,104.771205 37.6885562,104.712904 37.6687753,104.654082 C37.6526384,104.606712 37.6354603,104.559342 37.6214055,104.510932 C37.5974603,104.428685 37.5776795,104.345397 37.5594603,104.261068 C37.5537342,104.235562 37.5469671,104.211096 37.5417616,104.185589 C37.4969945,103.956548 37.4735699,103.721781 37.4735699,103.484411 L37.4595151,83.9779178 C37.4579534,82.1200822 38.8394877,80.467863 40.4760904,80.3705205 C43.9418986,80.1654247 45.6456521,80.0727671 49.1551863,79.8994247 C49.2827205,79.8942192 49.4076521,79.9093151 49.5336247,79.9233699 C49.5898438,79.9290959 49.6476247,79.9296164 49.7038438,79.9400274 C49.8147205,79.9603288 49.9229945,79.9952055 50.0307479,80.0306027 C50.0854055,80.0483014 50.1416247,80.0592329 50.1947205,80.0805753 C50.280611,80.114411 50.3612959,80.163863 50.444063,80.207589 C50.6585288,80.321589 50.8662274,80.4569315 51.0531041,80.6318356 C51.0598712,80.6386027 51.1098438,80.6885753 51.1769945,80.7546849 C51.7943644,81.3975616 52.1493781,82.3001918 52.1498986,83.2606027 L52.1655151,103.343342 C52.1670767,105.249068 50.7923096,106.862767 49.1635151,106.866411 L40.4802548,106.885151 C39.7634603,106.88411 39.0643644,106.582712 38.5094603,106.028849 L38.5089397,106.028329 Z M40.8232959,73.0042466 C40.8232959,72.9225205 40.8264192,72.8413151 40.8326658,72.7606301 C40.8914877,71.9605479 41.2548301,71.168274 41.8550219,70.5306027 C41.964337,70.4134795 42.0949945,70.2849041 42.2386658,70.1427945 C42.8794603,69.5108493 43.7565836,68.6451781 44.3515699,67.3802466 C44.749789,66.5343562 45.0725288,65.1668767 45.1532137,64.040411 C47.794474,65.4563014 49.4805288,68.2485205 49.4805288,71.2614521 C49.4805288,72.0433151 49.363926,72.8303836 49.1348849,73.5997534 L49.1338438,73.6028767 L49.0552411,73.8746027 C48.424337,75.7105753 46.7981452,76.8969041 44.9116795,76.8969041 C42.6577068,76.8969041 40.8232959,75.1509863 40.8232959,73.0042466 Z M54.5506658,83.3891781 C54.5334877,83.372 54.0728027,82.9118356 53.5100904,82.3496438 C52.2066384,81.0472329 51.7152411,80.5568767 51.5288849,80.37 C51.4976521,80.3387671 51.470063,80.304411 51.4383096,80.2742192 C50.7886658,79.6568493 49.9677616,79.3372329 49.1296795,79.3799178 L49.1275973,79.3799178 C47.5607479,79.4569589 46.3541178,79.517863 45.1891315,79.5808493 L45.1891315,77.4070411 C47.181789,77.2961644 48.874611,76.0026027 49.5508027,74.0318082 L49.6335699,73.7481096 C49.8771863,72.9303288 50.0010767,72.0938082 50.0010767,71.2614521 C50.0010767,67.916411 48.0474603,64.828 45.0241178,63.3923288 C44.944474,63.3543288 44.8497342,63.3584932 44.7747753,63.405863 C44.6998164,63.4527123 44.6529671,63.5333973 44.6514055,63.6218904 C44.6326658,64.7447123 44.3015973,66.2647123 43.8809945,67.1584932 C43.3255699,68.3396164 42.485926,69.1678082 41.8732411,69.7721644 C41.7243644,69.9194795 41.5890219,70.0527397 41.4755425,70.1735068 C40.7936247,70.8986301 40.3813507,71.803863 40.3131589,72.7226301 C40.3063918,72.8158082 40.3027479,72.9100274 40.3027479,73.0042466 C40.3027479,75.3592055 42.2407479,77.2836712 44.6685836,77.406 L44.6685836,79.6084384 C43.4036521,79.6776712 42.132474,79.7510685 40.4427753,79.8510137 C38.5406932,79.9639726 36.9353233,81.8540822 36.9368849,83.9779178 L36.9509397,103.484411 C36.9514603,104.038274 37.0612959,104.574438 37.2648301,105.070521 L37.2648301,105.071041 C37.3127205,105.188164 37.366337,105.303205 37.4251589,105.414603 C37.436611,105.436986 37.4496247,105.458329 37.4615973,105.480712 C37.5089671,105.567644 37.5589397,105.653014 37.6125562,105.736822 C37.6385836,105.776904 37.6661726,105.815425 37.6932411,105.854466 C37.7369671,105.917973 37.7822548,105.980438 37.8301452,106.041863 C37.8665836,106.088192 37.9051041,106.133479 37.9441452,106.178247 C37.9696521,106.208438 37.9930767,106.240192 38.0196247,106.269863 L41.1194877,109.517041 C41.7946384,110.275479 42.6795699,110.692959 43.6118712,110.692959 L43.6186384,110.692959 L52.3227205,110.674219 C54.2378164,110.669534 55.8541178,108.810137 55.8525562,106.613425 L55.8369397,86.4354247 C55.8358986,85.2433699 55.3648027,84.1309589 54.5506658,83.3891781 Z" id="Fill-54" fill="#C0262A"></path>
            <path d="M83.4884466,97.2406466 L82.3890493,97.2463726 C82.2458986,97.2474137 82.130337,97.3629753 82.130337,97.5066466 L82.1339808,110.179386 L75.8218164,110.179386 C75.5573781,109.883195 74.8775425,109.188784 73.1337068,107.412674 L79.1637342,107.412674 C79.2329671,107.412674 79.2990767,107.385085 79.3474877,107.336674 C79.3964192,107.287742 79.4240082,107.221633 79.4240082,107.1524 L79.4203644,94.5384822 L80.2574055,94.5343178 C82.2000904,94.5244274 83.8413781,92.620263 83.8408575,90.3756603 L83.8387753,79.3218247 C84.5982548,80.1099342 85.979789,81.4461808 86.5596795,81.9438247 L86.5617616,93.5848384 C86.5622822,95.5582356 85.1547205,97.2317973 83.4884466,97.2406466 Z M72.7703644,94.3271397 C72.7703644,94.2579068 72.7422548,94.1912767 72.6933233,94.1423452 C72.6443918,94.0939342 72.5788027,94.0668658 72.5100904,94.0668658 L72.5080082,94.0668658 L71.4112137,94.0767562 C70.7131589,94.0856055 70.0104192,93.7852493 69.4539534,93.2397151 C69.427926,93.2152493 69.4045014,93.1876603 69.3795151,93.1616329 C69.3191315,93.0986466 69.2587479,93.0351397 69.2030493,92.9674685 C69.1879534,92.9492493 69.1744192,92.9294685 69.1598438,92.9107288 C69.0968575,92.8305644 69.0349123,92.7488384 68.9781726,92.6634685 C68.9755699,92.6587836 68.9729671,92.6540986 68.9703644,92.6499342 C68.5695425,92.0356877 68.3472685,91.2913041 68.3472685,90.5203726 L68.3410219,79.2224 C68.6179534,79.2156329 68.8771863,79.2093863 69.128611,79.2036603 C69.1525562,79.2031397 69.1801452,79.2026192 69.2040904,79.2020986 C69.2275151,79.2010575 69.248337,79.2010575 69.2712411,79.2000164 C69.7865836,79.1880438 70.2582,79.1771123 70.7131589,79.1672219 C71.8953233,79.1411945 72.9733781,79.1214137 74.4720356,79.0959068 L74.4762,89.1216603 C74.4762,89.1914137 74.5043096,89.2580438 74.5532411,89.3069753 C74.6032137,89.3559068 74.6760904,89.3824548 74.7390767,89.3819342 L76.9321452,89.3600712 C77.0747753,89.3585096 77.1898164,89.2429479 77.1898164,89.0997973 L77.1861726,79.0527014 C77.2517616,79.0516603 77.3085014,79.0511397 77.3725288,79.0500986 C78.7972685,79.0297973 79.8529397,79.0157425 81.0069945,79.004811 C81.7034877,78.9980438 82.4374603,78.9917973 83.3182274,78.9855507 L83.3203096,90.3756603 C83.3208301,92.3391671 81.9169123,94.0049205 80.2553233,94.0137699 L79.1585288,94.0194959 C79.0153781,94.0200164 78.8998164,94.1360986 78.8998164,94.2797699 L78.9034603,106.892126 L72.7760904,106.892126 L72.7703644,94.3271397 Z M71.5319808,95.3297151 C71.2706658,95.0668384 70.9937342,94.7888658 70.7292959,94.5233863 C70.9453233,94.5712767 71.1655151,94.5973041 71.3872685,94.5973041 L71.4164192,94.5973041 L72.2498164,94.5900164 L72.250337,96.0511945 L71.5319808,95.3297151 Z M76.6666658,81.1000164 L76.6692685,88.842126 L74.9967479,88.8587836 L74.9925836,79.4759068 C75.3127205,79.8038521 75.8296247,80.3098247 76.6666658,81.1000164 Z M86.9860082,81.6767836 C86.8194329,81.524263 83.9262274,78.7107014 83.7721452,78.5519342 C83.7705836,78.5503726 83.7690219,78.5482904 83.7674603,78.5467288 C83.7648575,78.544126 83.764337,78.5410027 83.7617342,78.5384 C83.7367479,78.5134137 83.7117616,78.4977973 83.6820904,78.4868658 C83.6498164,78.4722904 83.6159808,78.4644822 83.580063,78.4639616 C83.5790219,78.4634411 83.5779808,78.4634411 83.5769397,78.4629205 L83.5764192,78.4629205 L83.5748575,78.4629205 C80.9127753,78.4821808 79.5817342,78.4967562 76.9201726,78.5352767 C76.7775425,78.5373589 76.6635425,78.6534411 76.6635425,78.7955507 L76.664063,80.3712493 C76.0576247,79.7778247 75.0206932,78.7591123 74.9280356,78.6622904 C74.9254329,78.6591671 74.9228301,78.6565644 74.9202274,78.6534411 C74.9181452,78.6513589 74.9171041,78.6477151 74.9145014,78.6451123 C74.9072137,78.6383452 74.8968027,78.6357425 74.888474,78.6294959 C74.8416247,78.5935781 74.7828027,78.5696329 74.7349123,78.5722356 C74.7328301,78.5722356 74.7297068,78.5711945 74.7276247,78.570674 L74.726063,78.570674 C72.0639808,78.6159616 70.7334603,78.6430301 68.0718986,78.7075781 C67.9303096,78.7112219 67.8178712,78.8267836 67.8178712,78.9678521 L67.8241178,90.5203726 C67.8246384,91.5375233 68.1671589,92.506263 68.7678712,93.254811 C68.7788027,93.2683452 68.7886932,93.2829205 68.7996247,93.2969753 C68.8646932,93.3755781 68.9349671,93.4500164 69.0052411,93.5228932 C69.0291863,93.5478795 69.0505288,93.5754685 69.0749945,93.5994137 C69.0817616,93.6067014 69.0895699,93.6124274 69.0968575,93.6197151 C69.1088301,93.6311671 69.1192411,93.6447014 69.1317342,93.6561534 L72.2487753,96.7872493 L72.2534603,107.1524 C72.2534603,107.220592 72.2800082,107.286181 72.3278986,107.335112 C73.5579534,108.587551 75.4126658,110.479222 75.5308301,110.607277 C75.5787205,110.664016 75.6505562,110.699934 75.7307205,110.699934 L82.3942548,110.699934 C82.4634877,110.699934 82.5295973,110.672866 82.5780082,110.623934 C82.6269397,110.575003 82.6545288,110.508893 82.6545288,110.43966 L82.6508849,97.7653589 L83.4910493,97.7611945 C85.4384192,97.7513041 87.0828301,95.838811 87.0823096,93.5848384 L87.0802274,81.876674 C87.0802274,81.795989 87.043789,81.7241534 86.9860082,81.6767836 Z" id="Fill-56" fill="#C0262A"></path>
            <path d="M108.280844,88.8600329 C104.748405,88.8298411 99.1457479,88.7954849 96.6715836,88.7871562 L96.6721041,86.7450466 C100.033803,86.7580603 101.799501,86.7715945 105.244488,86.8095945 C105.315803,86.8033479 105.380871,86.7835671 105.430323,86.7341151 C105.479775,86.6851836 105.507885,86.6185534 105.507885,86.5493205 L105.510488,79.4282247 C106.24446,80.1507452 107.682734,81.5525808 108.283447,82.0424164 L108.280844,88.8600329 Z M104.988899,91.3888548 L104.986296,99.1444986 C101.711008,99.1309644 99.9463507,99.1262795 96.6705425,99.121074 L96.671063,97.0789644 C99.1426247,97.0841699 100.462214,97.0883342 103.016542,97.0997863 C103.09046,97.090937 103.152405,97.0727178 103.201337,97.0243068 C103.250268,96.9753753 103.278378,96.9087452 103.278378,96.8395123 L103.28046,89.7090466 C103.468899,89.8959233 104.821803,91.2358137 104.988899,91.3888548 Z M105.500077,107.152608 L105.502679,100.078882 C107.282433,101.810225 107.979447,102.486937 108.276159,102.749293 L108.273556,110.179595 L93.1146795,110.179595 C92.8471178,109.883403 92.1589534,109.189512 90.3922137,107.412882 L105.239803,107.412882 C105.383474,107.412882 105.500077,107.296279 105.500077,107.152608 Z M90.0273096,78.9612932 C94.9928164,78.9498411 100.024953,78.9805534 104.98994,79.0596767 L104.987337,86.2859233 C101.625118,86.2494849 99.8594192,86.2364712 96.4128712,86.2234575 L96.4123507,86.2234575 C96.3431178,86.2234575 96.2770082,86.250526 96.2280767,86.298937 C96.1791452,86.3478685 96.1515562,86.4144986 96.1515562,86.4837315 L96.1510356,89.046389 C96.1510356,89.1900603 96.2671178,89.3061425 96.410789,89.306663 C98.9661589,89.3149918 100.286268,89.3228 102.759912,89.3425808 L102.75783,96.5781973 C100.285748,96.5667452 98.9656384,96.5631014 96.4113096,96.5578959 L96.410789,96.5578959 C96.3415562,96.5578959 96.2759671,96.5854849 96.2270356,96.6344164 C96.1781041,96.6828274 96.1505151,96.748937 96.1505151,96.8181699 L96.1499945,99.3808274 C96.1499945,99.5239781 96.2660767,99.6411014 96.4097479,99.6411014 C99.8547342,99.6463068 101.620433,99.6509918 104.982652,99.6650466 L104.979529,106.892334 L90.0288712,106.892334 L90.0273096,78.9612932 Z M108.708734,81.755074 C108.540597,81.603074 105.547967,78.7301699 105.439173,78.6250192 C105.414186,78.5984712 105.383995,78.5771288 105.349638,78.563074 C105.34183,78.5599507 105.332981,78.5604712 105.325173,78.5578685 C105.302268,78.5505808 105.279364,78.5427726 105.254378,78.5422521 C100.11657,78.4600055 94.9058849,78.4251288 89.7665151,78.4412658 L89.7639123,78.4412658 C89.6207616,78.4417863 89.5046795,78.558389 89.5046795,78.7015397 L89.5062411,107.152608 C89.5062411,107.2208 89.5333096,107.28691 89.5817205,107.335841 C90.8289534,108.589841 92.7081315,110.482553 92.8268164,110.608526 C92.8741863,110.664745 92.9455014,110.700142 93.0246247,110.700142 L108.53383,110.700142 C108.677501,110.700142 108.794104,110.58354 108.794104,110.439868 L108.796707,102.656636 C108.796707,102.587403 108.769118,102.521293 108.720707,102.472362 C108.714981,102.467156 108.708734,102.46143 108.703008,102.456225 C108.578077,102.341704 106.759803,100.575485 105.506844,99.3568822 L105.509447,91.2878685 C105.509447,91.2186356 105.482378,91.152526 105.433447,91.1041151 C105.427721,91.098389 105.421995,91.092663 105.415748,91.0874575 C105.344433,91.0213479 103.813501,89.5039507 103.652132,89.3457041 C104.841063,89.3524712 107.399556,89.3727726 108.539036,89.382663 C108.60983,89.3800603 108.674899,89.3561151 108.724351,89.3071836 C108.773803,89.2587726 108.801392,89.1921425 108.801392,89.122389 L108.803995,81.9560055 C108.803995,81.8867726 108.776926,81.8211836 108.727995,81.7722521 C108.721748,81.7660055 108.715501,81.7602795 108.708734,81.755074 Z" id="Fill-58" fill="#C0262A"></path>
            <path d="M129.998989,110.179595 L123.698797,110.179595 C123.468715,109.930252 122.919016,109.390444 121.609838,108.106252 C121.560386,108.0568 121.503647,108.031814 121.421921,108.031293 C121.162688,108.031293 121.152797,108.04691 121.150715,110.179595 L114.844797,110.179595 C114.573592,109.883923 113.875016,109.191074 112.079126,107.412882 L118.086249,107.412882 C118.229921,107.412882 118.346523,107.296279 118.346523,107.152608 L118.349126,102.307348 L120.018003,102.315677 L120.014879,107.152608 C120.014879,107.2208 120.042468,107.28743 120.090879,107.336362 C120.139811,107.385293 120.205921,107.412882 120.275153,107.412882 L126.91266,107.412882 C127.056332,107.412882 127.172934,107.296279 127.172934,107.152608 L127.191153,83.1324438 C127.191153,82.6332384 127.103701,82.1506904 126.951701,81.6993753 C127.851729,82.5494301 128.848578,83.4911014 128.848578,83.4911014 C129.5914,84.2120603 130.017729,85.2385808 130.016688,86.3067452 L129.998989,110.179595 Z M111.719948,82.7467178 C111.720468,81.7040603 112.121811,80.7150192 112.820386,80.0331014 C113.376332,79.4901699 114.079071,79.1991836 114.775564,79.2179233 C118.343921,79.3043342 120.076304,79.3537863 123.602496,79.4735123 C123.764907,79.4787178 123.926797,79.5031836 124.087647,79.540663 C124.103784,79.5437863 124.120962,79.5469096 124.137619,79.551074 C124.29951,79.5916767 124.459318,79.6468548 124.615482,79.7176493 L124.627455,79.7238959 C124.952797,79.8743342 125.260962,80.0893205 125.537893,80.3636493 C125.538414,80.3646904 125.556633,80.3818685 125.585784,80.4094575 C126.245318,81.0892932 126.671126,82.0720877 126.670605,83.1324438 L126.652907,106.892334 L120.535427,106.892334 L120.538551,102.056964 C120.538551,101.913293 120.422989,101.79669 120.279838,101.79669 L118.090414,101.785238 L118.089373,101.785238 C118.02014,101.785238 117.954551,101.812827 117.905619,101.861238 C117.856688,101.909649 117.829099,101.976279 117.829099,102.045512 L117.825975,106.892334 L111.708496,106.892334 L111.719948,82.7467178 Z M125.900715,79.990937 C125.896551,79.9867726 125.892386,79.9836493 125.888742,79.9794849 C125.861674,79.9539781 125.833564,79.9305534 125.805975,79.9050466 C125.746633,79.8488274 125.686249,79.7936493 125.624304,79.7426356 C125.589948,79.714526 125.55403,79.6890192 125.519153,79.6624712 C125.461893,79.6187452 125.404633,79.5750192 125.345811,79.5354575 C125.304167,79.5068274 125.261482,79.4813205 125.218797,79.4552932 C125.16466,79.4214575 125.110523,79.3891836 125.055345,79.3584712 C125.007975,79.3324438 124.959564,79.3079781 124.910633,79.2840329 C124.858578,79.2590466 124.805482,79.2345808 124.752386,79.2116767 C124.700852,79.1898137 124.649318,79.1689918 124.597263,79.1497315 C124.543126,79.1299507 124.488468,79.1117315 124.433811,79.095074 C124.381756,79.078937 124.330222,79.0633205 124.278167,79.0492658 C124.215701,79.0336493 124.153236,79.0216767 124.089729,79.0097041 C124.044441,79.0008548 123.999153,78.9904438 123.953345,78.9836767 C123.850797,78.9691014 123.630605,78.9534849 123.622277,78.9529644 C120.094523,78.8337589 118.361099,78.7837863 114.789099,78.6973753 L114.788058,78.6973753 L114.786496,78.6973753 C113.941126,78.6781151 113.111893,79.019074 112.454441,79.660389 C111.655921,80.4396493 111.197838,81.5645534 111.197318,82.7467178 L111.185866,107.152608 C111.185866,107.221841 111.213455,107.288471 111.262907,107.337403 C112.529921,108.591403 114.440332,110.484636 114.560058,110.610088 C114.607948,110.665266 114.678222,110.700142 114.756825,110.700142 L121.410468,110.700142 C121.55414,110.700142 121.670742,110.58354 121.670742,110.439868 C121.671263,109.96617 121.676468,109.354005 121.681153,108.905293 C122.444277,109.655403 123.320359,110.51743 123.406249,110.608005 C123.45414,110.664745 123.525455,110.700142 123.605099,110.700142 L130.259263,110.700142 C130.402414,110.700142 130.519537,110.58354 130.519537,110.439868 L130.537236,86.3067452 C130.538277,85.0985534 130.054688,83.9366904 129.208277,83.1152658 C129.208277,83.1152658 125.925701,80.0143616 125.900715,79.990937 Z" id="Fill-60" fill="#C0262A"></path>
            <path d="M140.026356,87.5627233 L141.694712,87.6246685 L141.691589,92.0514082 L140.023233,92.0045589 L140.026356,87.5627233 Z M139.755151,92.5183397 L141.944055,92.5792438 L141.951342,92.5792438 C142.019014,92.5792438 142.084082,92.5526959 142.132493,92.505326 C142.183507,92.4563945 142.211616,92.3892438 142.211616,92.3189699 L142.215781,87.3742849 C142.215781,87.2342575 142.104904,87.1192164 141.965397,87.114011 L139.775973,87.0322849 C139.70726,87.0338466 139.636466,87.0562301 139.585973,87.1051616 C139.534959,87.1546137 139.505808,87.2222849 139.505808,87.2925589 L139.502164,92.2580658 C139.502164,92.3986137 139.614082,92.5141753 139.755151,92.5183397 Z" id="Fill-62" fill="#C0262A"></path>
            <path d="M151.726504,95.7405315 C151.726504,97.5900384 149.705737,98.8466411 149.685436,98.8591342 C149.621408,98.8981753 149.577162,98.9632438 149.564668,99.0371616 C149.551655,99.1116 149.571436,99.1870795 149.618805,99.2453808 L150.54434,100.385901 C150.556312,100.400477 151.721299,101.855408 151.721299,103.070888 C151.721299,104.768915 151.716614,109.07697 151.715573,110.17949 L145.417984,110.17949 L143.298312,108.368504 C143.221271,108.301874 143.112997,108.287299 143.02034,108.329984 C142.928203,108.372148 142.86886,108.464285 142.86886,108.566312 L142.867299,110.17949 L136.579079,110.17949 L133.74834,107.412778 L139.750258,107.412778 C139.893929,107.412778 140.010532,107.296175 140.010532,107.152504 L140.016258,99.9491616 L141.685134,99.9725863 L141.679408,107.152504 C141.679408,107.221216 141.706477,107.287847 141.755408,107.336258 C141.80434,107.385189 141.870449,107.412778 141.939682,107.412778 L148.57771,107.412778 C148.721381,107.412778 148.837984,107.296175 148.837984,107.152504 L148.843189,99.817463 C148.84423,98.1897096 147.867682,96.7347781 146.529874,96.1377096 C146.940066,95.9711342 147.32423,95.7202301 147.661025,95.3907233 C148.415299,94.6546685 148.847874,93.6088877 148.848915,92.5219836 L148.854641,83.9777096 C148.855162,83.4967233 148.76771,83.0282301 148.61571,82.5888877 C149.111792,83.0521753 149.730723,83.6320658 150.476668,84.3337644 L150.566723,84.4180932 C151.118504,84.9386411 151.732751,86.1905589 151.732751,87.1561753 L151.726504,95.7405315 Z M133.394367,79.791463 L145.264422,80.3776 C146.20297,80.4244493 146.961929,81.0782575 147.211792,81.2927233 C147.218038,81.2989699 147.232614,81.311463 147.240942,81.3187507 C147.905162,81.9907781 148.335134,82.9517096 148.334093,83.9777096 L148.328367,92.5219836 C148.327326,93.4699014 147.952011,94.3798192 147.297162,95.0185315 C146.730285,95.571874 146.008285,95.8592164 145.273271,95.8503671 C145.121792,95.8529699 145.010395,95.9607233 145.006751,96.1043945 L145.006751,96.1085589 C145.006751,96.251189 145.11971,96.3672712 145.261299,96.3709151 C146.921847,96.4089151 148.324203,97.9872164 148.322641,99.817463 L148.317436,106.89223 L142.199956,106.89223 L142.205682,99.7159562 C142.205682,99.573326 142.091682,99.4577644 141.949573,99.4556822 L139.760148,99.4249699 C139.693518,99.4228877 139.623764,99.4509973 139.573792,99.4999288 C139.52434,99.5488603 139.49623,99.6154904 139.49623,99.6852438 L139.490504,106.89223 L133.373025,106.89223 L133.394367,79.791463 Z M150.833244,83.9542849 C148.896285,82.1334082 147.791682,81.105326 147.551189,80.8981479 C147.550148,80.8976274 147.548586,80.8960658 147.547545,80.8950247 C147.030641,80.393737 146.394532,80.0418466 145.705847,79.9117096 C145.701682,79.9106685 145.696997,79.9091068 145.692833,79.9085863 C145.561655,79.8841205 145.428915,79.8659014 145.294093,79.8580932 C140.413436,79.5837644 138.028805,79.4661205 133.145545,79.2579014 C133.142942,79.2584219 133.14086,79.2589425 133.138258,79.259463 C133.069545,79.2511342 133.002395,79.2818466 132.952422,79.329737 C132.900888,79.3786685 132.871737,79.4463397 132.871737,79.5181753 L132.849874,107.152504 C132.849874,107.222778 132.878504,107.289929 132.928477,107.33834 L136.291216,110.626121 C136.340148,110.67349 136.405216,110.700038 136.473408,110.700038 L143.127573,110.700038 C143.271244,110.700038 143.387326,110.583956 143.387847,110.439764 L143.388888,109.130586 L145.153025,110.637573 C145.199874,110.677655 145.259737,110.700038 145.321682,110.700038 L151.975847,110.700038 C152.119518,110.700038 152.236121,110.583956 152.236121,110.440285 C152.236121,110.440285 152.241847,105.025545 152.241847,103.070888 C152.241847,101.670093 151.001901,100.123545 150.948805,100.057956 L150.201819,99.1376274 C150.795764,98.7092164 152.247052,97.483326 152.247052,95.7405315 L152.253299,87.1561753 C152.253299,86.0416822 151.566175,84.6455726 150.923819,84.0391342 L150.833244,83.9542849 Z" id="Fill-64" fill="#C0262A"></path>
            <path d="M18.7033918,110.179595 C18.4483233,109.882882 17.7965973,109.18691 16.1292822,107.412882 L31.055474,107.412882 C31.1247068,107.412882 31.1908164,107.385293 31.2397479,107.336362 C31.2886795,107.28743 31.3157479,107.221321 31.3157479,107.152608 L31.3115836,100.363101 C32.1340493,101.141321 33.7758575,102.60354 33.905474,102.72743 L33.9096384,110.179595 L18.7033918,110.179595 Z M15.7898849,94.4460329 C15.7898849,94.4241699 15.7924877,94.4028274 15.7930082,94.3809644 C15.795611,94.2575945 15.8055014,94.1342247 15.8221589,94.0118959 C15.8278849,93.9697315 15.833611,93.9280877 15.8408986,93.8864438 C15.8664055,93.7427726 15.8981589,93.5996219 15.9418849,93.4606356 C15.9450082,93.4507452 15.9486521,93.4413753 15.9522959,93.4314849 C16.0001863,93.2841699 16.0574466,93.1394575 16.1240767,92.9994301 C16.1277205,92.9916219 16.1308438,92.9843342 16.1344877,92.976526 C16.2063233,92.829211 16.2880493,92.6871014 16.3791452,92.5507178 L16.3843507,92.5429096 C16.5691452,92.2691014 16.7919397,92.0202795 17.0444055,91.808937 C17.0501315,91.8042521 17.055337,91.7990466 17.061063,91.7948822 C17.3166521,91.5830192 17.6024329,91.4075945 17.9121589,91.2816219 L17.9126795,91.2811014 C18.2161589,91.1582521 18.5383781,91.081211 18.8715288,91.0640329 C21.0812548,90.9536767 22.1858575,90.9011014 24.3961041,90.7995945 C24.5350904,90.7933479 24.6444055,90.6783068 24.6444055,90.5398411 L24.6433644,88.1880055 C24.6433644,88.1161699 24.6142137,88.0479781 24.5621589,87.9995671 C24.5106247,87.9501151 24.4382685,87.9256493 24.3695562,87.9282521 C20.9198849,88.1094027 19.1500219,88.2077863 15.7898849,88.4081973 L15.7898849,81.9799507 C20.5362411,81.5911014 22.9265973,81.4115123 27.7265699,81.0830466 C28.0951178,81.0585808 28.4595014,81.1111562 28.8025425,81.2350466 C28.8077479,81.2360877 28.8129534,81.2376493 28.8181589,81.2397315 C28.9748438,81.2975123 29.1258027,81.3729918 29.2720767,81.4599233 C29.2960219,81.4739781 29.3204877,81.4885534 29.3433918,81.5036493 C29.4735288,81.5858959 29.5974192,81.6821973 29.7155836,81.7878685 C29.7619123,81.8295123 29.8082411,81.8716767 29.8530082,81.9169644 C30.4412274,82.5135123 30.7801041,83.3469096 30.7806247,84.2287178 L30.7868712,93.877074 C30.7879123,95.7041973 29.3798301,97.2835397 27.7119945,97.3251836 C25.5001863,97.3798411 24.3945425,97.4084712 22.1832548,97.4683342 C22.0427068,97.4724986 21.9302685,97.5880603 21.9302685,97.7286082 L21.9313096,100.065348 C21.9313096,100.135622 21.9594192,100.202773 22.0093918,100.251704 C22.0593644,100.300115 22.1239123,100.311567 22.196789,100.325622 C25.6506247,100.255348 27.4215288,100.221512 30.7910356,100.16217 L30.7952,106.892334 L15.7898849,106.892334 L15.7898849,94.4460329 Z M16.8575288,89.6741699 C16.5259397,89.3326904 16.2906521,89.0911562 16.1121041,88.910526 C19.1958301,88.7272932 20.9516384,88.6299507 24.123337,88.4623342 L24.1238575,90.2910192 C22.0755014,90.3857589 20.9714192,90.4383342 18.8455014,90.544526 C18.5165151,90.5611836 18.1968986,90.6293753 17.891337,90.7366082 C17.7002959,90.5419233 17.2599123,90.088526 16.8575288,89.6741699 Z M19.0906795,74.2862521 C19.0906795,74.204526 19.0938027,74.1238411 19.0995288,74.0431562 C19.1588712,73.243074 19.5216932,72.4508 20.1218849,71.8131288 C20.2317205,71.6960055 20.3623781,71.5674301 20.5060493,71.4253205 C21.1468438,70.7933753 22.0239671,69.9277041 22.6189534,68.6627726 C23.0171726,67.8168822 23.3399123,66.4494027 23.4205973,65.3224164 C26.061337,66.7388274 27.7473918,69.530526 27.7473918,72.5439781 C27.7473918,73.3258411 27.6313096,74.1129096 27.4017479,74.8822795 L27.4007068,74.8854027 L27.3221041,75.1571288 C26.6917205,76.9931014 25.0650082,78.1794301 23.1785425,78.1794301 C20.9245699,78.1794301 19.0906795,76.4329918 19.0906795,74.2862521 Z M32.9617205,85.0761699 C33.5629534,85.6841699 33.8945425,86.5123616 33.895063,87.4087452 L33.9013096,96.5813205 C33.9023507,97.9581699 32.5458027,99.0180055 31.2985699,99.5333479 C31.1189808,99.6083068 30.9409534,99.6338137 30.827474,99.6411014 C27.5183507,99.6994027 25.746926,99.7332384 22.451337,99.7998685 L22.4508164,97.9815945 C24.4960493,97.9264164 25.6001315,97.8983068 27.7250082,97.8457315 C29.6682137,97.7968 31.3084603,95.9795671 31.3074192,93.877074 L31.3011726,84.2287178 C31.3011726,83.8976493 31.2548438,83.5728274 31.1757205,83.2594575 C32.0085973,84.1069096 32.939337,85.0532658 32.9617205,85.0761699 Z M34.3370082,102.434362 C34.2323781,102.331293 32.1512274,100.602033 31.5562411,99.9799781 C32.8789534,99.338663 34.4228986,98.1393205 34.4218575,96.5813205 L34.415611,87.4087452 C34.4150904,86.3744164 34.0298849,85.4160877 33.3349534,84.7138685 C33.3188164,84.697211 29.9784603,81.3245808 29.9664877,81.3146904 C29.3168438,80.7754027 28.5204055,80.5052384 27.6927342,80.5635397 L27.6890904,80.5635397 C27.4402685,80.5812384 25.6344877,80.7139781 23.4565151,80.8753479 L23.4565151,78.6895671 C25.4486521,78.5786904 27.141474,77.2851288 27.8181863,75.3143342 L27.9009534,75.0311562 C28.1445699,74.2128548 28.2679397,73.3763342 28.2679397,72.5439781 C28.2679397,69.198937 26.3148438,66.1100055 23.2915014,64.6743342 C23.2118575,64.6363342 23.1171178,64.6410192 23.0421589,64.6878685 C22.9666795,64.7347178 22.9198301,64.8159233 22.9182685,64.9044164 C22.9000493,66.0272384 22.5684603,67.5477589 22.1478575,68.4410192 C21.5924329,69.6221425 20.7533096,70.4503342 20.1406247,71.0546904 C19.9912274,71.2020055 19.8558849,71.3352658 19.7424055,71.4560329 C19.0610082,72.1811562 18.6482137,73.086389 18.5805425,74.0051562 C18.5737753,74.0988548 18.5701315,74.1920329 18.5701315,74.2862521 C18.5701315,76.6417315 20.507611,78.5667178 22.9359671,78.688526 L22.9359671,80.914389 C20.1088712,81.125211 16.8309808,81.3719507 15.5061863,81.4807452 C15.3713644,81.4921973 15.2672548,81.6041151 15.2672548,81.7399781 L15.2672548,88.6840877 C15.2672548,88.7554027 15.2964055,88.8235945 15.3479397,88.872526 C15.351063,88.8751288 15.3541863,88.8782521 15.3573096,88.8808548 C15.427063,88.948526 15.9882137,89.5263342 16.4842959,90.0369918 C16.9173918,90.4825808 17.1964055,90.7704438 17.3822411,90.9557589 C17.3619397,90.967211 17.3437205,90.9817863 17.3234192,90.9932384 C17.2099397,91.0557041 17.1001041,91.1244164 16.9939123,91.1988548 C16.9626795,91.2201973 16.930926,91.2404986 16.9007342,91.2628822 C16.7778849,91.3539781 16.6602411,91.4523616 16.5483233,91.5575123 C16.5217753,91.5824986 16.4962685,91.6090466 16.4702411,91.635074 C16.3760219,91.7287726 16.2859671,91.8266356 16.2011178,91.9291836 C16.1808164,91.9531288 16.1599945,91.9765534 16.1407342,92.0010192 C16.0402685,92.1275123 15.9470904,92.2602521 15.8617205,92.3992384 C15.8518301,92.4148548 15.8429808,92.4320329 15.833611,92.4481699 C15.757611,92.5751836 15.6894192,92.7063616 15.6279945,92.840663 C15.6160219,92.8666904 15.6040493,92.8916767 15.5925973,92.9177041 C15.5285699,93.0660603 15.4718301,93.2175397 15.4260219,93.3742247 C15.4192548,93.3960877 15.4150904,93.4189918 15.4088438,93.4413753 C15.3739671,93.568389 15.3463781,93.6974849 15.3245151,93.828663 C15.3156658,93.8801973 15.3078575,93.9317315 15.3010904,93.9843068 C15.285474,94.1092384 15.2766247,94.2357315 15.2735014,94.3627452 C15.2729808,94.3908548 15.2672548,107.152608 15.2672548,107.152608 C15.2672548,107.218718 15.2927616,107.282745 15.3380493,107.330636 C16.5144877,108.583074 18.2890356,110.472663 18.4035562,110.602279 C18.4514466,110.662142 18.5243233,110.700142 18.6065699,110.700142 L34.1704329,110.700142 C34.2391452,110.700142 34.3057753,110.672553 34.3541863,110.624142 C34.4031178,110.575211 34.4307068,110.509101 34.4307068,110.439868 L34.4260219,102.630088 C34.4260219,102.552005 34.3916658,102.482252 34.3370082,102.434362 Z" id="Fill-66" fill="#C0262A"></path>
            <path d="M83.8389836,79.3218767 L83.8410658,90.3757123 C83.8410658,92.6203151 82.2002986,94.5244795 80.2576137,94.5343699 L79.4200521,94.5380137 L79.4242164,107.152452 C79.4242164,107.221685 79.3966274,107.287795 79.3476959,107.336205 C79.2987644,107.385137 79.2326548,107.412726 79.1639425,107.412726 L73.1339151,107.412726 C74.8777507,109.188836 75.5575863,109.883247 75.8220247,110.179438 L82.134189,110.179438 L82.1300247,97.5066986 C82.1300247,97.3630274 82.2455863,97.2474658 82.388737,97.2464247 L83.4886548,97.2406986 C85.1549288,97.2318493 86.5619699,95.5577671 86.5614493,93.5843699 L86.5598877,81.9438767 C85.9794767,81.4462329 84.5979425,80.1099863 83.8389836,79.3218767" id="Fill-68" fill="#C0262A"></path>
            <path d="M71.416211,94.5972521 L71.3870603,94.5972521 C71.1653068,94.5972521 70.9456356,94.5712247 70.7296082,94.5233342 C70.993526,94.7888137 71.2704575,95.0667863 71.5322932,95.329663 L72.2501288,96.0511425 L72.2496082,94.5899644 L71.416211,94.5972521 Z" id="Fill-70" fill="#C0262A"></path>
            <path d="M76.6692164,88.8422301 L76.6666137,81.1001205 C75.8295726,80.3094082 75.3126685,79.8039562 74.9925315,79.476011 L74.9966959,88.8588877 L76.6692164,88.8422301 Z" id="Fill-72" fill="#C0262A"></path>
            <path d="M104.989055,91.389063 C104.821959,91.2360219 103.469055,89.8961315 103.280096,89.7087342 L103.278014,96.8397205 C103.278014,96.9089534 103.250425,96.975063 103.201493,97.0239945 C103.152562,97.072926 103.090616,97.0906247 103.016699,97.0999945 C100.46237,97.0880219 99.1427808,97.0838575 96.6712192,97.0791726 L96.6706986,99.1212822 C99.9465068,99.1259671 101.711164,99.1311726 104.986452,99.1441863 L104.989055,91.389063 Z" id="Fill-74" fill="#C0262A"></path>
            <path d="M105.507781,86.5490603 C105.507781,86.6188137 105.479671,86.6854438 105.43074,86.7338548 C105.380767,86.7833068 105.315699,86.8030877 105.244904,86.8093342 C101.799397,86.7718548 100.033699,86.7578 96.672,86.7447863 L96.6714795,88.7874164 C99.1456438,88.7952247 104.748301,88.8301014 108.28074,88.8597726 L108.283863,82.0426767 C107.68263,81.5523205 106.244877,80.1504849 105.510384,79.4279644 L105.507781,86.5490603 Z" id="Fill-76" fill="#C0262A"></path>
            <path d="M105.500181,107.1524 C105.500181,107.296071 105.383578,107.412674 105.239907,107.412674 L90.3923178,107.412674 C92.1590575,109.189304 92.8467014,109.883195 93.1147836,110.179386 L108.27366,110.179386 L108.276263,102.749085 C107.979551,102.486729 107.282016,101.810016 105.502784,100.078674 L105.500181,107.1524 Z" id="Fill-78" fill="#C0262A"></path>
            <path d="M172.379921,95.1086384 L170.415373,93.2835973 C170.533016,93.6547479 170.599647,94.0456795 170.599647,94.4465014 L170.599647,103.680501 C170.599647,105.703871 168.964605,107.41283 167.029729,107.41283 L155.563099,107.41283 L158.438085,110.179542 L170.472633,110.179542 C172.508496,110.179542 173.529811,108.110364 173.529811,106.951625 L173.529811,97.6738986 C173.529811,96.1705562 172.391373,95.1190493 172.379921,95.1086384" id="Fill-80" fill="#C0262A"></path>
            <path d="M163.462726,99.7996603 L163.463767,97.9819068 C161.43363,97.9262082 160.337356,97.8986192 158.227055,97.8455233 C158.036014,97.8408384 157.849137,97.8142904 157.664863,97.7757699 L159.725712,99.7252219 C160.850096,99.7465644 162.005712,99.769989 163.462726,99.7996603" id="Fill-82" fill="#C0262A"></path>
            <path d="M169.087871,91.3493973 L172.64894,91.5555342 L172.64894,84.9497808 L169.720337,82.2616712 L169.720337,88.6316164 C169.720337,88.7034521 169.691186,88.7721644 169.638611,88.8216164 C169.586556,88.8705479 169.520967,88.9054247 169.444967,88.8913699 C166.373214,88.7096986 164.79231,88.6206849 161.806447,88.4624384 L161.805405,90.2911233 C163.839186,90.3853425 164.93494,90.4384384 167.046282,90.5446301 C167.799515,90.5826301 168.505378,90.8819452 169.087871,91.3493973" id="Fill-84" fill="#C0262A"></path>
            <polygon id="Fill-86" fill="#C0262A" points="141.694764 87.6247205 140.026408 87.5627753 140.023285 92.004611 141.691641 92.0514603"></polygon>
            <path d="M150.476721,84.3337123 C149.730255,83.6320137 149.111844,83.0521233 148.615762,82.5888356 C148.767762,83.0281781 148.855214,83.4966712 148.854693,83.9776575 L148.848967,92.5219315 C148.847926,93.6088356 148.415351,94.6546164 147.661077,95.3906712 C147.324282,95.7201781 146.940118,95.9710822 146.529405,96.1376575 C147.867734,96.734726 148.844282,98.1896575 148.843241,99.817411 L148.838036,107.152452 C148.838036,107.296123 148.720912,107.412726 148.577762,107.412726 L141.939734,107.412726 C141.870501,107.412726 141.804392,107.385137 141.75546,107.336205 C141.706529,107.287795 141.67946,107.221164 141.67946,107.152452 L141.685186,99.9725342 L140.01631,99.9491096 L140.010584,107.152452 C140.010584,107.296123 139.893981,107.412726 139.75031,107.412726 L133.748392,107.412726 L136.579132,110.179438 L142.867351,110.179438 L142.868912,108.56626 C142.868912,108.464233 142.928255,108.372096 143.020392,108.329932 C143.113049,108.287247 143.221323,108.301822 143.298364,108.368452 L145.418036,110.179438 L151.715625,110.179438 C151.716666,109.076918 151.721351,104.768863 151.721351,103.070836 C151.721351,101.855356 150.556364,100.400425 150.544392,100.385849 L149.618858,99.2453288 C149.571488,99.1870274 149.551707,99.1115479 149.564721,99.0371096 C149.577214,98.9631918 149.62146,98.8981233 149.685488,98.8590822 C149.705789,98.846589 151.726556,97.5899863 151.726556,95.7404795 L151.732803,87.1561233 C151.732803,86.1905068 151.118036,84.938589 150.566775,84.4180411 L150.476721,84.3337123 Z" id="Fill-88" fill="#C0262A"></path>
            <path d="M126.951701,81.6994274 C127.103701,82.1507425 127.191153,82.6332904 127.191153,83.1324959 L127.172934,107.15214 C127.172934,107.296332 127.056332,107.412414 126.91266,107.412414 L120.275153,107.412414 C120.205921,107.412414 120.139811,107.385345 120.090879,107.336414 C120.042468,107.287482 120.014879,107.220852 120.014879,107.15214 L120.018003,102.315208 L118.349126,102.3074 L118.346523,107.15214 C118.346523,107.296332 118.229921,107.412414 118.086249,107.412414 L112.079126,107.412414 C113.875016,109.191126 114.573592,109.883975 114.844797,110.179647 L121.150715,110.179647 C121.152797,108.046962 121.162688,108.031345 121.421921,108.031345 C121.503647,108.031866 121.560386,108.056852 121.609838,108.106304 C122.919016,109.390496 123.468715,109.929784 123.698797,110.179647 L129.998989,110.179647 L130.016688,86.3067973 C130.017729,85.2386329 129.5914,84.2121123 128.848578,83.4906329 C128.848578,83.4906329 127.851729,82.5494822 126.951701,81.6994274" id="Fill-90" fill="#C0262A"></path>
            <polygon id="Clip-93" points="0 110.700247 189.635096 110.700247 189.635096 0.520547945 0 0.520547945"></polygon>
            <polygon id="Fill-92" fill="#C0262A" points="118.358548 94.1702466 120.02326 94.1702466 120.02326 86.9903288 118.358548 86.9903288"></polygon>
            <path d="M54.1928932,83.7668877 C54.1845644,83.7590795 53.7160712,83.2916274 53.1419068,82.717463 C52.9378521,82.5139288 52.720263,82.2968603 52.5057973,82.081874 C52.6114685,82.4587507 52.6702904,82.8554082 52.670811,83.2603945 L52.6859068,103.343134 C52.6874685,105.530997 51.074811,107.382066 49.1644,107.386751 L40.4811397,107.40549 L40.4748932,107.40549 C40.223989,107.40549 39.9756877,107.371134 39.7331123,107.310751 L41.4993315,109.160778 C41.5019342,109.163381 41.5040164,109.165463 41.5060986,109.168066 C42.0807836,109.816148 42.828811,110.172723 43.6117151,110.172723 L43.6174411,110.172723 L52.3215233,110.153463 C53.9544822,110.15034 55.3334137,108.528833 55.3318521,106.613737 L55.3162356,86.4352164 C55.3157151,85.3899562 54.9060438,84.4170521 54.1928932,83.7668877" id="Fill-94" fill="#C0262A"></path>
            <path d="M17.8915452,90.7368164 C18.1965863,90.6295836 18.5162027,90.5608712 18.8457096,90.5447342 C20.9716274,90.4385425 22.075189,90.3854466 24.1240658,90.2912274 L24.1230247,88.4625425 C20.9518466,88.6296384 19.1960384,88.7275014 16.1123123,88.9102137 C16.2908603,89.0913644 16.5256274,89.3328986 16.857737,89.6743781 C17.2601205,90.0887342 17.7005041,90.5421315 17.8915452,90.7368164" id="Fill-95" fill="#C0262A"></path>
            <path d="M33.8477973,102.674386 C33.8410301,102.66814 33.8327014,102.660852 33.8248932,102.653564 C33.7150575,102.55414 33.5078795,102.367784 33.2522904,102.137181 C33.248126,102.133537 33.2434411,102.129373 33.2392767,102.125208 C33.1877425,102.078879 33.1367288,102.033071 33.0820712,101.983619 C32.9378795,101.853482 32.7837973,101.713975 32.6250301,101.570825 L32.5443452,101.497427 C32.4756329,101.434962 32.4069205,101.373016 32.3382082,101.31003 C32.3262356,101.299099 32.314263,101.288688 32.302811,101.277756 C32.2153589,101.198112 32.1284274,101.11951 32.0430575,101.040907 C32.0305644,101.029455 32.0185918,101.018523 32.0060986,101.007071 C31.9363452,100.943564 31.8681534,100.880578 31.8015233,100.819153 C31.7775781,100.797811 31.7551945,100.776468 31.7322904,100.754605 C31.673989,100.70151 31.6182904,100.649455 31.5636329,100.598962 C31.5443726,100.581263 31.5251123,100.563044 31.5068932,100.545866 C31.4381808,100.481838 31.3720712,100.420414 31.3116877,100.363153 L31.3158521,107.15266 C31.3158521,107.221373 31.288263,107.287482 31.2398521,107.336414 C31.1909205,107.385345 31.124811,107.412934 31.0555781,107.412934 L16.1293863,107.412934 C17.7967014,109.186962 18.4484274,109.882934 18.7034959,110.179647 L33.9097425,110.179647 L33.9055781,102.727482 C33.8956877,102.718112 33.8743452,102.698852 33.8477973,102.674386" id="Fill-96" fill="#C0262A"></path>
            <path d="M22.4514411,99.7996603 C25.7470301,99.7330301 27.5179342,99.6997151 30.8270575,99.6408932 C30.9410575,99.634126 31.1185644,99.6086192 31.298674,99.5331397 C31.5256329,99.4399616 31.7557151,99.3275233 31.9805918,99.1994685 C31.9884,99.1947836 31.9956877,99.1911397 32.0034959,99.1864548 C32.0571123,99.1557425 32.1096877,99.1224274 32.1627836,99.0901534 C32.1893315,99.0734959 32.2164,99.0578795 32.2424274,99.0407014 C32.2887562,99.0110301 32.3340438,98.9797973 32.3798521,98.9485644 C32.4116055,98.9267014 32.4433589,98.9053589 32.4745918,98.8829753 C32.5162356,98.8533041 32.5568384,98.8215507 32.5974411,98.7908384 C32.6312767,98.764811 32.6656329,98.7393041 32.6984274,98.7122356 C32.7364274,98.6820438 32.7728658,98.6502904 32.8093041,98.618537 C32.8431397,98.5899068 32.8769753,98.5602356 32.9097699,98.5305644 C32.9446466,98.4993315 32.9779616,98.466537 33.0112767,98.4347836 C33.0440712,98.401989 33.0768658,98.3697151 33.1086192,98.3364 C33.1393315,98.3046466 33.1690027,98.2713315 33.198674,98.238537 C33.2299068,98.2036603 33.2600986,98.1677425 33.2897699,98.1323452 C33.3173589,98.0985096 33.3439068,98.0651945 33.3699342,98.0318795 C33.3985644,97.9933589 33.4261534,97.9548384 33.4527014,97.9163178 C33.476126,97.8819616 33.4995507,97.8486466 33.5214137,97.8142904 C33.5474411,97.7726466 33.5708658,97.7310027 33.5942904,97.6893589 C33.6140712,97.6550027 33.6333315,97.6206466 33.6515507,97.5857699 C33.6734137,97.5420438 33.6931945,97.4967562 33.7124548,97.451989 C33.7275507,97.4176329 33.7431671,97.3832767 33.7567014,97.3484 C33.7749205,97.299989 33.7894959,97.2510575 33.8045918,97.2016055 C33.8150027,97.1677699 33.8264548,97.1354959 33.8353041,97.1011397 C33.8493589,97.0459616 33.8587288,96.9897425 33.8680986,96.9330027 C33.8733041,96.9038521 33.8805918,96.8752219 33.8842356,96.8455507 C33.8951671,96.7586192 33.9014137,96.6706466 33.9014137,96.5811123 L33.8951671,87.408537 C33.8946466,86.512674 33.5630575,85.6844822 32.9613041,85.0764822 C32.9389205,85.0535781 32.0087014,84.1072219 31.1758247,83.2597699 C31.2549479,83.5726192 31.3007562,83.8974411 31.3012767,84.2290301 L31.3075233,93.8768658 C31.3085644,95.9793589 29.6683178,97.7965918 27.7251123,97.8455233 C25.5997151,97.8986192 24.4961534,97.9262082 22.4509205,97.9819068 L22.4514411,99.7996603 Z" id="Fill-97" fill="#C0262A"></path>
            <polygon id="Fill-98" fill="#C0262A" points="46.0011342 99.4092493 45.9902027 87.5428384 43.9017644 87.6115507 43.9132164 99.4378795"></polygon>
        </g>
    </g>
</svg>