<?xml version="1.0" encoding="UTF-8"?>
<svg width="102px" height="119px" viewBox="0 0 102 119" version="1.1" xmlns="http://www.w3.org/2000/svg" xmlns:xlink="http://www.w3.org/1999/xlink">
    <!-- Generator: Sketch 51.3 (57544) - http://www.bohemiancoding.com/sketch -->
    <title>SL_DeliveryorPickup</title>
    <desc>Created with Sketch.</desc>
    <defs></defs>
    <g id="Page-1" stroke="none" stroke-width="1" fill="none" fill-rule="evenodd">
        <g id="SL_valueprop_illos" transform="translate(-539.000000, -768.000000)">
            <g id="Group-6-Copy-4" transform="translate(95.000000, 768.000000)">
                <g id="Group-14" transform="translate(362.000000, 0.000000)">
                    <g id="SL_DeliveryorPickup" transform="translate(82.000000, 0.000000)">
                        <g id="Group-72" transform="translate(0.161067, 0.830499)">
                            <path d="M62.5214717,6.90913321 C62.7363373,6.925265 62.9517759,6.94312521 63.1649225,6.96674677 C62.9517759,6.94312521 62.7363373,6.925265 62.5214717,6.90913321" id="Fill-1" fill="#0D8B91"></path>
                            <path d="M63.5639422,7.01658249 C63.7782348,7.04481314 63.9913815,7.07592446 64.2033822,7.1104926 C63.9913815,7.07592446 63.7782348,7.04481314 63.5639422,7.01658249" id="Fill-3" fill="#0D8B91"></path>
                            <path d="M64.5767326,7.17640251 C64.7933171,7.21615586 65.0081827,7.26109444 65.2219023,7.30891369 C65.0081827,7.26109444 64.7933171,7.21615586 64.5767326,7.17640251" id="Fill-5" fill="#0D8B91"></path>
                            <path d="M56.7246276,7.35811567 C56.7292114,7.35869181 56.7332222,7.35926794 56.737233,7.35984408 C56.8088549,7.34313615 56.8804768,7.32700435 56.9526716,7.31087255 C56.8776119,7.32758049 56.8002603,7.34025547 56.7246276,7.35811567" id="Fill-7" fill="#0D8B91"></path>
                            <path d="M61.2188706,6.85290237 C61.5225473,6.85463078 61.825651,6.86384895 62.1253169,6.87998075 C61.8250781,6.86384895 61.5225473,6.85520692 61.2188706,6.85290237" id="Fill-9" fill="#0D8B91"></path>
                            <path d="M58.6226069,7.01606397 C58.7538181,6.9987799 58.8844564,6.9809197 59.0162406,6.96651631 C58.8844564,6.9809197 58.7538181,6.9987799 58.6226069,7.01606397" id="Fill-11" fill="#0D8B91"></path>
                            <path d="M61.0800961,6.84950317 C61.0417068,6.84950317 61.0027445,6.85295999 60.9643552,6.85295999 C61.0067553,6.85295999 61.0485825,6.85007931 61.0915556,6.84950317 L61.0800961,6.84950317 Z" id="Fill-13" fill="#0D8B91"></path>
                            <path d="M59.665593,6.90913321 C59.7962313,6.89876277 59.9257236,6.88724005 60.0569349,6.87975029 C59.9257236,6.88724005 59.7962313,6.89876277 59.665593,6.90913321" id="Fill-15" fill="#0D8B91"></path>
                            <path d="M57.6098165,7.17525024 C57.7318601,7.15278095 57.8539038,7.13146393 57.9765204,7.11129919 C57.8539038,7.13204007 57.7318601,7.15278095 57.6098165,7.17525024" id="Fill-17" fill="#0D8B91"></path>
                            <path d="M77.6751102,25.5820909 L75.239967,25.5820909 L72.9480675,25.1978085 L72.5240661,21.341733 C71.0222989,15.6022703 66.7954632,10.616969 61.0920713,8.42822991 C59.7197965,7.90164199 58.2638673,7.53349134 56.7380352,7.36007453 L56.7248568,7.35834613 C56.8027814,7.33933365 56.8829978,7.32665867 56.9620684,7.3093746 C57.175788,7.26155535 57.3906536,7.21661677 57.6072381,7.17628728 C57.7310007,7.15324186 57.8553362,7.1313487 57.9802447,7.11060782 C58.1922454,7.07546355 58.4053921,7.04492837 58.6196847,7.01669772 C58.7526149,6.99941365 58.8849721,6.98097731 59.0184752,6.96657393 C59.2321948,6.94295237 59.4476334,6.9256683 59.662499,6.90896037 C59.7942832,6.8997422 59.9254945,6.88706721 60.0584246,6.88015359 C60.3580905,6.86344565 60.6611942,6.85480362 60.9648709,6.85307521 C61.0038332,6.85307521 61.0422225,6.8496184 61.0811848,6.8496184 L61.0926443,6.8496184 C61.1350444,6.85019454 61.1768716,6.85307521 61.2192717,6.85307521 C61.5240944,6.85537976 61.8266251,6.86344565 62.1268639,6.88015359 C62.2580752,6.88706721 62.3875675,6.89916606 62.5182058,6.90896037 C62.7353633,6.9256683 62.9525207,6.94295237 63.1673863,6.96657393 C63.2991705,6.98097731 63.4303818,6.99883752 63.5610201,7.01612159 C63.7776046,7.04435223 63.9930431,7.07546355 64.2073357,7.11118396 C64.3299523,7.1313487 64.451996,7.15266572 64.5740396,7.17513501 C64.794635,7.21661677 65.0129384,7.26270762 65.2306689,7.31110301 C65.3028637,7.3272348 65.3744855,7.34279046 65.4461074,7.36007453 C73.3445661,9.22329703 79.3493428,16.0257299 80.0575398,24.3531937 L79.4656567,25.1978085 L77.6751102,25.5820909 Z" id="Fill-19" fill="#F8A51C"></path>
                            <path d="M44.675367,20.8629643 L47.0211261,24.6873524 L49.3657393,20.8629643 L49.6591025,21.341733 C51.1614426,15.6022703 55.3882783,10.616969 61.0916702,8.42822991 C62.4639451,7.90164199 63.9198742,7.53349134 65.4457063,7.36007453 L65.4588847,7.35834613 C65.3809602,7.33933365 65.3007437,7.32665867 65.2216731,7.3093746 C65.0079535,7.26155535 64.7930879,7.21604064 64.5765034,7.17628728 C64.4527409,7.15324186 64.3284053,7.1313487 64.2034968,7.11060782 C63.9914961,7.07546355 63.7783494,7.04492837 63.5640568,7.01669772 C63.4311267,6.99941365 63.2987695,6.98097731 63.1652663,6.96657393 C62.9515467,6.94295237 62.7361081,6.9256683 62.5212425,6.90896037 C62.3894583,6.8997422 62.2582471,6.88706721 62.1253169,6.87957745 C61.825651,6.86344565 61.5225473,6.85480362 61.2188706,6.85307521 C61.1799084,6.85307521 61.141519,6.8496184 61.1025567,6.8496184 L61.0910972,6.8496184 C61.0486971,6.85019454 61.0068699,6.85307521 60.9644698,6.85307521 C60.6596472,6.85537976 60.3571164,6.86344565 60.0568776,6.87957745 C59.9256663,6.88706721 59.796174,6.89916606 59.6655357,6.90896037 C59.4483783,6.9256683 59.2312208,6.94295237 59.0163552,6.96657393 C58.884571,6.98097731 58.7533597,6.99883752 58.6227215,7.01612159 C58.406137,7.04435223 58.1906984,7.07546355 57.9764058,7.11118396 C57.8537892,7.1313487 57.7317455,7.15266572 57.6097019,7.17513501 C57.3891066,7.21604064 57.1708031,7.26270762 56.9530727,7.31110301 C56.8808778,7.3272348 56.809256,7.34279046 56.7376341,7.36007453 C48.8386024,9.22329703 42.8343987,16.0257299 42.1256288,24.3531937 L42.3307538,24.6873524 L44.675367,20.8629643 Z" id="Fill-21" fill="#FDDB00"></path>
                            <path d="M98.8544964,71.6858435 C98.8722586,71.6777776 98.8894478,71.6691355 98.9072101,71.6610696 C98.8894478,71.6691355 98.8711126,71.6766253 98.8533504,71.6858435 L98.8544964,71.6858435 Z" id="Fill-23" fill="#FEFEFE"></path>
                            <path d="M100.636047,85.8177581 C100.408003,85.889775 100.175948,85.9566068 99.9456124,86.0234385 C100.175948,85.9566068 100.406857,85.889775 100.636047,85.8177581" id="Fill-25" fill="#FEFEFE"></path>
                            <path d="M102.189382,85.2838532 C101.986549,85.3587509 101.779705,85.4261587 101.575153,85.4975995 C101.779705,85.4261587 101.986549,85.3587509 102.189382,85.2838532" id="Fill-27" fill="#FEFEFE"></path>
                            <polygon id="Combined-Shape" fill="#34B3B4" points="25.9161694 20.8627915 28.2606174 24.6866796 29.6125702 22.4817901 30.6048229 20.8631372 32.9506326 24.6868666 33.9433198 23.0682961 35.2953671 20.8632524 37.6407892 24.6866797 38.9927419 22.4817901 39.9849946 20.8631372 42.3013851 24.6390753 42.3308042 24.6868669 44.675367 20.8631372 47.0209609 24.6866797 48.3729137 22.4817901 49.3651664 20.8631372 49.6592744 21.3420211 51.712122 24.6868666 54.0561117 20.8631372 56.4011326 24.6866797 58.74551 20.8632524 61.0911478 24.6868666 63.4357105 20.8631372 65.7815202 24.6868666 66.7738942 23.0684114 68.1256817 20.8632524 70.529085 24.6868625 72.6374578 20.8627915 74.983217 24.6871795 77.3284031 20.8627915 79.6730163 24.6871795 82.0176296 20.8627915 84.3633887 24.6871795 86.7080019 20.8627915 89.0531881 24.6871795 91.3978013 20.8627915 93.7447064 24.6871795 96.2672606 20.8627915 98.3531433 61.282736 98.3238058 61.2827359 98.8531785 71.6859011 98.8543245 71.6859011 99.5883053 86.1319248 101.192062 117.641932 20.9910493 117.641932 25.5891727 27.2347359 25.9157684 20.8632524"></polygon>
                            <path d="M50.3580745,73.9343854 C50.3580745,74.3394088 50.6457079,74.6891231 51.1499258,74.6891231 C51.9010959,74.6891231 52.4167733,73.894056 52.4167733,73.2084546 L52.4167733,73.0235151 L52.1887293,73.0235151 C51.6850843,73.0235151 50.3580745,73.0943798 50.3580745,73.9343854" id="Fill-32" fill="#BE272A"></path>
                            <path d="M46.2096218,71.0872386 C45.5197601,71.0872386 45.0258557,71.5631266 44.8917796,72.2879052 L47.2793659,72.2879052 C47.2478523,71.5216448 46.7860345,71.0872386 46.2096218,71.0872386" id="Fill-34" fill="#BE272A"></path>
                            <path d="M70.1632377,71.0872386 C69.472803,71.0872386 68.9794716,71.5631266 68.8448225,72.2879052 L71.2318358,72.2879052 C71.2026141,71.5216448 70.7385045,71.0872386 70.1632377,71.0872386" id="Fill-36" fill="#BE272A"></path>
                            <path d="M80.1880062,75.6296068 C79.2311381,75.6296068 78.0783127,75.2165176 78.0783127,74.3569233 L78.0783127,73.7588945 L79.1394621,73.7588945 L79.1394621,74.0792259 C79.1394621,74.4629322 79.6528476,74.6478718 80.2092062,74.6478718 C80.7455107,74.6478718 81.1357066,74.4508334 81.1357066,74.0792259 C81.1357066,73.6240788 80.6211752,73.4984813 79.9215729,73.2403725 C79.1497757,72.9609468 78.2633836,72.609504 78.2633836,71.615094 C78.2633836,70.5077614 79.3554737,70.1125324 80.3020282,70.1125324 C81.0640848,70.1125324 82.1853966,70.4144274 82.1853966,71.2008525 L82.1853966,71.8622562 L81.1059119,71.8622562 L81.1059119,71.5528714 C81.1059119,71.2728695 80.7764514,71.0971481 80.3134877,71.0971481 C79.8803187,71.0971481 79.5096039,71.262499 79.5096039,71.6047236 C79.5096039,72.0592946 80.0436165,72.2373205 80.6309158,72.4216838 C81.4347995,72.681521 82.381354,73.0133751 82.381354,74.0365919 C82.381354,75.0914962 81.3923994,75.6296068 80.1880062,75.6296068 Z M75.2988115,75.6296068 C74.3442354,75.6296068 73.189118,75.2165176 73.189118,74.3569233 L73.189118,73.7588945 L74.2502675,73.7588945 L74.2502675,74.0792259 C74.2502675,74.4629322 74.763653,74.6478718 75.3200116,74.6478718 C75.8557431,74.6478718 76.246512,74.4508334 76.246512,74.0792259 C76.246512,73.6240788 75.7308346,73.4984813 75.0312323,73.2403725 C74.2588621,72.9609468 73.3747619,72.609504 73.3747619,71.615094 C73.3747619,70.5077614 74.467425,70.1125324 75.4128335,70.1125324 C76.1725982,70.1125324 77.295056,70.4144274 77.295056,71.2008525 L77.295056,71.8622562 L76.2149984,71.8622562 L76.2149984,71.5528714 C76.2149984,71.2728695 75.8861108,71.0971481 75.4231471,71.0971481 C74.991124,71.0971481 74.6204093,71.262499 74.6204093,71.6047236 C74.6204093,72.0592946 75.1555678,72.2373205 75.7405752,72.4216838 C76.5444589,72.681521 77.4921594,73.0133751 77.4921594,74.0365919 C77.4921594,75.0914962 76.5049236,75.6296068 75.2988115,75.6296068 Z M72.4786292,73.042758 L68.8156008,73.042758 C68.8963902,74.0469623 69.6171926,74.5747025 70.429671,74.5747025 C71.2937171,74.5747025 71.9646707,74.0066328 71.9646707,74.0066328 L72.4471156,74.8973385 C72.4471156,74.8973385 71.6546913,75.6296068 70.3500275,75.6296068 C68.627665,75.6296068 67.5384398,74.3799687 67.5384398,72.8687651 C67.5384398,71.2423343 68.6402705,70.1125324 70.1936054,70.1125324 C71.6965185,70.1125324 72.5101428,71.2221695 72.5101428,72.609504 C72.5101428,72.7535379 72.4786292,73.042758 72.4786292,73.042758 Z M67.1356384,75.5172604 C67.1356384,75.5172604 66.9207729,75.5477955 66.6732477,75.5477955 C65.8498828,75.5477955 65.1090263,75.2597277 65.1090263,73.8718171 L65.1090263,69.1100565 L64.2850884,69.1100565 L64.2850884,68.1669225 L66.3443601,68.1669225 L66.3443601,73.7888536 C66.3443601,74.2560996 66.4486416,74.5136322 66.8904052,74.5136322 C67.0336489,74.5136322 67.1356384,74.5026856 67.1356384,74.5026856 L67.1356384,75.5172604 Z M64.3979645,75.5045854 L62.379374,75.5045854 L62.379374,72.3611896 C62.379374,71.7389632 62.2670709,71.253857 61.6184633,71.253857 C60.713163,71.253857 60.2501993,72.1727933 60.2501993,73.1568329 L60.2501993,74.563756 L61.0208505,74.563756 L61.0208505,75.5045854 L59.003979,75.5045854 L59.003979,72.3611896 C59.003979,71.7689222 58.911157,71.253857 58.2642684,71.253857 C57.315422,71.253857 56.8616259,72.2563329 56.8616259,73.2184794 L56.8616259,74.563756 L57.6357149,74.563756 L57.6357149,75.5045854 L54.8447543,75.5045854 L54.8447543,74.563756 L55.6165515,74.563756 L55.6165515,71.3978909 C55.6165515,71.253857 55.535189,71.1806878 55.3919453,71.1806878 L54.7954785,71.1806878 L54.7954785,70.2375538 L56.1328018,70.2375538 C56.584879,70.2375538 56.8106311,70.446691 56.8106311,70.8292451 L56.8106311,71.0660368 C56.8106311,71.1904821 56.790577,71.3143512 56.790577,71.3143512 L56.8106311,71.3143512 C57.0799293,70.7572281 57.749164,70.1125324 58.6126371,70.1125324 C59.3643802,70.1125324 59.8892251,70.4662797 60.0851826,71.275174 L60.1058096,71.275174 C60.394016,70.6529476 61.1033589,70.1125324 61.9381833,70.1125324 C63.0193869,70.1125324 63.6261673,70.7451293 63.6261673,72.1226695 L63.6261673,74.563756 L64.3979645,74.563756 L64.3979645,75.5045854 Z M54.3623095,75.5063138 L53.1567703,75.5063138 C52.6829201,75.5063138 52.4984222,75.2597277 52.4984222,74.9474623 L52.4984222,74.8852396 C52.4984222,74.7100944 52.5293628,74.5971718 52.5293628,74.5971718 L52.5087357,74.5971718 C52.5087357,74.5971718 52.0658261,75.6296068 50.8408059,75.6296068 C49.9463921,75.6296068 49.1024001,75.1018666 49.1024001,74.0256453 C49.1024001,72.4130418 51.2206882,72.2563329 52.0761397,72.2563329 L52.4061732,72.2563329 L52.4061732,72.069665 C52.4061732,71.3662034 51.9730042,71.1184651 51.408051,71.1184651 C50.6133348,71.1184651 49.926338,71.6260406 49.926338,71.6260406 L49.4513418,70.7572281 C49.4513418,70.7572281 50.2529336,70.1125324 51.5100405,70.1125324 C52.9109641,70.1125324 53.6512476,70.8384632 53.6512476,72.184316 L53.6512476,74.3396392 C53.6512476,74.491739 53.733756,74.563756 53.8787187,74.563756 L54.3623095,74.563756 L54.3623095,75.5063138 Z M48.5242684,73.042758 L44.86124,73.042758 C44.9426025,74.0469623 45.6639778,74.5747025 46.4770292,74.5747025 C47.3410753,74.5747025 48.01031,74.0066328 48.01031,74.0066328 L48.4950467,74.8973385 C48.4950467,74.8973385 47.7003305,75.6296068 46.3945208,75.6296068 C44.6755962,75.6296068 43.584079,74.3799687 43.584079,72.8687651 C43.584079,71.2423343 44.6853367,70.1125324 46.2398176,70.1125324 C47.7427307,70.1125324 48.5552091,71.2221695 48.5552091,72.609504 C48.5552091,72.7535379 48.5242684,73.042758 48.5242684,73.042758 Z M40.7747832,75.6296068 C39.8173422,75.6296068 38.6633708,75.2165176 38.6633708,74.3569233 L38.6633708,73.7588945 L39.7233743,73.7588945 L39.7233743,74.0792259 C39.7233743,74.4629322 40.2390517,74.6478718 40.7942643,74.6478718 C41.3305688,74.6478718 41.7207647,74.4508334 41.7207647,74.0792259 C41.7207647,73.6240788 41.2062333,73.4984813 40.5066309,73.2403725 C39.7336878,72.9609468 38.8495876,72.609504 38.8495876,71.615094 C38.8495876,70.5077614 39.9405318,70.1125324 40.8870863,70.1125324 C41.6491429,70.1125324 42.7704547,70.4144274 42.7704547,71.2008525 L42.7704547,71.8622562 L41.6898241,71.8622562 L41.6898241,71.5528714 C41.6898241,71.2728695 41.3603635,71.0971481 40.8973998,71.0971481 C40.4653768,71.0971481 40.094089,71.262499 40.094089,71.6047236 C40.094089,72.0592946 40.6298205,72.2373205 41.2159738,72.4216838 C42.0187116,72.681521 42.967558,73.0133751 42.967558,74.0365919 C42.967558,75.0914962 41.9780304,75.6296068 40.7747832,75.6296068 Z M83.3943736,61.8645753 C82.3802081,61.8645753 73.6022329,62.9021955 60.5229354,62.9021955 C47.4419189,62.9021955 38.6633708,61.8645753 37.6520701,61.8645753 C36.0059133,61.8645753 34.3614754,62.9021955 34.3614754,64.6640181 L34.3614754,71.899705 L34.3614754,79.1348157 C34.3614754,80.8989429 36.0059133,81.9354108 37.6520701,81.9354108 C38.6633708,81.9354108 47.4419189,80.8989429 60.5229354,80.8989429 C73.6022329,80.8989429 82.3802081,81.9354108 83.3943736,81.9354108 C85.0370926,81.9354108 86.6843953,80.8989429 86.6843953,79.1348157 L86.6843953,71.899705 L86.6843953,64.6640181 C86.6843953,62.9021955 85.0370926,61.8645753 83.3943736,61.8645753 Z" id="Fill-38" fill="#BE272A"></path>
                            <path d="M41.216203,72.4217991 C40.6300497,72.2374357 40.0943182,72.0594098 40.0943182,71.6048388 C40.0943182,71.2626143 40.465033,71.0972633 40.897056,71.0972633 C41.3605927,71.0972633 41.6894803,71.2729847 41.6894803,71.5529866 L41.6894803,71.8623714 L42.7706839,71.8623714 L42.7706839,71.2009678 C42.7706839,70.4145427 41.649372,70.1126476 40.8873155,70.1126476 C39.940188,70.1126476 38.8492438,70.5078766 38.8492438,71.6152092 C38.8492438,72.6096193 39.733917,72.961062 40.5068601,73.2399116 C41.2058895,73.4985965 41.7209939,73.6236179 41.7209939,74.078765 C41.7209939,74.4509486 41.330225,74.647987 40.7944935,74.647987 C40.2392809,74.647987 39.7236035,74.4624713 39.7236035,74.078765 L39.7236035,73.7590098 L38.6635999,73.7590098 L38.6635999,74.3570385 C38.6635999,75.2166328 39.8175714,75.629722 40.7744394,75.629722 C41.9782596,75.629722 42.9677872,75.0916114 42.9677872,74.0367071 C42.9677872,73.0134903 42.0183679,72.6816362 41.216203,72.4217991" id="Fill-40" fill="#FEFEFE"></path>
                            <path d="M44.8918942,72.2878475 C45.0253973,71.563069 45.5198746,71.087181 46.2097364,71.087181 C46.7861491,71.087181 47.2479669,71.5215872 47.2794805,72.2878475 L44.8918942,72.2878475 Z M46.2401041,70.1129357 C44.6856232,70.1129357 43.5843655,71.2427376 43.5843655,72.8685922 C43.5843655,74.3797959 44.6753097,75.629434 46.3942343,75.629434 C47.7000441,75.629434 48.4947602,74.8971656 48.4947602,74.8971656 L48.0100235,74.00646 C48.0100235,74.00646 47.3407888,74.5745297 46.4773157,74.5745297 C45.6642643,74.5745297 44.9428889,74.0467895 44.8609535,73.0431613 L48.5245549,73.0431613 C48.5245549,73.0431613 48.5554956,72.7539412 48.5554956,72.6099073 C48.5554956,71.2219967 47.7430172,70.1129357 46.2401041,70.1129357 Z" id="Fill-42" fill="#FEFEFE"></path>
                            <path d="M52.4166587,73.2086274 C52.4166587,73.8936527 51.9015542,74.6887198 51.1498112,74.6887198 C50.6455933,74.6887198 50.3579599,74.3395816 50.3579599,73.9345583 C50.3579599,73.0945526 51.6855427,73.0236879 52.1891876,73.0236879 L52.4166587,73.0236879 L52.4166587,73.2086274 Z M53.6508466,74.3395816 L53.6508466,72.1842584 C53.6508466,70.8384056 52.910563,70.1124748 51.5102124,70.1124748 C50.2531055,70.1124748 49.4515137,70.7577466 49.4515137,70.7577466 L49.9259369,71.625983 C49.9259369,71.625983 50.6135067,71.1189837 51.4076499,71.1189837 C51.9731761,71.1189837 52.4057721,71.3661458 52.4057721,72.0696074 L52.4057721,72.2562753 L52.0763116,72.2562753 C51.2208601,72.2562753 49.102572,72.4129842 49.102572,74.0255877 C49.102572,75.101809 49.945991,75.6295492 50.8409777,75.6295492 C52.065998,75.6295492 52.5089076,74.5971142 52.5089076,74.5971142 L52.5289617,74.5971142 C52.5289617,74.5971142 52.4985941,74.7100368 52.4985941,74.885182 L52.4985941,74.9479808 C52.4985941,75.2602463 52.683092,75.5062562 53.1569422,75.5062562 L54.3624814,75.5062562 L54.3624814,74.5642745 L53.8788906,74.5642745 C53.7339279,74.5642745 53.6508466,74.4922575 53.6508466,74.3395816 Z" id="Fill-44" fill="#FEFEFE"></path>
                            <path d="M63.6260527,72.122439 C63.6260527,70.7448988 63.0192723,70.1128781 61.9386417,70.1128781 C61.1038173,70.1128781 60.3939014,70.6527171 60.1056951,71.2749436 L60.085068,71.2749436 C59.8896835,70.4660492 59.3648385,70.1128781 58.6125225,70.1128781 C57.7490494,70.1128781 57.0798147,70.7575738 56.8105165,71.3146969 L56.7904624,71.3146969 C56.7904624,71.3146969 56.8105165,71.1908278 56.8105165,71.0658063 L56.8105165,70.8295908 C56.8105165,70.4470367 56.5847644,70.2378995 56.1326872,70.2378995 L54.7953639,70.2378995 L54.7953639,71.1804573 L55.3918307,71.1804573 C55.5350744,71.1804573 55.6164369,71.2536265 55.6164369,71.3976604 L55.6164369,74.5641016 L54.8446397,74.5641016 L54.8446397,75.5049311 L57.6356003,75.5049311 L57.6356003,74.5641016 L56.8615113,74.5641016 L56.8615113,73.218825 C56.8615113,72.2561025 57.3153074,71.2536265 58.2647268,71.2536265 C58.9110424,71.2536265 59.0044373,71.7692679 59.0044373,72.3609591 L59.0044373,75.5049311 L61.0207359,75.5049311 L61.0207359,74.5641016 L60.2500847,74.5641016 L60.2500847,73.1566024 C60.2500847,72.1731389 60.7130484,71.2536265 61.6183487,71.2536265 C62.2669563,71.2536265 62.3792594,71.7387327 62.3792594,72.3609591 L62.3792594,75.5049311 L64.3984228,75.5049311 L64.3984228,74.5641016 L63.6260527,74.5641016 L63.6260527,72.122439 Z" id="Fill-46" fill="#FEFEFE"></path>
                            <path d="M66.3443028,73.7886808 L66.3443028,68.1673258 L64.2850311,68.1673258 L64.2850311,69.1098836 L65.108969,69.1098836 L65.108969,73.8722204 C65.108969,75.260131 65.8498255,75.5481988 66.6731904,75.5481988 C66.9207156,75.5481988 67.1355811,75.5170875 67.1355811,75.5170875 L67.1355811,74.5025127 C67.1355811,74.5025127 67.0335916,74.5134593 66.8903479,74.5134593 C66.4485843,74.5134593 66.3443028,74.2565028 66.3443028,73.7886808" id="Fill-48" fill="#FEFEFE"></path>
                            <path d="M68.8449371,72.2878475 C68.9790132,71.563069 69.4729176,71.087181 70.1633523,71.087181 C70.7386191,71.087181 71.2027287,71.5215872 71.2319504,72.2878475 L68.8449371,72.2878475 Z M70.19372,70.1129357 C68.6403851,70.1129357 67.5385544,71.2427376 67.5385544,72.8685922 C67.5385544,74.3797959 68.6277796,75.629434 70.3501421,75.629434 C71.6548059,75.629434 72.4472302,74.8971656 72.4472302,74.8971656 L71.9647853,74.00646 C71.9647853,74.00646 71.2932587,74.5745297 70.4297856,74.5745297 C69.6173072,74.5745297 68.8965048,74.0467895 68.8157154,73.0431613 L72.4787438,73.0431613 C72.4787438,73.0431613 72.5096844,72.7539412 72.5096844,72.6099073 C72.5096844,71.2219967 71.6966331,70.1129357 70.19372,70.1129357 Z" id="Fill-50" fill="#FEFEFE"></path>
                            <path d="M75.7407471,72.4217991 C75.1557397,72.2374357 74.6205812,72.0594098 74.6205812,71.6048388 C74.6205812,71.2626143 74.9907229,71.0972633 75.422746,71.0972633 C75.8862827,71.0972633 76.2151703,71.2729847 76.2151703,71.5529866 L76.2151703,71.8623714 L77.2952279,71.8623714 L77.2952279,71.2009678 C77.2952279,70.4145427 76.1727701,70.1126476 75.4130054,70.1126476 C74.4670239,70.1126476 73.3749338,70.5078766 73.3749338,71.6152092 C73.3749338,72.6096193 74.259034,72.961062 75.0314042,73.2399116 C75.7304335,73.4985965 76.2466839,73.6236179 76.2466839,74.078765 C76.2466839,74.4509486 75.855915,74.647987 75.3201835,74.647987 C74.7638249,74.647987 74.2498664,74.4624713 74.2498664,74.078765 L74.2498664,73.7590098 L73.1892899,73.7590098 L73.1892899,74.3570385 C73.1892899,75.2166328 74.3438343,75.629722 75.2989834,75.629722 C76.5050955,75.629722 77.4923313,75.0916114 77.4923313,74.0367071 C77.4923313,73.0134903 76.5440578,72.6816362 75.7407471,72.4217991" id="Fill-52" fill="#FEFEFE"></path>
                            <path d="M80.6312022,72.4217991 C80.043903,72.2374357 79.5098904,72.0594098 79.5098904,71.6048388 C79.5098904,71.2626143 79.8800322,71.0972633 80.3132012,71.0972633 C80.7767379,71.0972633 81.1056254,71.2729847 81.1056254,71.5529866 L81.1056254,71.8623714 L82.1856831,71.8623714 L82.1856831,71.2009678 C82.1856831,70.4145427 81.0643712,70.1126476 80.3023147,70.1126476 C79.3551872,70.1126476 78.2630971,70.5078766 78.2630971,71.6152092 C78.2630971,72.6096193 79.1494892,72.961062 79.9218593,73.2399116 C80.6208887,73.4985965 81.1359931,73.6236179 81.1359931,74.078765 C81.1359931,74.4509486 80.7452242,74.647987 80.2094927,74.647987 C79.6531341,74.647987 79.1391757,74.4624713 79.1391757,74.078765 L79.1391757,73.7590098 L78.0785992,73.7590098 L78.0785992,74.3570385 C78.0785992,75.2166328 79.2314246,75.629722 80.1882927,75.629722 C81.3921129,75.629722 82.3816405,75.0916114 82.3816405,74.0367071 C82.3816405,73.0134903 81.434513,72.6816362 80.6312022,72.4217991" id="Fill-54" fill="#FEFEFE"></path>
                            <path d="M35.8110445,15.2675931 L35.8110445,0.576135589 C35.8110445,0.258684879 35.5549247,0 35.2380696,0 C34.9217875,0 34.6650948,0.258684879 34.6650948,0.576135589 L34.6650948,15.2675931 C34.6650948,15.5861961 34.9217875,15.8437287 35.2380696,15.8437287 C35.5549247,15.8437287 35.8110445,15.5861961 35.8110445,15.2675931 Z" id="Fill-56" fill="#E54359"></path>
                            <path d="M8.71334358,9.96311274 C8.4893104,9.73784372 8.12719027,9.73784372 7.9031571,9.96311274 C7.67912392,10.1883818 7.67912392,10.5524994 7.9031571,10.7777685 L19.6491421,22.588548 C19.7608722,22.7008945 19.9075538,22.7573558 20.0542354,22.7573558 C20.2009169,22.7573558 20.3475985,22.7008945 20.4593286,22.588548 C20.6833618,22.363279 20.6833618,21.9991613 20.4593286,21.7738923 L8.71334358,9.96311274 Z" id="Fill-58" fill="#E54359"></path>
                            <path d="M19.7677479,39.17722 C19.7677479,38.8597693 19.5116281,38.6010844 19.194773,38.6010844 L0.573089474,38.6010844 C0.256807341,38.6010844 0.000114594969,38.8597693 0.000114594969,39.17722 C0.000114594969,39.495823 0.256807341,39.7533556 0.573089474,39.7533556 L19.194773,39.7533556 C19.5116281,39.7533556 19.7677479,39.495823 19.7677479,39.17722" id="Fill-60" fill="#E54359"></path>
                            <path d="M17.6118153,31.667235 C17.6622371,31.6816384 17.7132319,31.688552 17.7630807,31.688552 C18.0146167,31.688552 18.2455256,31.5197443 18.3154285,31.2645162 C18.3985098,30.9562837 18.2185957,30.6399853 17.9132001,30.5552933 L8.45911462,27.9626832 C8.15200009,27.8797197 7.8391558,28.0606262 7.75550147,28.3671304 C7.67242011,28.6742106 7.85233423,28.9910852 8.15772984,29.0746249 L17.6118153,31.667235 Z" id="Fill-62" fill="#E54359"></path>
                            <path d="M27.005452,16.4176173 C27.1114523,16.6042853 27.3045449,16.7079897 27.5033672,16.7079897 C27.5996269,16.7079897 27.6976056,16.6843681 27.7869897,16.6325159 C28.0620177,16.4752309 28.1577045,16.1226359 28.0001364,15.8460908 L24.5622871,9.79666716 C24.405865,9.52069822 24.0557773,9.42505971 23.7807494,9.58292086 C23.5062944,9.74020588 23.4111806,10.0922247 23.5676027,10.3681937 L27.005452,16.4176173 Z" id="Fill-64" fill="#E54359"></path>
                            <path d="M19.6983607,46.5038211 L11.3902249,53.1293804 C11.1421268,53.327571 11.1008726,53.6899603 11.297403,53.939427 C11.410279,54.0823086 11.5775877,54.1566301 11.7466153,54.1566301 C11.8715238,54.1566301 11.9970053,54.1163006 12.1024327,54.032761 L20.4105684,47.4072017 C20.6586665,47.2095872 20.6999207,46.8471979 20.5033904,46.5977312 C20.306287,46.3476883 19.9464588,46.3067827 19.6983607,46.5038211" id="Fill-66" fill="#E54359"></path>
                        </g>
                    </g>
                </g>
            </g>
        </g>
    </g>
</svg>