<?xml version="1.0" encoding="UTF-8"?>
<svg width="105px" height="31px" viewBox="0 0 105 31" version="1.1" xmlns="http://www.w3.org/2000/svg" xmlns:xlink="http://www.w3.org/1999/xlink">
    <!-- Generator: Sketch 52.5 (67469) - http://www.bohemiancoding.com/sketch -->
    <title>Umami-SL20-Logo</title>
    <desc>Created with Sketch.</desc>
    <g id="Umami-SL20-Logo" stroke="none" stroke-width="1" fill="none" fill-rule="evenodd">
        <g id="Group">
            <g id="Group-5" transform="translate(75.773196, 0.000000)">
                <path d="M5.25376802,5.78872358 C4.91336746,5.67075816 4.66965378,5.35909466 4.66965378,4.9920275 C4.66965378,4.97413226 4.67036681,4.95623702 4.67150766,4.93848494 C4.68505523,4.75538084 4.76847975,4.58430235 4.89368783,4.45058912 C5.01233604,4.32403398 5.24749336,4.13019274 5.39209586,3.82139248 C5.47580559,3.64286957 5.54967551,3.32633856 5.55381109,3.07766631 C5.55381109,3.07766631 5.55395369,3.07780947 5.55395369,3.07795263 C6.13436018,3.35454146 6.53579612,3.94852027 6.53579612,4.63627013 C6.53579612,4.80763494 6.50969922,4.97270064 6.46320966,5.12889029 C6.46050014,5.13876846 6.44638215,5.18701403 6.44638215,5.18701403 C6.34712836,5.4773464 6.13193588,5.6886534 5.86854257,5.78356975 C6.51911122,5.66617698 7.05716372,5.20304817 7.28547595,4.53605678 L7.31856055,4.42124092 C7.31870315,4.42052511 7.31898837,4.41995247 7.31913097,4.41952298 C7.41638828,4.09153902 7.46572996,3.75639697 7.46572996,3.42354551 C7.46572996,2.15656252 6.76852914,0.981346325 5.67231669,0.371476548 C5.63195918,0.849494197 5.49634086,1.41498378 5.33020485,1.76916637 C5.0730862,2.317906 4.69518026,2.69213126 4.41909501,2.96542737 C4.35791702,3.02612802 4.30258589,3.08095903 4.25595372,3.13077938 C4.00396889,3.39992379 3.85152306,3.73363423 3.82685222,4.06992157 C3.82442791,4.10385095 3.82300185,4.13792349 3.82300185,4.17213918 C3.82300185,4.98343778 4.44291021,5.65730094 5.25376802,5.78872358" id="Fill-1" fill="#FEDE00"></path>
                <path d="M6.44641067,5.18699971 C6.44641067,5.18699971 6.46052866,5.13875415 6.46323818,5.12887598 C6.50958513,4.97268632 6.53568203,4.80776379 6.53568203,4.63625581 C6.53568203,3.94850595 6.1343887,3.35452715 5.55398221,3.07808148 L5.55383961,3.07779516 C5.54970403,3.32632425 5.47583411,3.64285525 5.39212438,3.82137817 C5.24737928,4.13017843 5.01222195,4.32401966 4.89357375,4.4505748 C4.76850827,4.58428803 4.68508375,4.75536653 4.67153618,4.93847062 C4.67025272,4.9562227 4.6696823,4.97411794 4.6696823,4.99201318 C4.6696823,5.35908034 4.91339598,5.67074384 5.25379655,5.78870926 C5.3474887,5.82135018 5.44831115,5.83981807 5.55383961,5.83981807 C5.66350363,5.83981807 5.76917469,5.81934591 5.86842848,5.78355543 C6.1319644,5.68863908 6.34701427,5.47733209 6.44641067,5.18699971" id="Fill-3" fill="#FAA61B"></path>
                <path d="M20.0847938,5.78872358 C19.7443933,5.67075816 19.5006796,5.35909466 19.5006796,4.9920275 C19.5006796,4.97413226 19.5013926,4.95623702 19.5025334,4.93848494 C19.516081,4.75538084 19.5995055,4.58430235 19.7247136,4.45058912 C19.8433618,4.32403398 20.0785191,4.13019274 20.2231216,3.82139248 C20.3068314,3.64286957 20.3807013,3.32633856 20.3848369,3.07766631 C20.3848369,3.07766631 20.3849795,3.07780947 20.3849795,3.07795263 C20.965386,3.35454146 21.3668219,3.94852027 21.3668219,4.63627013 C21.3668219,4.80763494 21.340725,4.97270064 21.2942354,5.12889029 C21.2915259,5.13876846 21.2774079,5.18701403 21.2774079,5.18701403 C21.1781541,5.4773464 20.9629617,5.6886534 20.6995684,5.78356975 C21.350137,5.66617698 21.8881895,5.20304817 22.1165017,4.53605678 L22.1495863,4.42124092 C22.1497289,4.42052511 22.1500142,4.41995247 22.1501568,4.41952298 C22.2474141,4.09153902 22.2967557,3.75639697 22.2967557,3.42354551 C22.2967557,2.15656252 21.5995549,0.981346325 20.5033425,0.371476548 C20.462985,0.849494197 20.3273666,1.41498378 20.1612306,1.76916637 C19.904112,2.317906 19.526206,2.69213126 19.2501208,2.96542737 C19.1889428,3.02612802 19.1336117,3.08095903 19.0869795,3.13077938 C18.8349947,3.39992379 18.6825488,3.73363423 18.657878,4.06992157 C18.6554537,4.10385095 18.6540276,4.13792349 18.6540276,4.17213918 C18.6540276,4.98343778 19.273936,5.65730094 20.0847938,5.78872358" id="Fill-5" fill="#FEDE00"></path>
                <path d="M21.2774365,5.18699971 C21.2774365,5.18699971 21.2915545,5.13875415 21.294264,5.12887598 C21.3406109,4.97268632 21.3667078,4.80776379 21.3667078,4.63625581 C21.3667078,3.94850595 20.9654145,3.35452715 20.385008,3.07808148 L20.3848654,3.07779516 C20.3807298,3.32632425 20.3068599,3.64285525 20.2231502,3.82137817 C20.0784051,4.13017843 19.8432477,4.32401966 19.7245995,4.4505748 C19.5995341,4.58428803 19.5161095,4.75536653 19.502562,4.93847062 C19.5012785,4.9562227 19.5007081,4.97411794 19.5007081,4.99201318 C19.5007081,5.35908034 19.7444218,5.67074384 20.0848223,5.78870926 C20.1785145,5.82135018 20.2793369,5.83981807 20.3848654,5.83981807 C20.4945294,5.83981807 20.6002005,5.81934591 20.6994543,5.78355543 C20.9629902,5.68863908 21.1780401,5.47733209 21.2774365,5.18699971" id="Fill-7" fill="#FAA61B"></path>
                <path d="M11.9876527,26.0436155 L11.9876527,21.1637983 L5.33736367,21.1637983 C5.25864515,21.1637983 5.19475766,21.099805 5.19475766,21.0206364 L5.19475766,19.3170096 C5.19475766,19.237841 5.25864515,19.1738477 5.33736367,19.1738477 L9.57618493,19.1738477 C10.8833117,19.1738477 11.9876527,18.0564689 11.9876527,16.7339391 L11.9876527,9.86402804 C11.9876527,8.54135507 10.8833117,7.42397629 9.57618493,7.42397629 L0.371822153,7.42397629 L0.371822153,12.3037935 L7.02211116,12.3037935 C7.10082968,12.3037935 7.16471718,12.36793 7.16471718,12.4469554 L7.16471718,14.1508686 C7.16471718,14.2298939 7.10082968,14.2940305 7.02211116,14.2940305 L2.78343251,14.2940305 C1.47630576,14.2940305 0.371822153,15.4112661 0.371822153,16.7339391 L0.371822153,26.0436155 L11.9876527,26.0436155 Z" id="Fill-9" fill="#FAA61B"></path>
                <path d="M3.82679517,4.06995021 C3.85160862,3.7335197 4.00391185,3.39995242 4.25589668,3.13066485 C4.30252885,3.08098767 4.35800259,3.02615665 4.41918057,2.965456 C4.69512321,2.69215989 5.07302916,2.31793464 5.33014781,1.769195 C5.49628382,1.41501241 5.63204475,0.84952283 5.67225964,0.371505181 C6.7684721,0.981374957 7.46581552,2.15659115 7.46581552,3.42357414 C7.46581552,3.7564256 7.41633123,4.09142449 7.31907393,4.41940845 C7.31893132,4.4199811 7.31878872,4.42055375 7.31864611,4.42126956 L7.28541891,4.53608542 C7.05710668,5.2030768 6.51905417,5.66606245 5.86848552,5.78359838 C5.76923173,5.81938886 5.66356068,5.83971785 5.55375404,5.83971785 C5.4483682,5.83971785 5.34754574,5.82124997 5.25371098,5.78875221 C4.44299577,5.65732957 3.82308742,4.98346641 3.82308742,4.17216782 C3.82308742,4.13795212 3.82437087,4.10387958 3.82679517,4.06995021 Z M2.78334695,14.2940018 L7.0220256,14.2940018 C7.10074412,14.2940018 7.16463161,14.2300085 7.16463161,14.1508399 L7.16463161,12.4470699 C7.16463161,12.3679014 7.10074412,12.303908 7.0220256,12.303908 L0.371879196,12.303908 L0.371879196,7.42409082 L9.57609936,7.42409082 C10.8832261,7.42409082 11.9877097,8.54132643 11.9877097,9.86414257 L11.9877097,16.7339104 C11.9877097,18.0564402 10.8832261,19.173819 9.57609936,19.173819 L5.33742071,19.173819 C5.25870219,19.173819 5.1948147,19.2378124 5.1948147,19.3169809 L5.1948147,21.0206078 C5.1948147,21.0997763 5.25870219,21.1637697 5.33742071,21.1637697 L11.9877097,21.1637697 L11.9877097,26.0435869 L0.371879196,26.0435869 L0.371879196,16.7339104 C0.371879196,15.4113806 1.47622019,14.2940018 2.78334695,14.2940018 Z M14.3294431,23.0417678 L12.7737541,21.4682751 C13.5180149,21.1558958 14.0854442,20.5218317 14.3294431,19.7692294 L14.3294431,23.0417678 Z M18.657821,4.06995021 C18.6826344,3.7335197 18.8349376,3.39995242 19.0869225,3.13066485 C19.1335546,3.08098767 19.1890284,3.02615665 19.2502064,2.965456 C19.526149,2.69215989 19.9040549,2.31793464 20.1611736,1.769195 C20.3273096,1.41501241 20.4630705,0.84952283 20.5032854,0.371505181 C21.5994979,0.981374957 22.2968413,2.15659115 22.2968413,3.42357414 C22.2968413,3.7564256 22.247357,4.09142449 22.1500997,4.41940845 C22.1499571,4.4199811 22.1498145,4.42055375 22.1496719,4.42126956 L22.1164447,4.53608542 C21.8881325,5.2030768 21.35008,5.66606245 20.6995113,5.78359838 C20.6002575,5.81938886 20.4945865,5.83971785 20.3847798,5.83971785 C20.279394,5.83971785 20.1785715,5.82124997 20.0847368,5.78875221 C19.2740216,5.65732957 18.6541132,4.98346641 18.6541132,4.17216782 C18.6541132,4.13795212 18.6553967,4.10387958 18.657821,4.06995021 Z M14.6146552,23.6035351 L14.6146552,9.86414257 C14.6146552,8.54132643 15.7189962,7.42409082 17.0261229,7.42409082 L23.8190179,7.42409082 C25.1261447,7.42409082 26.2304857,8.54132643 26.2304857,9.86414257 L26.2304857,23.6035351 C26.2304857,24.9262081 25.1261447,26.0435869 23.8190179,26.0435869 L17.0261229,26.0435869 C15.7189962,26.0435869 14.6146552,24.9262081 14.6146552,23.6035351 Z M27.8840025,10.1397293 C27.8688862,10.1242678 25.7615971,7.99287312 25.7384949,7.96982405 C25.7340741,7.96538603 25.7292255,7.96166382 25.7249474,7.95708264 C25.6895811,7.921149 25.6517905,7.88793543 25.6145703,7.8538629 C25.5864769,7.82809375 25.5593818,7.80074983 25.5302901,7.77612598 C25.0608311,7.37956746 24.4620285,7.13776698 23.8190179,7.13776698 L20.5226798,7.13776698 L20.5226798,6.09411658 C21.3754638,6.03470439 22.0973355,5.47322334 22.3881092,4.62284154 L22.4234755,4.50115391 C22.5287187,4.14654183 22.5820533,3.78405585 22.5820533,3.42357414 C22.5820533,1.97649346 21.7415335,0.640076942 20.4399684,0.0168931065 C20.3986126,-0.00529699102 20.3484153,-0.00572647678 20.3063465,0.0163204588 C20.2601422,0.0405148232 20.2307653,0.0883309043 20.2299097,0.140728167 C20.2219238,0.619175301 20.0814568,1.26698299 19.9031993,1.64722104 C19.6676142,2.14986254 19.3105287,2.50347248 19.0498449,2.76159343 C18.9858148,2.82515732 18.9279168,2.88256525 18.8791455,2.93467619 C18.582525,3.25149351 18.402984,3.64719306 18.373322,4.04904857 C18.3704698,4.08999288 18.3689012,4.13093718 18.3689012,4.17216782 C18.3689012,5.19119436 19.1955883,6.02597151 20.2374678,6.09340078 L20.2374678,7.13776698 L17.0261229,7.13776698 C15.5644112,7.13776698 14.3294431,8.38613891 14.3294431,9.86414257 L14.3294431,11.2592555 C14.1945378,10.8420816 13.9598083,10.4548286 13.6413691,10.1400156 C13.6255398,10.1236951 11.5604621,8.03496273 11.4948633,7.96896508 C11.4905851,7.96467022 11.4858791,7.96094801 11.481601,7.95665316 C11.4460921,7.92043319 11.4080163,7.88679014 11.3705109,7.8527176 C11.3427027,7.82723478 11.3160354,7.80017718 11.287229,7.77598281 C10.81777,7.37956746 10.2191099,7.13776698 9.57609936,7.13776698 L5.69165406,7.13776698 L5.69165406,6.09411658 C6.54443804,6.03470439 7.2663097,5.47322334 7.55708337,4.62284154 L7.59244966,4.50115391 C7.69769291,4.14654183 7.75102756,3.78405585 7.75102756,3.42357414 C7.75102756,1.97649346 6.91050769,0.640076942 5.60894257,0.0168931065 C5.56758683,-0.00529699102 5.51738951,-0.00572647678 5.47532073,0.0163204588 C5.42911638,0.0405148232 5.39973954,0.0883309043 5.39888391,0.140728167 C5.39089797,0.619175301 5.25043104,1.26698299 5.07217352,1.64722104 C4.83658838,2.14986254 4.47950292,2.50347248 4.21881912,2.76159343 C4.15478901,2.82515732 4.09689097,2.88256525 4.04811971,2.93467619 C3.7514992,3.25149351 3.57195822,3.64719306 3.54229617,4.04904857 C3.53944405,4.08999288 3.53787538,4.13093718 3.53787538,4.17216782 C3.53787538,5.19119436 4.36456247,6.02597151 5.40644203,6.09340078 L5.40644203,7.13776698 L0.229273179,7.13776698 C0.150554657,7.13776698 0.0866671615,7.20176036 0.0866671615,7.2809289 L0.0866671615,7.28107206 L0.0866671615,12.4470699 C0.0866671615,12.4659673 0.090517524,12.4847215 0.0977904308,12.5020441 C0.103779884,12.5163603 0.113049275,12.5286722 0.123031696,12.5401252 C0.12502818,12.5425589 0.125883816,12.5455653 0.128022906,12.5478559 L0.128308119,12.5479991 C0.128450725,12.5482854 0.128450725,12.5482854 0.128593331,12.5485717 L1.77412416,14.2126859 C1.76513998,14.2164081 1.75672623,14.2209893 1.74774205,14.2248546 C1.74446211,14.2262863 1.74132478,14.227861 1.73818745,14.2294358 C1.66331929,14.2620767 1.59073282,14.298583 1.51985763,14.3375231 C1.51315515,14.3411021 1.50659527,14.3448243 1.500178,14.3486897 C1.19756804,14.5181934 0.932035631,14.7429576 0.714989273,15.0073777 C0.713135395,15.0096683 0.711281517,15.0118157 0.709427639,15.0139631 C0.603186156,15.1440973 0.508638366,15.2833939 0.427638149,15.4304212 C0.418939182,15.4463121 0.410810639,15.4623463 0.402396884,15.4782372 C0.373447862,15.5333546 0.346352719,15.5893309 0.321111454,15.6461662 C0.311414245,15.6677836 0.301717035,15.6891147 0.292732856,15.7107322 C0.265637713,15.7763004 0.240824266,15.8425843 0.219005545,15.9100136 C0.216010819,15.9194623 0.212160457,15.9283383 0.20916573,15.9376438 C0.185920949,16.012088 0.166669137,16.0879639 0.149841627,16.1644123 C0.144279992,16.1901815 0.139859206,16.2159506 0.134867995,16.2418629 C0.124172544,16.2984119 0.115330971,16.355104 0.10820067,16.4125119 C0.105063338,16.4379947 0.101783399,16.4630481 0.099359097,16.4888172 C0.0918009781,16.5698469 0.0866671615,16.6515923 0.0866671615,16.7339104 L0.0866671615,26.1867488 C0.0866671615,26.2059325 0.090517524,26.2245436 0.0977904308,26.241723 C0.103779884,26.2561823 0.113049275,26.2684943 0.123031696,26.2799472 C0.12502818,26.2822378 0.125883816,26.2853874 0.128022906,26.2875348 L0.128308119,26.2878211 C0.128450725,26.2878211 0.128450725,26.2881074 0.128593331,26.2881074 L2.31645485,28.5008181 C2.34326478,28.5280188 2.37962931,28.543194 2.41770512,28.543194 L14.3186051,28.543194 C14.3974662,28.543194 14.4612111,28.4792006 14.4612111,28.4000321 L14.4612111,24.4258572 C14.5420687,24.6745295 14.6572944,24.9088855 14.8020395,25.1221968 C14.8050342,25.1266348 14.8085993,25.1305002 14.8117367,25.1350813 C14.8583688,25.2029401 14.9075679,25.2690809 14.9599043,25.3325016 C14.9844326,25.3622793 15.0116703,25.3899096 15.037482,25.4185419 C15.071137,25.4561935 15.1039364,25.4942746 15.1395879,25.5300651 C15.1434383,25.5340736 15.1467182,25.5383685 15.1507112,25.5422338 C15.3661889,25.7602695 17.2363242,27.6518679 17.2956483,27.7117096 C17.8067483,28.2401202 18.5060882,28.543194 19.2145549,28.543194 L26.0073073,28.543194 C27.4691616,28.543194 28.7039871,27.2948221 28.7039871,25.8168184 L28.7039871,12.0772827 C28.7039871,11.3610436 28.4042292,10.6539669 27.8840025,10.1397293 Z" id="Fill-11" fill="#0E8C92"></path>
                <path d="M21.4075074,21.0206507 C21.4075074,21.0998193 21.3436199,21.1638127 21.2649014,21.1638127 L19.5802965,21.1638127 C19.5014354,21.1638127 19.4376905,21.0998193 19.4376905,21.0206507 L19.4376905,12.4469697 C19.4376905,12.3679443 19.5014354,12.3038078 19.5802965,12.3038078 L21.2649014,12.3038078 C21.3436199,12.3038078 21.4075074,12.3679443 21.4075074,12.4469697 L21.4075074,21.0206507 Z M17.0260801,26.0436298 L23.8189752,26.0436298 C25.1261019,26.0436298 26.2304429,24.9261079 26.2304429,23.6035781 L26.2304429,9.86404236 C26.2304429,8.54136938 25.1261019,7.4239906 23.8189752,7.4239906 L17.0260801,7.4239906 C15.7189534,7.4239906 14.614755,8.54136938 14.614755,9.86404236 L14.614755,23.6035781 C14.614755,24.9261079 15.7189534,26.0436298 17.0260801,26.0436298 Z" id="Fill-13" fill="#FAA61B"></path>
                <path d="M21.2649014,12.3038507 L19.5802965,12.3038507 C19.5014354,12.3038507 19.4376905,12.3678441 19.4376905,12.4470127 L19.4376905,21.0206937 C19.4376905,21.0997191 19.5014354,21.1638556 19.5802965,21.1638556 L21.2649014,21.1638556 C21.3436199,21.1638556 21.4075074,21.0997191 21.4075074,21.0206937 L21.4075074,12.4470127 C21.4075074,12.3678441 21.3436199,12.3038507 21.2649014,12.3038507" id="Fill-15" fill="#0E8C92"></path>
            </g>
            <g id="Seamless-Logo-" transform="translate(0.000000, 3.321429)">
                <g id="Group-27" transform="translate(0.000000, 0.181563)" fill="#D01120">
                    <path d="M70.2955559,13.340991 L70.2955559,22.7135395 C70.2955559,24.9982387 68.0840912,26.3406106 65.8753235,26.3406106 C64.5139244,26.3406106 52.7208848,24.9982387 35.1478319,24.9982387 C17.5731608,24.9982387 5.78012123,26.3406106 4.42034019,26.3406106 C2.20995434,26.3406106 0.000107876322,24.9982387 0.000107876322,22.7135395 L0.000107876322,13.340991 L0.000107876322,3.96791962 C0.000107876322,1.68374332 2.20995434,0.341371402 4.42034019,0.341371402 C5.78012123,0.341371402 17.5731608,1.68374332 35.1478319,1.68374332 C52.7208848,1.68374332 64.5139244,0.341371402 65.8753235,0.341371402 C68.0840912,0.341371402 70.2955559,1.68374332 70.2955559,3.96791962 L70.2955559,13.340991 Z" id="Fill-25"></path>
                </g>
                <path d="M5.78039092,15.9305609 L7.20435838,15.9305609 L7.20435838,16.3452476 C7.20435838,16.8415121 7.89584561,17.0825847 8.64288914,17.0825847 C9.36188483,17.0825847 9.88724252,16.82687 9.88724252,16.3452476 C9.88724252,15.754855 9.19629467,15.5937913 8.2566919,15.2596364 C7.21892168,14.897243 6.02958523,14.4407215 6.02958523,13.1553494 C6.02958523,11.7198952 7.49508507,11.2100344 8.76802567,11.2100344 C9.79123259,11.2100344 11.2982648,11.5980516 11.2982648,12.6172502 L11.2982648,13.475908 L9.84517075,13.475908 L9.84517075,13.0732487 C9.84517075,12.7113783 9.40341721,12.483379 8.78097083,12.483379 C8.20059622,12.483379 7.70274699,12.697782 7.70274699,13.1407073 C7.70274699,13.730054 8.4212033,13.9590992 9.20977921,14.1996489 C10.2885424,14.5348497 11.5604043,14.9641786 11.5604043,16.2903395 C11.5604043,17.6583352 10.2329861,18.3564523 8.61484129,18.3564523 C7.32949491,18.3564523 5.78039092,17.8199219 5.78039092,16.7065951 L5.78039092,15.9305609 Z" id="Fill-28" fill="#FFFFFF"></path>
                <path d="M17.3555743,14.0262439 C17.3140419,13.0342379 16.6921349,12.4705149 15.9170435,12.4705149 C14.9914647,12.4705149 14.3269465,13.0875771 14.1473324,14.0262439 L17.3555743,14.0262439 Z M15.9585759,11.2097207 C17.9780206,11.2097207 19.069729,12.6451749 19.069729,14.4414536 C19.069729,14.629187 19.0281966,15.0041307 19.0281966,15.0041307 L14.1058,15.0041307 C14.2169127,16.3046679 15.1851026,16.9886658 16.2773504,16.9886658 C17.4380996,16.9886658 18.3372488,16.2518516 18.3372488,16.2518516 L18.9872036,17.4038755 C18.9872036,17.4038755 17.9219249,18.3561385 16.1667772,18.3561385 C13.8571451,18.3561385 12.3916453,16.7345198 12.3916453,14.7761315 C12.3916453,12.6718445 13.871169,11.2097207 15.9585759,11.2097207 L15.9585759,11.2097207 Z" id="Fill-30" fill="#FFFFFF"></path>
                <path d="M22.5560221,17.1360286 C23.5652051,17.1360286 24.2572317,16.1042796 24.2572317,15.2184291 L24.2572317,14.9773565 L23.9519417,14.9773565 C23.2750178,14.9773565 21.4907434,15.0714847 21.4907434,16.1576189 C21.4907434,16.6810759 21.8785588,17.1360286 22.5560221,17.1360286 M23.8003754,13.9848275 L24.2432078,13.9848275 L24.2432078,13.7437549 C24.2432078,12.8317578 23.6617544,12.5106762 22.9012263,12.5106762 C21.8354082,12.5106762 20.9098294,13.1674815 20.9098294,13.1674815 L20.2733591,12.0421272 C20.2733591,12.0421272 21.3521223,11.210139 23.0398474,11.210139 C24.9206711,11.210139 25.9158301,12.1488058 25.9158301,13.8922682 L25.9158301,16.6810759 C25.9158301,16.8818826 26.0264034,16.9754878 26.2205807,16.9754878 L26.8699962,16.9754878 L26.8699962,18.1949702 L25.2523907,18.1949702 C24.6153811,18.1949702 24.3667261,17.8738887 24.3667261,17.4717523 L24.3667261,17.3901746 C24.3667261,17.1632212 24.4087979,17.0152308 24.4087979,17.0152308 L24.3807501,17.0152308 C24.3807501,17.0152308 23.7863515,18.3565569 22.1406982,18.3565569 C20.9378772,18.3565569 19.8040971,17.672559 19.8040971,16.2778937 C19.8040971,14.187203 22.652032,13.9848275 23.8003754,13.9848275" id="Fill-32" fill="#FFFFFF"></path>
                <path d="M27.520868,16.9749126 L28.5580988,16.9749126 L28.5580988,12.8724943 C28.5580988,12.6852839 28.4475256,12.5906328 28.2533482,12.5906328 L27.4518271,12.5906328 L27.4518271,11.3711504 L29.2485073,11.3711504 C29.8580085,11.3711504 30.1622197,11.6394156 30.1622197,12.1362031 L30.1622197,12.4431654 C30.1622197,12.6037062 30.1341719,12.7652928 30.1341719,12.7652928 L30.1622197,12.7652928 C30.5219873,12.041552 31.4211364,11.2100867 32.5818857,11.2100867 C33.591608,11.2100867 34.2971192,11.6660853 34.5592587,12.7119536 L34.5867671,12.7119536 C34.9745825,11.9071579 35.9282092,11.2100867 37.0495836,11.2100867 C38.5010595,11.2100867 39.3166045,12.0279557 39.3166045,13.8111611 L39.3166045,16.9749126 L40.3532959,16.9749126 L40.3532959,18.1938721 L37.6418246,18.1938721 L37.6418246,14.1196922 C37.6418246,13.3154195 37.4907977,12.6852839 36.619157,12.6852839 C35.4028515,12.6852839 34.7809445,13.8775737 34.7809445,15.1519642 L34.7809445,16.9749126 L35.8181753,16.9749126 L35.8181753,18.1938721 L33.1077827,18.1938721 L33.1077827,14.1196922 C33.1077827,13.3551625 32.9826462,12.6852839 32.1120843,12.6852839 C30.8391437,12.6852839 30.2307212,13.9847752 30.2307212,15.2319731 L30.2307212,16.9749126 L31.2679521,16.9749126 L31.2679521,18.1938721 L27.520868,18.1938721 L27.520868,16.9749126 Z" id="Fill-34" fill="#FFFFFF"></path>
                <path d="M41.3092959,9.90907889 L40.2035636,9.90907889 L40.2035636,8.68959649 L42.9678944,8.68959649 L42.9678944,15.9693626 C42.9678944,16.5733515 43.1070548,16.9085523 43.7014533,16.9085523 C43.8961701,16.9085523 44.033173,16.894433 44.033173,16.894433 L44.033173,18.2080436 C44.033173,18.2080436 43.7424463,18.2488325 43.411266,18.2488325 C42.3049944,18.2488325 41.3092959,17.8738887 41.3092959,16.0776099 L41.3092959,9.90907889 Z" id="Fill-36" fill="#FFFFFF"></path>
                <path d="M49.5372927,14.0262439 C49.4962997,13.0342379 48.8733139,12.4705149 48.0987619,12.4705149 C47.1726437,12.4705149 46.5086649,13.0875771 46.3301296,14.0262439 L49.5372927,14.0262439 Z M48.1408337,11.2097207 C50.1597391,11.2097207 51.2530656,12.6451749 51.2530656,14.4414536 C51.2530656,14.629187 51.2109938,15.0041307 51.2109938,15.0041307 L46.2875185,15.0041307 C46.3980917,16.3046679 47.3668211,16.9886658 48.4590689,16.9886658 C49.6203575,16.9886658 50.5195066,16.2518516 50.5195066,16.2518516 L51.1689221,17.4038755 C51.1689221,17.4038755 50.1041828,18.3561385 48.349035,18.3561385 C46.0388636,18.3561385 44.5717456,16.7345198 44.5717456,14.7761315 C44.5717456,12.6718445 46.0534269,11.2097207 48.1408337,11.2097207 L48.1408337,11.2097207 Z" id="Fill-38" fill="#FFFFFF"></path>
                <path d="M52.1654835,15.9305609 L53.5910691,15.9305609 L53.5910691,16.3452476 C53.5910691,16.8415121 54.2809382,17.0825847 55.0279818,17.0825847 C55.7480562,17.0825847 56.2728745,16.82687 56.2728745,16.3452476 C56.2728745,15.754855 55.5813873,15.5937913 54.6401664,15.2596364 C53.6040143,14.897243 52.4146778,14.4407215 52.4146778,13.1553494 C52.4146778,11.7198952 53.8812565,11.2100344 55.1531183,11.2100344 C56.1752464,11.2100344 57.6828181,11.5980516 57.6828181,12.6172502 L57.6828181,13.475908 L56.2313421,13.475908 L56.2313421,13.0732487 C56.2313421,12.7113783 55.7885098,12.483379 55.1671422,12.483379 C54.5851495,12.483379 54.0889184,12.697782 54.0889184,13.1407073 C54.0889184,13.730054 54.8068353,13.9590992 55.5943325,14.1996489 C56.6741744,14.5348497 57.9454969,14.9641786 57.9454969,16.2903395 C57.9454969,17.6583352 56.6196969,18.3564523 55.0004733,18.3564523 C53.7156663,18.3564523 52.1654835,17.8199219 52.1654835,16.7065951 L52.1654835,15.9305609 Z" id="Fill-40" fill="#FFFFFF"></path>
                <path d="M58.734774,15.9305609 L60.1603596,15.9305609 L60.1603596,16.3452476 C60.1603596,16.8415121 60.8507681,17.0825847 61.5967328,17.0825847 C62.3173467,17.0825847 62.8416256,16.82687 62.8416256,16.3452476 C62.8416256,15.754855 62.1501384,15.5937913 61.2105356,15.2596364 C60.1733048,14.897243 58.9828896,14.4407215 58.9828896,13.1553494 C58.9828896,11.7198952 60.4489288,11.2100344 61.7218694,11.2100344 C62.7461551,11.2100344 64.2526479,11.5980516 64.2526479,12.6172502 L64.2526479,13.475908 L62.8006326,13.475908 L62.8006326,13.0732487 C62.8006326,12.7113783 62.3583397,12.483379 61.7369721,12.483379 C61.1555187,12.483379 60.6576695,12.697782 60.6576695,13.1407073 C60.6576695,13.730054 61.3755864,13.9590992 62.1636229,14.1996489 C63.2440043,14.5348497 64.5153267,14.9641786 64.5153267,16.2903395 C64.5153267,17.6583352 63.1873692,18.3564523 61.5703031,18.3564523 C60.2844174,18.3564523 58.734774,17.8199219 58.734774,16.7065951 L58.734774,15.9305609 Z" id="Fill-42" fill="#FFFFFF"></path>
            </g>
        </g>
    </g>
</svg>