<?xml version="1.0" encoding="UTF-8"?>
<svg width="90px" height="114px" viewBox="0 0 90 114" version="1.1" xmlns="http://www.w3.org/2000/svg" xmlns:xlink="http://www.w3.org/1999/xlink">
    <!-- Generator: Sketch 51.3 (57544) - http://www.bohemiancoding.com/sketch -->
    <title>SL_DealsonMeals</title>
    <desc>Created with Sketch.</desc>
    <defs>
        <polygon id="path-1" points="0 0.000127253092 51.7961718 0.000127253092 51.7961718 25.654352 0 25.654352"></polygon>
        <polygon id="path-3" points="0 0.0509648662 51.7961718 0.0509648662 51.7961718 22.1421029 0 22.1421029"></polygon>
        <polygon id="path-5" points="0 0.330985311 51.7963618 0.330985311 51.7963618 11.3765543 0 11.3765543"></polygon>
        <polygon id="path-7" points="0.608044551 0.509076023 43.1800322 0.509076023 43.1800322 43.2660537 0.608044551 43.2660537"></polygon>
        <polygon id="path-9" points="0.507252836 0.509076023 43.078607 0.509076023 43.078607 43.2660537 0.507252836 43.2660537"></polygon>
    </defs>
    <g id="Page-1" stroke="none" stroke-width="1" fill="none" fill-rule="evenodd">
        <g id="SL_valueprop_illos" transform="translate(-905.000000, -773.000000)">
            <g id="Group-6-Copy-4" transform="translate(95.000000, 768.000000)">
                <g id="Group-16" transform="translate(714.000000, 5.000000)">
                    <g id="SL_DealsonMeals" transform="translate(96.000000, 0.000000)">
                        <g id="Group-44" transform="translate(0.654179, 0.905969)">
                            <path d="M55.343584,57.7219422 L3.54766564,57.7219422 L3.54766564,99.7663661 L3.56857153,99.7663661 C3.56033588,99.8853478 3.54766564,100.003057 3.54766564,100.122675 C3.54766564,106.223188 15.1428307,111.168244 29.4456248,111.168244 C43.748419,111.168244 55.343584,106.223188 55.343584,100.122675 C55.343584,100.003057 55.3309138,99.8853478 55.3226781,99.7663661 L55.343584,99.7663661 L55.343584,57.7219422 Z" id="Fill-1" fill="#F8A51C"></path>
                            <path d="M28.621046,64.135562 L28.621046,111.156855 C29.2108454,111.163217 29.8019118,111.168307 30.3980463,111.168307 C32.2048218,111.168307 33.9818222,111.136494 35.7303145,111.081775 L35.7303145,64.135562 L28.621046,64.135562 Z" id="Fill-3" fill="#FEFEFE"></path>
                            <path d="M55.343584,57.3656335 C55.343584,63.466147 43.748419,68.4112025 29.4456248,68.4112025 C15.1428307,68.4112025 3.54766564,63.466147 3.54766564,57.3656335 C3.54766564,51.2657562 15.1428307,46.3200645 29.4456248,46.3200645 C43.748419,46.3200645 55.343584,51.2657562 55.343584,57.3656335" id="Fill-5" fill="#FDDB00"></path>
                            <path d="M3.5478557,71.9742256 C3.5478557,78.0747392 15.1430207,83.0197946 29.4458149,83.0197946 C43.748609,83.0197946 55.3437741,78.0747392 55.3437741,71.9742256 L53.2145412,71.9742256 C53.2145412,73.9530113 50.8635792,76.1373108 46.9263038,77.8170517 C42.2915321,79.7939286 36.0837507,80.8819426 29.4458149,80.8819426 C22.8072455,80.8819426 16.5994642,79.7939286 11.9646924,77.8170517 C8.02678357,76.1373108 5.67582157,73.9530113 5.67582157,71.9742256 L3.5478557,71.9742256 Z" id="Fill-7" fill="#F8A51C"></path>
                            <path d="M3.5478557,86.2268272 C3.5478557,92.3267046 15.1430207,97.2723963 29.4458149,97.2723963 C43.748609,97.2723963 55.3437741,92.3267046 55.3437741,86.2268272 L53.2145412,86.2268272 C53.2145412,88.2056129 50.8635792,90.3899124 46.9263038,92.0696533 C42.2915321,94.0458939 36.0837507,95.1345442 29.4458149,95.1345442 C22.8072455,95.1345442 16.5994642,94.0458939 11.9646924,92.0696533 C8.02678357,90.3899124 5.67582157,88.2056129 5.67582157,86.2268272 L3.5478557,86.2268272 Z" id="Fill-9" fill="#F8A51C"></path>
                            <path d="M3.5478557,100.479111 C3.5478557,106.578988 15.1430207,111.52468 29.4458149,111.52468 C43.748609,111.52468 55.3437741,106.578988 55.3437741,100.479111 L53.2145412,100.479111 C53.2145412,102.457896 50.8635792,104.642196 46.9263038,106.321937 C42.2915321,108.298177 36.0837507,109.386828 29.4458149,109.386828 C22.8072455,109.386828 16.5994642,108.298177 11.9646924,106.321937 C8.02678357,104.642196 5.67582157,102.457896 5.67582157,100.479111 L3.5478557,100.479111 Z" id="Fill-11" fill="#F8A51C"></path>
                            <g id="Group-15" transform="translate(0.000000, 41.331807)">
                                <mask id="mask-2" fill="white">
                                    <use xlink:href="#path-1"></use>
                                </mask>
                                <g id="Clip-14"></g>
                                <path d="M51.7961718,0.000127253092 L-0.00038010701,0.000127253092 L-0.00038010701,14.2524744 L0.0211592915,14.2524744 C0.0122901274,14.3708197 -0.00038010701,14.4891651 -0.00038010701,14.608783 C-0.00038010701,20.7086603 11.5947849,25.654352 25.8975791,25.654352 C40.2010067,25.654352 51.7961718,20.7086603 51.7961718,14.608783 C51.7961718,14.4891651 51.7835015,14.3708197 51.7746324,14.2524744 L51.7961718,14.2524744 L51.7961718,0.000127253092 Z" id="Fill-13" fill="#F8A51C" mask="url(#mask-2)"></path>
                            </g>
                            <path d="M24.9863992,47.7452356 L24.9863992,66.9744514 C25.491308,66.980814 25.9962169,66.9859041 26.5055603,66.9859041 C28.0506954,66.9859041 29.569223,66.9540909 31.0643106,66.899372 L31.0643106,47.7452356 L24.9863992,47.7452356 Z" id="Fill-16" fill="#FEFEFE"></path>
                            <g id="Group-20" transform="translate(0.000000, 29.879028)">
                                <mask id="mask-4" fill="white">
                                    <use xlink:href="#path-3"></use>
                                </mask>
                                <g id="Clip-19"></g>
                                <path d="M51.7961718,11.0965339 C51.7961718,17.1964112 40.2010067,22.1421029 25.8975791,22.1421029 C11.5947849,22.1421029 -0.00038010701,17.1964112 -0.00038010701,11.0965339 C-0.00038010701,4.9960203 11.5947849,0.0509648662 25.8975791,0.0509648662 C40.2010067,0.0509648662 51.7961718,4.9960203 51.7961718,11.0965339" id="Fill-18" fill="#FDDB00" mask="url(#mask-4)"></path>
                            </g>
                            <g id="Group-23" transform="translate(0.000000, 55.965913)">
                                <mask id="mask-6" fill="white">
                                    <use xlink:href="#path-5"></use>
                                </mask>
                                <g id="Clip-22"></g>
                                <path d="M-0.000190053505,0.330985311 C-0.000190053505,6.43086262 11.594975,11.3765543 25.8977691,11.3765543 C40.2011968,11.3765543 51.7963618,6.43086262 51.7963618,0.330985311 L49.6671289,0.330985311 C49.6671289,2.309771 47.3161669,4.49407045 43.3788916,6.17381136 C38.7441198,8.15005199 32.535705,9.23870225 25.8977691,9.23870225 C19.2598333,9.23870225 13.0520519,8.15005199 8.41728019,6.17381136 C4.47937133,4.49407045 2.12840933,2.309771 2.12840933,0.330985311 L-0.000190053505,0.330985311 Z" id="Fill-21" fill="#F8A51C" mask="url(#mask-6)"></path>
                            </g>
                            <path d="M57.4724368,10.6892603 L5.67588492,10.6892603 L5.67588492,40.6191893 L5.69742432,40.6191893 C5.68855515,40.7381709 5.67588492,40.85588 5.67588492,40.9754979 C5.67588492,47.0760115 17.27105,52.0210669 31.5744776,52.0210669 C45.8772718,52.0210669 57.4724368,47.0760115 57.4724368,40.9754979 C57.4724368,40.85588 57.4597666,40.7381709 57.4508974,40.6191893 L57.4724368,40.6191893 L57.4724368,10.6892603 Z" id="Fill-24" fill="#F8A51C"></path>
                            <path d="M30.744894,4.98838511 L30.744894,52.0096778 C31.3308924,52.0160404 31.9175242,52.0211306 32.5092242,52.0211306 C34.3020623,52.0211306 36.065759,51.9893173 37.8015811,51.9345985 L37.8015811,4.98838511 L30.744894,4.98838511 Z" id="Fill-26" fill="#FEFEFE"></path>
                            <path d="M57.4724368,11.0456326 C57.4724368,17.1461462 45.8772718,22.0912016 31.5744776,22.0912016 C17.27105,22.0912016 5.67588492,17.1461462 5.67588492,11.0456326 C5.67588492,4.94511906 17.27105,6.36265458e-05 31.5744776,6.36265458e-05 C45.8772718,6.36265458e-05 57.4724368,4.94511906 57.4724368,11.0456326" id="Fill-28" fill="#FDDB00"></path>
                            <path d="M5.67601162,27.0793322 C5.67601162,33.1798458 17.2711767,38.1249013 31.5746043,38.1249013 C45.8773985,38.1249013 57.4725635,33.1798458 57.4725635,27.0793322 L55.3433306,27.0793322 C55.3433306,29.0581179 52.9923686,31.2424174 49.0550933,32.9221583 C44.4203215,34.8990352 38.2119066,35.9870492 31.5746043,35.9870492 C24.936035,35.9870492 18.7282536,34.8990352 14.0934819,32.9221583 C10.155573,31.2424174 7.80461101,29.0581179 7.80461101,27.0793322 L5.67601162,27.0793322 Z" id="Fill-30" fill="#F8A51C"></path>
                            <path d="M5.67601162,41.3319339 C5.67601162,47.4318112 17.2711767,52.3775029 31.5746043,52.3775029 C45.8773985,52.3775029 57.4725635,47.4318112 57.4725635,41.3319339 L55.3433306,41.3319339 C55.3433306,43.3107196 52.9923686,45.495019 49.0550933,47.1747599 C44.4203215,49.1510005 38.2119066,50.2396508 31.5746043,50.2396508 C24.936035,50.2396508 18.7282536,49.1510005 14.0934819,47.1747599 C10.155573,45.495019 7.80461101,43.3107196 7.80461101,41.3319339 L5.67601162,41.3319339 Z" id="Fill-32" fill="#F8A51C"></path>
                            <g id="Group-36" transform="translate(40.544750, 69.327488)">
                                <mask id="mask-8" fill="white">
                                    <use xlink:href="#path-7"></use>
                                </mask>
                                <g id="Clip-35"></g>
                                <path d="M43.1800322,21.8875967 C43.1800322,10.0804179 33.6501154,0.509076023 21.8940384,0.509076023 C10.1385949,0.509076023 0.608044551,10.0804179 0.608044551,21.8875967 C0.608044551,33.6947755 10.1385949,43.2661173 21.8940384,43.2661173 C33.6501154,43.2661173 43.1800322,33.6947755 43.1800322,21.8875967" id="Fill-34" fill="#F8A51C" mask="url(#mask-8)"></path>
                            </g>
                            <g id="Group-39" transform="translate(45.612844, 69.327488)">
                                <mask id="mask-10" fill="white">
                                    <use xlink:href="#path-9"></use>
                                </mask>
                                <g id="Clip-38"></g>
                                <path d="M43.078607,21.8875967 C43.078607,10.0804179 33.5486902,0.509076023 21.7926132,0.509076023 C10.0371697,0.509076023 0.507252836,10.0804179 0.507252836,21.8875967 C0.507252836,33.6947755 10.0371697,43.2661173 21.7926132,43.2661173 C33.5486902,43.2661173 43.078607,33.6947755 43.078607,21.8875967" id="Fill-37" fill="#FDDB00" mask="url(#mask-10)"></path>
                            </g>
                            <path d="M65.6864231,108.754952 L65.6864231,104.625589 C60.2679973,103.737999 57.8087048,99.7244362 57.5400959,96.5596516 L62.8432225,95.3634725 C63.034543,97.6018545 64.572076,99.6086359 67.8764731,99.6086359 C69.7972806,99.6086359 71.1808702,98.6822333 71.1808702,97.1774654 C71.1808702,96.0582744 70.3357656,95.3252966 68.7988662,94.9778956 L65.3791699,94.1666571 C61.0757248,93.1250905 58.4238447,90.5011316 58.4238447,86.8349698 C58.4238447,82.512182 61.6515869,79.5408222 65.6864231,78.8460202 L65.6864231,74.677845 L70.1051673,74.677845 L70.1051673,78.9618206 C74.331324,79.8882231 76.2533986,82.9372074 76.7906165,85.5611663 L71.4501127,86.9889461 C71.2188809,85.7927669 70.5663639,83.7859856 67.5305757,83.7859856 C65.3791699,83.7859856 64.3028335,85.0597891 64.3028335,86.2941441 C64.3028335,87.336347 65.0712832,88.146313 66.5701719,88.493714 L69.9132133,89.2273281 C75.061763,90.3853313 77.0985032,93.3948671 77.0985032,96.8682404 C77.0985032,100.418602 74.5625558,103.737999 70.1051673,104.548601 L70.1051673,108.754952 L65.6864231,108.754952 Z" id="Fill-40" fill="#34B3B4"></path>
                            <path d="M51.9805237,11.9874328 L47.0999494,11.9874328 C46.0514875,15.4239028 41.3064847,16.9840258 37.5662315,17.1545449 L36.1528668,13.7906092 C38.7977783,13.6690825 41.1702797,12.6943238 41.1702797,10.5984652 C41.1702797,9.38001682 40.0749379,8.5026067 38.296037,8.5026067 C36.973898,8.5026067 36.107254,9.03834225 35.6967384,10.013101 L34.7382352,12.1827663 C33.5066884,14.9123453 30.405015,16.593995 26.0724283,16.593995 C20.9631563,16.593995 17.4516008,14.5464926 16.6305696,11.9874328 L11.7043825,11.9874328 L11.7043825,9.18468331 L16.7667746,9.18468331 C17.8621164,6.50409678 21.4655311,5.28501209 24.5672045,4.94397378 L26.2548797,8.33208755 C24.8408815,8.47842861 22.4690136,8.89200118 22.4690136,10.8179768 C22.4690136,12.1827663 23.9742375,12.8648429 25.4338485,12.8648429 C26.6653953,12.8648429 27.623265,12.3774636 28.0331471,11.4268829 L28.8997911,9.30621002 C30.2694435,6.0408955 33.8266118,4.74927654 37.9311342,4.74927654 C42.1275159,4.74927654 46.0514875,6.35775571 47.0080902,9.18468331 L51.9805237,9.18468331 L51.9805237,11.9874328 Z" id="Fill-42" fill="#34B3B4"></path>
                        </g>
                    </g>
                </g>
            </g>
        </g>
    </g>
</svg>